0
SECTION
2
HEADER
9
$INSUNITS
70
4
0
ENDSEC
0
SECTION
2
TABLES
0
TABLE
2
LAYER
70
2
0
LAYER
2
CORTE EXTERNO
70
0
62
1
6
CONTINUOUS
0
LAYER
2
CORTE INTERNO
70
0
62
2
6
CONTINUOUS
0
ENDTAB
0
ENDSEC
0
SECTION
2
ENTITIES
0
POLYLINE
8
CORTE EXTERNO
66
1
70
1
0
VERTEX
8
CORTE EXTERNO
10
0.0000
20
529.1907
30
0.0
0
VERTEX
8
CORTE EXTERNO
10
0.0072
20
527.9883
30
0.0
0
VERTEX
8
CORTE EXTERNO
10
0.0299
20
526.8144
30
0.0
0
VERTEX
8
CORTE EXTERNO
10
0.0699
20
525.6674
30
0.0
0
VERTEX
8
CORTE EXTERNO
10
0.1289
20
524.5458
30
0.0
0
VERTEX
8
CORTE EXTERNO
10
0.2085
20
523.4481
30
0.0
0
VERTEX
8
CORTE EXTERNO
10
0.3105
20
522.3728
30
0.0
0
VERTEX
8
CORTE EXTERNO
10
0.4366
20
521.3184
30
0.0
0
VERTEX
8
CORTE EXTERNO
10
0.5885
20
520.2835
30
0.0
0
VERTEX
8
CORTE EXTERNO
10
0.7679
20
519.2665
30
0.0
0
VERTEX
8
CORTE EXTERNO
10
0.9765
20
518.2659
30
0.0
0
VERTEX
8
CORTE EXTERNO
10
1.2160
20
517.2803
30
0.0
0
VERTEX
8
CORTE EXTERNO
10
1.4881
20
516.3082
30
0.0
0
VERTEX
8
CORTE EXTERNO
10
1.7946
20
515.3480
30
0.0
0
VERTEX
8
CORTE EXTERNO
10
2.1371
20
514.3983
30
0.0
0
VERTEX
8
CORTE EXTERNO
10
2.5174
20
513.4576
30
0.0
0
VERTEX
8
CORTE EXTERNO
10
2.9371
20
512.5244
30
0.0
0
VERTEX
8
CORTE EXTERNO
10
3.3980
20
511.5972
30
0.0
0
VERTEX
8
CORTE EXTERNO
10
3.9018
20
510.6745
30
0.0
0
VERTEX
8
CORTE EXTERNO
10
4.4502
20
509.7547
30
0.0
0
VERTEX
8
CORTE EXTERNO
10
5.0448
20
508.8366
30
0.0
0
VERTEX
8
CORTE EXTERNO
10
5.6875
20
507.9184
30
0.0
0
VERTEX
8
CORTE EXTERNO
10
6.3799
20
506.9988
30
0.0
0
VERTEX
8
CORTE EXTERNO
10
7.1237
20
506.0762
30
0.0
0
VERTEX
8
CORTE EXTERNO
10
7.9206
20
505.1492
30
0.0
0
VERTEX
8
CORTE EXTERNO
10
8.5202
20
504.5421
30
0.0
0
VERTEX
8
CORTE EXTERNO
10
9.2695
20
503.9002
30
0.0
0
VERTEX
8
CORTE EXTERNO
10
10.1604
20
503.2258
30
0.0
0
VERTEX
8
CORTE EXTERNO
10
11.1846
20
502.5213
30
0.0
0
VERTEX
8
CORTE EXTERNO
10
12.3338
20
501.7892
30
0.0
0
VERTEX
8
CORTE EXTERNO
10
13.5998
20
501.0319
30
0.0
0
VERTEX
8
CORTE EXTERNO
10
14.9743
20
500.2518
30
0.0
0
VERTEX
8
CORTE EXTERNO
10
16.4491
20
499.4514
30
0.0
0
VERTEX
8
CORTE EXTERNO
10
18.0159
20
498.6330
30
0.0
0
VERTEX
8
CORTE EXTERNO
10
19.6665
20
497.7991
30
0.0
0
VERTEX
8
CORTE EXTERNO
10
21.3926
20
496.9521
30
0.0
0
VERTEX
8
CORTE EXTERNO
10
23.1860
20
496.0944
30
0.0
0
VERTEX
8
CORTE EXTERNO
10
25.0385
20
495.2284
30
0.0
0
VERTEX
8
CORTE EXTERNO
10
26.9417
20
494.3566
30
0.0
0
VERTEX
8
CORTE EXTERNO
10
28.8874
20
493.4814
30
0.0
0
VERTEX
8
CORTE EXTERNO
10
30.8675
20
492.6052
30
0.0
0
VERTEX
8
CORTE EXTERNO
10
32.8735
20
491.7304
30
0.0
0
VERTEX
8
CORTE EXTERNO
10
34.8974
20
490.8594
30
0.0
0
VERTEX
8
CORTE EXTERNO
10
36.9307
20
489.9947
30
0.0
0
VERTEX
8
CORTE EXTERNO
10
38.9654
20
489.1387
30
0.0
0
VERTEX
8
CORTE EXTERNO
10
40.9931
20
488.2938
30
0.0
0
VERTEX
8
CORTE EXTERNO
10
43.0055
20
487.4624
30
0.0
0
VERTEX
8
CORTE EXTERNO
10
44.9945
20
486.6470
30
0.0
0
VERTEX
8
CORTE EXTERNO
10
46.9518
20
485.8499
30
0.0
0
VERTEX
8
CORTE EXTERNO
10
48.8691
20
485.0736
30
0.0
0
VERTEX
8
CORTE EXTERNO
10
50.7383
20
484.3205
30
0.0
0
VERTEX
8
CORTE EXTERNO
10
52.5509
20
483.5930
30
0.0
0
VERTEX
8
CORTE EXTERNO
10
54.2988
20
482.8936
30
0.0
0
VERTEX
8
CORTE EXTERNO
10
55.9738
20
482.2247
30
0.0
0
VERTEX
8
CORTE EXTERNO
10
57.5675
20
481.5886
30
0.0
0
VERTEX
8
CORTE EXTERNO
10
59.0718
20
480.9879
30
0.0
0
VERTEX
8
CORTE EXTERNO
10
60.4784
20
480.4248
30
0.0
0
VERTEX
8
CORTE EXTERNO
10
61.7790
20
479.9020
30
0.0
0
VERTEX
8
CORTE EXTERNO
10
62.9654
20
479.4217
30
0.0
0
VERTEX
8
CORTE EXTERNO
10
64.0294
20
478.9863
30
0.0
0
VERTEX
8
CORTE EXTERNO
10
64.9626
20
478.5984
30
0.0
0
VERTEX
8
CORTE EXTERNO
10
68.3663
20
477.1704
30
0.0
0
VERTEX
8
CORTE EXTERNO
10
71.7991
20
475.7336
30
0.0
0
VERTEX
8
CORTE EXTERNO
10
75.2599
20
474.2883
30
0.0
0
VERTEX
8
CORTE EXTERNO
10
78.7477
20
472.8348
30
0.0
0
VERTEX
8
CORTE EXTERNO
10
82.2615
20
471.3734
30
0.0
0
VERTEX
8
CORTE EXTERNO
10
85.8003
20
469.9043
30
0.0
0
VERTEX
8
CORTE EXTERNO
10
89.3630
20
468.4278
30
0.0
0
VERTEX
8
CORTE EXTERNO
10
92.9488
20
466.9441
30
0.0
0
VERTEX
8
CORTE EXTERNO
10
96.5564
20
465.4536
30
0.0
0
VERTEX
8
CORTE EXTERNO
10
100.1850
20
463.9565
30
0.0
0
VERTEX
8
CORTE EXTERNO
10
103.8336
20
462.4531
30
0.0
0
VERTEX
8
CORTE EXTERNO
10
107.5010
20
460.9437
30
0.0
0
VERTEX
8
CORTE EXTERNO
10
111.1863
20
459.4285
30
0.0
0
VERTEX
8
CORTE EXTERNO
10
114.8885
20
457.9077
30
0.0
0
VERTEX
8
CORTE EXTERNO
10
118.6066
20
456.3818
30
0.0
0
VERTEX
8
CORTE EXTERNO
10
122.3395
20
454.8508
30
0.0
0
VERTEX
8
CORTE EXTERNO
10
126.0863
20
453.3152
30
0.0
0
VERTEX
8
CORTE EXTERNO
10
129.8459
20
451.7752
30
0.0
0
VERTEX
8
CORTE EXTERNO
10
133.6172
20
450.2310
30
0.0
0
VERTEX
8
CORTE EXTERNO
10
137.3994
20
448.6829
30
0.0
0
VERTEX
8
CORTE EXTERNO
10
141.1914
20
447.1312
30
0.0
0
VERTEX
8
CORTE EXTERNO
10
144.9921
20
445.5762
30
0.0
0
VERTEX
8
CORTE EXTERNO
10
148.8006
20
444.0181
30
0.0
0
VERTEX
8
CORTE EXTERNO
10
152.6158
20
442.4572
30
0.0
0
VERTEX
8
CORTE EXTERNO
10
156.4368
20
440.8938
30
0.0
0
VERTEX
8
CORTE EXTERNO
10
160.2624
20
439.3281
30
0.0
0
VERTEX
8
CORTE EXTERNO
10
164.0918
20
437.7605
30
0.0
0
VERTEX
8
CORTE EXTERNO
10
167.9238
20
436.1911
30
0.0
0
VERTEX
8
CORTE EXTERNO
10
171.7576
20
434.6203
30
0.0
0
VERTEX
8
CORTE EXTERNO
10
175.5919
20
433.0483
30
0.0
0
VERTEX
8
CORTE EXTERNO
10
179.4259
20
431.4754
30
0.0
0
VERTEX
8
CORTE EXTERNO
10
183.2586
20
429.9019
30
0.0
0
VERTEX
8
CORTE EXTERNO
10
187.0888
20
428.3281
30
0.0
0
VERTEX
8
CORTE EXTERNO
10
190.9157
20
426.7541
30
0.0
0
VERTEX
8
CORTE EXTERNO
10
194.7381
20
425.1803
30
0.0
0
VERTEX
8
CORTE EXTERNO
10
198.5552
20
423.6070
30
0.0
0
VERTEX
8
CORTE EXTERNO
10
202.3657
20
422.0344
30
0.0
0
VERTEX
8
CORTE EXTERNO
10
206.1689
20
420.4628
30
0.0
0
VERTEX
8
CORTE EXTERNO
10
209.9635
20
418.8924
30
0.0
0
VERTEX
8
CORTE EXTERNO
10
213.7487
20
417.3236
30
0.0
0
VERTEX
8
CORTE EXTERNO
10
217.5234
20
415.7566
30
0.0
0
VERTEX
8
CORTE EXTERNO
10
221.2865
20
414.1917
30
0.0
0
VERTEX
8
CORTE EXTERNO
10
225.0372
20
412.6291
30
0.0
0
VERTEX
8
CORTE EXTERNO
10
228.7743
20
411.0692
30
0.0
0
VERTEX
8
CORTE EXTERNO
10
232.4968
20
409.5121
30
0.0
0
VERTEX
8
CORTE EXTERNO
10
236.2038
20
407.9582
30
0.0
0
VERTEX
8
CORTE EXTERNO
10
239.8942
20
406.4078
30
0.0
0
VERTEX
8
CORTE EXTERNO
10
243.5670
20
404.8610
30
0.0
0
VERTEX
8
CORTE EXTERNO
10
247.2212
20
403.3182
30
0.0
0
VERTEX
8
CORTE EXTERNO
10
250.8558
20
401.7797
30
0.0
0
VERTEX
8
CORTE EXTERNO
10
254.4698
20
400.2456
30
0.0
0
VERTEX
8
CORTE EXTERNO
10
258.0621
20
398.7164
30
0.0
0
VERTEX
8
CORTE EXTERNO
10
261.6317
20
397.1922
30
0.0
0
VERTEX
8
CORTE EXTERNO
10
265.1777
20
395.6734
30
0.0
0
VERTEX
8
CORTE EXTERNO
10
268.6990
20
394.1601
30
0.0
0
VERTEX
8
CORTE EXTERNO
10
272.1946
20
392.6527
30
0.0
0
VERTEX
8
CORTE EXTERNO
10
275.6634
20
391.1515
30
0.0
0
VERTEX
8
CORTE EXTERNO
10
279.1045
20
389.6566
30
0.0
0
VERTEX
8
CORTE EXTERNO
10
282.5169
20
388.1685
30
0.0
0
VERTEX
8
CORTE EXTERNO
10
285.8996
20
386.6873
30
0.0
0
VERTEX
8
CORTE EXTERNO
10
289.2514
20
385.2133
30
0.0
0
VERTEX
8
CORTE EXTERNO
10
292.5715
20
383.7468
30
0.0
0
VERTEX
8
CORTE EXTERNO
10
295.8587
20
382.2881
30
0.0
0
VERTEX
8
CORTE EXTERNO
10
299.1122
20
380.8374
30
0.0
0
VERTEX
8
CORTE EXTERNO
10
302.5980
20
379.2829
30
0.0
0
VERTEX
8
CORTE EXTERNO
10
306.0966
20
377.7300
30
0.0
0
VERTEX
8
CORTE EXTERNO
10
309.6074
20
376.1787
30
0.0
0
VERTEX
8
CORTE EXTERNO
10
313.1302
20
374.6288
30
0.0
0
VERTEX
8
CORTE EXTERNO
10
316.6645
20
373.0804
30
0.0
0
VERTEX
8
CORTE EXTERNO
10
320.2101
20
371.5335
30
0.0
0
VERTEX
8
CORTE EXTERNO
10
323.7665
20
369.9879
30
0.0
0
VERTEX
8
CORTE EXTERNO
10
327.3334
20
368.4436
30
0.0
0
VERTEX
8
CORTE EXTERNO
10
330.9105
20
366.9006
30
0.0
0
VERTEX
8
CORTE EXTERNO
10
334.4974
20
365.3588
30
0.0
0
VERTEX
8
CORTE EXTERNO
10
338.0937
20
363.8182
30
0.0
0
VERTEX
8
CORTE EXTERNO
10
341.6991
20
362.2787
30
0.0
0
VERTEX
8
CORTE EXTERNO
10
345.3132
20
360.7403
30
0.0
0
VERTEX
8
CORTE EXTERNO
10
348.9357
20
359.2030
30
0.0
0
VERTEX
8
CORTE EXTERNO
10
352.5662
20
357.6666
30
0.0
0
VERTEX
8
CORTE EXTERNO
10
356.2043
20
356.1312
30
0.0
0
VERTEX
8
CORTE EXTERNO
10
359.8498
20
354.5967
30
0.0
0
VERTEX
8
CORTE EXTERNO
10
363.5021
20
353.0631
30
0.0
0
VERTEX
8
CORTE EXTERNO
10
367.1610
20
351.5303
30
0.0
0
VERTEX
8
CORTE EXTERNO
10
370.8262
20
349.9982
30
0.0
0
VERTEX
8
CORTE EXTERNO
10
374.4972
20
348.4668
30
0.0
0
VERTEX
8
CORTE EXTERNO
10
378.1737
20
346.9362
30
0.0
0
VERTEX
8
CORTE EXTERNO
10
381.8554
20
345.4061
30
0.0
0
VERTEX
8
CORTE EXTERNO
10
385.5419
20
343.8766
30
0.0
0
VERTEX
8
CORTE EXTERNO
10
389.2327
20
342.3477
30
0.0
0
VERTEX
8
CORTE EXTERNO
10
392.9277
20
340.8192
30
0.0
0
VERTEX
8
CORTE EXTERNO
10
396.6264
20
339.2912
30
0.0
0
VERTEX
8
CORTE EXTERNO
10
400.3284
20
337.7636
30
0.0
0
VERTEX
8
CORTE EXTERNO
10
404.0335
20
336.2363
30
0.0
0
VERTEX
8
CORTE EXTERNO
10
407.7412
20
334.7093
30
0.0
0
VERTEX
8
CORTE EXTERNO
10
411.4511
20
333.1826
30
0.0
0
VERTEX
8
CORTE EXTERNO
10
415.1630
20
331.6561
30
0.0
0
VERTEX
8
CORTE EXTERNO
10
418.8765
20
330.1298
30
0.0
0
VERTEX
8
CORTE EXTERNO
10
422.5912
20
328.6035
30
0.0
0
VERTEX
8
CORTE EXTERNO
10
426.3068
20
327.0774
30
0.0
0
VERTEX
8
CORTE EXTERNO
10
430.0228
20
325.5512
30
0.0
0
VERTEX
8
CORTE EXTERNO
10
433.7390
20
324.0251
30
0.0
0
VERTEX
8
CORTE EXTERNO
10
437.4550
20
322.4988
30
0.0
0
VERTEX
8
CORTE EXTERNO
10
441.1704
20
320.9725
30
0.0
0
VERTEX
8
CORTE EXTERNO
10
444.8849
20
319.4460
30
0.0
0
VERTEX
8
CORTE EXTERNO
10
448.5981
20
317.9193
30
0.0
0
VERTEX
8
CORTE EXTERNO
10
452.3097
20
316.3923
30
0.0
0
VERTEX
8
CORTE EXTERNO
10
456.0192
20
314.8650
30
0.0
0
VERTEX
8
CORTE EXTERNO
10
459.7264
20
313.3374
30
0.0
0
VERTEX
8
CORTE EXTERNO
10
463.4309
20
311.8094
30
0.0
0
VERTEX
8
CORTE EXTERNO
10
467.1323
20
310.2809
30
0.0
0
VERTEX
8
CORTE EXTERNO
10
470.8303
20
308.7520
30
0.0
0
VERTEX
8
CORTE EXTERNO
10
474.5245
20
307.2225
30
0.0
0
VERTEX
8
CORTE EXTERNO
10
478.2146
20
305.6925
30
0.0
0
VERTEX
8
CORTE EXTERNO
10
481.9001
20
304.1618
30
0.0
0
VERTEX
8
CORTE EXTERNO
10
485.5808
20
302.6305
30
0.0
0
VERTEX
8
CORTE EXTERNO
10
489.2563
20
301.0984
30
0.0
0
VERTEX
8
CORTE EXTERNO
10
492.9262
20
299.5656
30
0.0
0
VERTEX
8
CORTE EXTERNO
10
496.5901
20
298.0320
30
0.0
0
VERTEX
8
CORTE EXTERNO
10
500.2478
20
296.4975
30
0.0
0
VERTEX
8
CORTE EXTERNO
10
503.8989
20
294.9621
30
0.0
0
VERTEX
8
CORTE EXTERNO
10
507.5429
20
293.4258
30
0.0
0
VERTEX
8
CORTE EXTERNO
10
511.1795
20
291.8884
30
0.0
0
VERTEX
8
CORTE EXTERNO
10
514.8085
20
290.3501
30
0.0
0
VERTEX
8
CORTE EXTERNO
10
518.4294
20
288.8106
30
0.0
0
VERTEX
8
CORTE EXTERNO
10
522.0418
20
287.2700
30
0.0
0
VERTEX
8
CORTE EXTERNO
10
525.6455
20
285.7282
30
0.0
0
VERTEX
8
CORTE EXTERNO
10
529.2400
20
284.1852
30
0.0
0
VERTEX
8
CORTE EXTERNO
10
532.8250
20
282.6410
30
0.0
0
VERTEX
8
CORTE EXTERNO
10
537.6695
20
280.5497
30
0.0
0
VERTEX
8
CORTE EXTERNO
10
542.3216
20
278.5417
30
0.0
0
VERTEX
8
CORTE EXTERNO
10
546.7880
20
276.6164
30
0.0
0
VERTEX
8
CORTE EXTERNO
10
551.0753
20
274.7735
30
0.0
0
VERTEX
8
CORTE EXTERNO
10
555.1903
20
273.0124
30
0.0
0
VERTEX
8
CORTE EXTERNO
10
559.1396
20
271.3329
30
0.0
0
VERTEX
8
CORTE EXTERNO
10
562.9301
20
269.7344
30
0.0
0
VERTEX
8
CORTE EXTERNO
10
566.5684
20
268.2165
30
0.0
0
VERTEX
8
CORTE EXTERNO
10
570.0611
20
266.7789
30
0.0
0
VERTEX
8
CORTE EXTERNO
10
573.4151
20
265.4211
30
0.0
0
VERTEX
8
CORTE EXTERNO
10
576.6371
20
264.1426
30
0.0
0
VERTEX
8
CORTE EXTERNO
10
579.7336
20
262.9430
30
0.0
0
VERTEX
8
CORTE EXTERNO
10
582.7115
20
261.8219
30
0.0
0
VERTEX
8
CORTE EXTERNO
10
585.5775
20
260.7790
30
0.0
0
VERTEX
8
CORTE EXTERNO
10
588.3382
20
259.8137
30
0.0
0
VERTEX
8
CORTE EXTERNO
10
591.0004
20
258.9256
30
0.0
0
VERTEX
8
CORTE EXTERNO
10
593.5708
20
258.1143
30
0.0
0
VERTEX
8
CORTE EXTERNO
10
596.0561
20
257.3794
30
0.0
0
VERTEX
8
CORTE EXTERNO
10
598.4630
20
256.7205
30
0.0
0
VERTEX
8
CORTE EXTERNO
10
600.7982
20
256.1371
30
0.0
0
VERTEX
8
CORTE EXTERNO
10
603.0684
20
255.6288
30
0.0
0
VERTEX
8
CORTE EXTERNO
10
605.2804
20
255.1951
30
0.0
0
VERTEX
8
CORTE EXTERNO
10
607.4408
20
254.8358
30
0.0
0
VERTEX
8
CORTE EXTERNO
10
609.5563
20
254.5502
30
0.0
0
VERTEX
8
CORTE EXTERNO
10
611.6337
20
254.3381
30
0.0
0
VERTEX
8
CORTE EXTERNO
10
613.6797
20
254.1989
30
0.0
0
VERTEX
8
CORTE EXTERNO
10
615.7009
20
254.1323
30
0.0
0
VERTEX
8
CORTE EXTERNO
10
617.7041
20
254.1378
30
0.0
0
VERTEX
8
CORTE EXTERNO
10
619.6961
20
254.2150
30
0.0
0
VERTEX
8
CORTE EXTERNO
10
621.6834
20
254.3635
30
0.0
0
VERTEX
8
CORTE EXTERNO
10
623.6728
20
254.5828
30
0.0
0
VERTEX
8
CORTE EXTERNO
10
625.6711
20
254.8725
30
0.0
0
VERTEX
8
CORTE EXTERNO
10
627.6849
20
255.2323
30
0.0
0
VERTEX
8
CORTE EXTERNO
10
629.7209
20
255.6616
30
0.0
0
VERTEX
8
CORTE EXTERNO
10
631.7859
20
256.1601
30
0.0
0
VERTEX
8
CORTE EXTERNO
10
633.8865
20
256.7273
30
0.0
0
VERTEX
8
CORTE EXTERNO
10
636.0296
20
257.3628
30
0.0
0
VERTEX
8
CORTE EXTERNO
10
638.2216
20
258.0661
30
0.0
0
VERTEX
8
CORTE EXTERNO
10
640.4695
20
258.8369
30
0.0
0
VERTEX
8
CORTE EXTERNO
10
642.7799
20
259.6747
30
0.0
0
VERTEX
8
CORTE EXTERNO
10
645.1595
20
260.5791
30
0.0
0
VERTEX
8
CORTE EXTERNO
10
647.6150
20
261.5497
30
0.0
0
VERTEX
8
CORTE EXTERNO
10
650.1531
20
262.5860
30
0.0
0
VERTEX
8
CORTE EXTERNO
10
652.7805
20
263.6877
30
0.0
0
VERTEX
8
CORTE EXTERNO
10
655.5040
20
264.8542
30
0.0
0
VERTEX
8
CORTE EXTERNO
10
658.3303
20
266.0852
30
0.0
0
VERTEX
8
CORTE EXTERNO
10
661.2660
20
267.3802
30
0.0
0
VERTEX
8
CORTE EXTERNO
10
664.3178
20
268.7389
30
0.0
0
VERTEX
8
CORTE EXTERNO
10
667.4926
20
270.1607
30
0.0
0
VERTEX
8
CORTE EXTERNO
10
670.7969
20
271.6453
30
0.0
0
VERTEX
8
CORTE EXTERNO
10
674.2376
20
273.1923
30
0.0
0
VERTEX
8
CORTE EXTERNO
10
677.8212
20
274.8011
30
0.0
0
VERTEX
8
CORTE EXTERNO
10
681.5546
20
276.4714
30
0.0
0
VERTEX
8
CORTE EXTERNO
10
685.4443
20
278.2028
30
0.0
0
VERTEX
8
CORTE EXTERNO
10
689.4973
20
279.9949
30
0.0
0
VERTEX
8
CORTE EXTERNO
10
693.7200
20
281.8471
30
0.0
0
VERTEX
8
CORTE EXTERNO
10
698.1193
20
283.7592
30
0.0
0
VERTEX
8
CORTE EXTERNO
10
702.7019
20
285.7305
30
0.0
0
VERTEX
8
CORTE EXTERNO
10
707.4745
20
287.7609
30
0.0
0
VERTEX
8
CORTE EXTERNO
10
712.4437
20
289.8497
30
0.0
0
VERTEX
8
CORTE EXTERNO
10
717.6163
20
291.9966
30
0.0
0
VERTEX
8
CORTE EXTERNO
10
722.9990
20
294.2012
30
0.0
0
VERTEX
8
CORTE EXTERNO
10
728.5985
20
296.4630
30
0.0
0
VERTEX
8
CORTE EXTERNO
10
734.4216
20
298.7816
30
0.0
0
VERTEX
8
CORTE EXTERNO
10
930.1875
20
380.8374
30
0.0
0
VERTEX
8
CORTE EXTERNO
10
933.4357
20
382.2857
30
0.0
0
VERTEX
8
CORTE EXTERNO
10
936.7179
20
383.7422
30
0.0
0
VERTEX
8
CORTE EXTERNO
10
940.0331
20
385.2066
30
0.0
0
VERTEX
8
CORTE EXTERNO
10
943.3803
20
386.6785
30
0.0
0
VERTEX
8
CORTE EXTERNO
10
946.7584
20
388.1578
30
0.0
0
VERTEX
8
CORTE EXTERNO
10
950.1666
20
389.6441
30
0.0
0
VERTEX
8
CORTE EXTERNO
10
953.6036
20
391.1371
30
0.0
0
VERTEX
8
CORTE EXTERNO
10
957.0686
20
392.6367
30
0.0
0
VERTEX
8
CORTE EXTERNO
10
960.5605
20
394.1425
30
0.0
0
VERTEX
8
CORTE EXTERNO
10
964.0783
20
395.6543
30
0.0
0
VERTEX
8
CORTE EXTERNO
10
967.6210
20
397.1717
30
0.0
0
VERTEX
8
CORTE EXTERNO
10
971.1876
20
398.6946
30
0.0
0
VERTEX
8
CORTE EXTERNO
10
974.7770
20
400.2226
30
0.0
0
VERTEX
8
CORTE EXTERNO
10
978.3882
20
401.7554
30
0.0
0
VERTEX
8
CORTE EXTERNO
10
982.0203
20
403.2929
30
0.0
0
VERTEX
8
CORTE EXTERNO
10
985.6721
20
404.8347
30
0.0
0
VERTEX
8
CORTE EXTERNO
10
989.3427
20
406.3805
30
0.0
0
VERTEX
8
CORTE EXTERNO
10
993.0311
20
407.9301
30
0.0
0
VERTEX
8
CORTE EXTERNO
10
996.7363
20
409.4833
30
0.0
0
VERTEX
8
CORTE EXTERNO
10
1000.4572
20
411.0397
30
0.0
0
VERTEX
8
CORTE EXTERNO
10
1004.1928
20
412.5990
30
0.0
0
VERTEX
8
CORTE EXTERNO
10
1007.9421
20
414.1610
30
0.0
0
VERTEX
8
CORTE EXTERNO
10
1011.7041
20
415.7255
30
0.0
0
VERTEX
8
CORTE EXTERNO
10
1015.4778
20
417.2921
30
0.0
0
VERTEX
8
CORTE EXTERNO
10
1019.2621
20
418.8606
30
0.0
0
VERTEX
8
CORTE EXTERNO
10
1023.0561
20
420.4307
30
0.0
0
VERTEX
8
CORTE EXTERNO
10
1026.8587
20
422.0021
30
0.0
0
VERTEX
8
CORTE EXTERNO
10
1030.6690
20
423.5746
30
0.0
0
VERTEX
8
CORTE EXTERNO
10
1034.4858
20
425.1479
30
0.0
0
VERTEX
8
CORTE EXTERNO
10
1038.3082
20
426.7217
30
0.0
0
VERTEX
8
CORTE EXTERNO
10
1042.1352
20
428.2958
30
0.0
0
VERTEX
8
CORTE EXTERNO
10
1045.9657
20
429.8698
30
0.0
0
VERTEX
8
CORTE EXTERNO
10
1049.7987
20
431.4435
30
0.0
0
VERTEX
8
CORTE EXTERNO
10
1053.6333
20
433.0167
30
0.0
0
VERTEX
8
CORTE EXTERNO
10
1057.4683
20
434.5890
30
0.0
0
VERTEX
8
CORTE EXTERNO
10
1061.3029
20
436.1602
30
0.0
0
VERTEX
8
CORTE EXTERNO
10
1065.1359
20
437.7300
30
0.0
0
VERTEX
8
CORTE EXTERNO
10
1068.9664
20
439.2982
30
0.0
0
VERTEX
8
CORTE EXTERNO
10
1072.7933
20
440.8644
30
0.0
0
VERTEX
8
CORTE EXTERNO
10
1076.6156
20
442.4285
30
0.0
0
VERTEX
8
CORTE EXTERNO
10
1080.4323
20
443.9900
30
0.0
0
VERTEX
8
CORTE EXTERNO
10
1084.2425
20
445.5489
30
0.0
0
VERTEX
8
CORTE EXTERNO
10
1088.0450
20
447.1047
30
0.0
0
VERTEX
8
CORTE EXTERNO
10
1091.8388
20
448.6572
30
0.0
0
VERTEX
8
CORTE EXTERNO
10
1095.6230
20
450.2062
30
0.0
0
VERTEX
8
CORTE EXTERNO
10
1099.3966
20
451.7513
30
0.0
0
VERTEX
8
CORTE EXTERNO
10
1103.1584
20
453.2923
30
0.0
0
VERTEX
8
CORTE EXTERNO
10
1106.9075
20
454.8290
30
0.0
0
VERTEX
8
CORTE EXTERNO
10
1110.6429
20
456.3610
30
0.0
0
VERTEX
8
CORTE EXTERNO
10
1114.3636
20
457.8880
30
0.0
0
VERTEX
8
CORTE EXTERNO
10
1118.0686
20
459.4099
30
0.0
0
VERTEX
8
CORTE EXTERNO
10
1121.7567
20
460.9264
30
0.0
0
VERTEX
8
CORTE EXTERNO
10
1125.4271
20
462.4371
30
0.0
0
VERTEX
8
CORTE EXTERNO
10
1129.0787
20
463.9418
30
0.0
0
VERTEX
8
CORTE EXTERNO
10
1132.7104
20
465.4402
30
0.0
0
VERTEX
8
CORTE EXTERNO
10
1136.3214
20
466.9320
30
0.0
0
VERTEX
8
CORTE EXTERNO
10
1139.9105
20
468.4171
30
0.0
0
VERTEX
8
CORTE EXTERNO
10
1143.4767
20
469.8950
30
0.0
0
VERTEX
8
CORTE EXTERNO
10
1147.0190
20
471.3656
30
0.0
0
VERTEX
8
CORTE EXTERNO
10
1150.5365
20
472.8285
30
0.0
0
VERTEX
8
CORTE EXTERNO
10
1154.0280
20
474.2835
30
0.0
0
VERTEX
8
CORTE EXTERNO
10
1157.4926
20
475.7304
30
0.0
0
VERTEX
8
CORTE EXTERNO
10
1160.9293
20
477.1688
30
0.0
0
VERTEX
8
CORTE EXTERNO
10
1164.3370
20
478.5984
30
0.0
0
VERTEX
8
CORTE EXTERNO
10
1167.0449
20
479.7247
30
0.0
0
VERTEX
8
CORTE EXTERNO
10
1169.7019
20
480.8094
30
0.0
0
VERTEX
8
CORTE EXTERNO
10
1172.3075
20
481.8553
30
0.0
0
VERTEX
8
CORTE EXTERNO
10
1174.8612
20
482.8655
30
0.0
0
VERTEX
8
CORTE EXTERNO
10
1177.3626
20
483.8427
30
0.0
0
VERTEX
8
CORTE EXTERNO
10
1179.8113
20
484.7899
30
0.0
0
VERTEX
8
CORTE EXTERNO
10
1182.2068
20
485.7099
30
0.0
0
VERTEX
8
CORTE EXTERNO
10
1184.5486
20
486.6057
30
0.0
0
VERTEX
8
CORTE EXTERNO
10
1186.8363
20
487.4802
30
0.0
0
VERTEX
8
CORTE EXTERNO
10
1189.0694
20
488.3362
30
0.0
0
VERTEX
8
CORTE EXTERNO
10
1191.2475
20
489.1767
30
0.0
0
VERTEX
8
CORTE EXTERNO
10
1193.3701
20
490.0046
30
0.0
0
VERTEX
8
CORTE EXTERNO
10
1195.4367
20
490.8227
30
0.0
0
VERTEX
8
CORTE EXTERNO
10
1197.4469
20
491.6340
30
0.0
0
VERTEX
8
CORTE EXTERNO
10
1199.4003
20
492.4413
30
0.0
0
VERTEX
8
CORTE EXTERNO
10
1201.2963
20
493.2475
30
0.0
0
VERTEX
8
CORTE EXTERNO
10
1203.1346
20
494.0556
30
0.0
0
VERTEX
8
CORTE EXTERNO
10
1204.9147
20
494.8684
30
0.0
0
VERTEX
8
CORTE EXTERNO
10
1206.6361
20
495.6889
30
0.0
0
VERTEX
8
CORTE EXTERNO
10
1208.2983
20
496.5199
30
0.0
0
VERTEX
8
CORTE EXTERNO
10
1209.9009
20
497.3643
30
0.0
0
VERTEX
8
CORTE EXTERNO
10
1211.4435
20
498.2250
30
0.0
0
VERTEX
8
CORTE EXTERNO
10
1212.9255
20
499.1050
30
0.0
0
VERTEX
8
CORTE EXTERNO
10
1214.3466
20
500.0071
30
0.0
0
VERTEX
8
CORTE EXTERNO
10
1215.7063
20
500.9341
30
0.0
0
VERTEX
8
CORTE EXTERNO
10
1217.0041
20
501.8892
30
0.0
0
VERTEX
8
CORTE EXTERNO
10
1218.2396
20
502.8750
30
0.0
0
VERTEX
8
CORTE EXTERNO
10
1219.4123
20
503.8945
30
0.0
0
VERTEX
8
CORTE EXTERNO
10
1220.5217
20
504.9506
30
0.0
0
VERTEX
8
CORTE EXTERNO
10
1221.5674
20
506.0462
30
0.0
0
VERTEX
8
CORTE EXTERNO
10
1222.5490
20
507.1843
30
0.0
0
VERTEX
8
CORTE EXTERNO
10
1223.4659
20
508.3676
30
0.0
0
VERTEX
8
CORTE EXTERNO
10
1224.3178
20
509.5991
30
0.0
0
VERTEX
8
CORTE EXTERNO
10
1225.1041
20
510.8817
30
0.0
0
VERTEX
8
CORTE EXTERNO
10
1225.8245
20
512.2183
30
0.0
0
VERTEX
8
CORTE EXTERNO
10
1226.4784
20
513.6118
30
0.0
0
VERTEX
8
CORTE EXTERNO
10
1227.0654
20
515.0650
30
0.0
0
VERTEX
8
CORTE EXTERNO
10
1227.5851
20
516.5809
30
0.0
0
VERTEX
8
CORTE EXTERNO
10
1228.0370
20
518.1624
30
0.0
0
VERTEX
8
CORTE EXTERNO
10
1228.4206
20
519.8124
30
0.0
0
VERTEX
8
CORTE EXTERNO
10
1228.7355
20
521.5337
30
0.0
0
VERTEX
8
CORTE EXTERNO
10
1228.9811
20
523.3293
30
0.0
0
VERTEX
8
CORTE EXTERNO
10
1229.1572
20
525.2021
30
0.0
0
VERTEX
8
CORTE EXTERNO
10
1229.2632
20
527.1549
30
0.0
0
VERTEX
8
CORTE EXTERNO
10
1229.2986
20
529.1907
30
0.0
0
VERTEX
8
CORTE EXTERNO
10
1229.2417
20
530.8727
30
0.0
0
VERTEX
8
CORTE EXTERNO
10
1229.0730
20
532.5045
30
0.0
0
VERTEX
8
CORTE EXTERNO
10
1228.7958
20
534.0875
30
0.0
0
VERTEX
8
CORTE EXTERNO
10
1228.4134
20
535.6231
30
0.0
0
VERTEX
8
CORTE EXTERNO
10
1227.9289
20
537.1127
30
0.0
0
VERTEX
8
CORTE EXTERNO
10
1227.3457
20
538.5578
30
0.0
0
VERTEX
8
CORTE EXTERNO
10
1226.6668
20
539.9598
30
0.0
0
VERTEX
8
CORTE EXTERNO
10
1225.8957
20
541.3201
30
0.0
0
VERTEX
8
CORTE EXTERNO
10
1225.0355
20
542.6401
30
0.0
0
VERTEX
8
CORTE EXTERNO
10
1224.0895
20
543.9212
30
0.0
0
VERTEX
8
CORTE EXTERNO
10
1223.0608
20
545.1649
30
0.0
0
VERTEX
8
CORTE EXTERNO
10
1221.9528
20
546.3725
30
0.0
0
VERTEX
8
CORTE EXTERNO
10
1220.7686
20
547.5456
30
0.0
0
VERTEX
8
CORTE EXTERNO
10
1219.5116
20
548.6854
30
0.0
0
VERTEX
8
CORTE EXTERNO
10
1218.1849
20
549.7935
30
0.0
0
VERTEX
8
CORTE EXTERNO
10
1216.7917
20
550.8712
30
0.0
0
VERTEX
8
CORTE EXTERNO
10
1215.3354
20
551.9200
30
0.0
0
VERTEX
8
CORTE EXTERNO
10
1213.8191
20
552.9412
30
0.0
0
VERTEX
8
CORTE EXTERNO
10
1212.2461
20
553.9364
30
0.0
0
VERTEX
8
CORTE EXTERNO
10
1210.6196
20
554.9069
30
0.0
0
VERTEX
8
CORTE EXTERNO
10
1208.9429
20
555.8541
30
0.0
0
VERTEX
8
CORTE EXTERNO
10
1207.2191
20
556.7795
30
0.0
0
VERTEX
8
CORTE EXTERNO
10
1205.4516
20
557.6845
30
0.0
0
VERTEX
8
CORTE EXTERNO
10
1203.6436
20
558.5704
30
0.0
0
VERTEX
8
CORTE EXTERNO
10
1201.7982
20
559.4388
30
0.0
0
VERTEX
8
CORTE EXTERNO
10
1199.9188
20
560.2910
30
0.0
0
VERTEX
8
CORTE EXTERNO
10
1198.0086
20
561.1285
30
0.0
0
VERTEX
8
CORTE EXTERNO
10
1196.0707
20
561.9526
30
0.0
0
VERTEX
8
CORTE EXTERNO
10
1194.1086
20
562.7648
30
0.0
0
VERTEX
8
CORTE EXTERNO
10
1192.1253
20
563.5665
30
0.0
0
VERTEX
8
CORTE EXTERNO
10
1190.1241
20
564.3592
30
0.0
0
VERTEX
8
CORTE EXTERNO
10
1188.1082
20
565.1442
30
0.0
0
VERTEX
8
CORTE EXTERNO
10
1186.0810
20
565.9230
30
0.0
0
VERTEX
8
CORTE EXTERNO
10
1184.0456
20
566.6969
30
0.0
0
VERTEX
8
CORTE EXTERNO
10
1182.0052
20
567.4675
30
0.0
0
VERTEX
8
CORTE EXTERNO
10
1179.9632
20
568.2361
30
0.0
0
VERTEX
8
CORTE EXTERNO
10
1177.9227
20
569.0041
30
0.0
0
VERTEX
8
CORTE EXTERNO
10
1175.8869
20
569.7730
30
0.0
0
VERTEX
8
CORTE EXTERNO
10
1173.8592
20
570.5441
30
0.0
0
VERTEX
8
CORTE EXTERNO
10
1171.8427
20
571.3190
30
0.0
0
VERTEX
8
CORTE EXTERNO
10
1169.8407
20
572.0990
30
0.0
0
VERTEX
8
CORTE EXTERNO
10
1167.8564
20
572.8855
30
0.0
0
VERTEX
8
CORTE EXTERNO
10
1165.8931
20
573.6800
30
0.0
0
VERTEX
8
CORTE EXTERNO
10
1163.9539
20
574.4838
30
0.0
0
VERTEX
8
CORTE EXTERNO
10
1008.0251
20
639.8278
30
0.0
0
VERTEX
8
CORTE EXTERNO
10
1006.1440
20
640.5733
30
0.0
0
VERTEX
8
CORTE EXTERNO
10
1004.2684
20
641.3227
30
0.0
0
VERTEX
8
CORTE EXTERNO
10
1002.3981
20
642.0758
30
0.0
0
VERTEX
8
CORTE EXTERNO
10
1000.5327
20
642.8325
30
0.0
0
VERTEX
8
CORTE EXTERNO
10
998.6719
20
643.5924
30
0.0
0
VERTEX
8
CORTE EXTERNO
10
996.8153
20
644.3555
30
0.0
0
VERTEX
8
CORTE EXTERNO
10
994.9627
20
645.1216
30
0.0
0
VERTEX
8
CORTE EXTERNO
10
993.1138
20
645.8906
30
0.0
0
VERTEX
8
CORTE EXTERNO
10
991.2681
20
646.6622
30
0.0
0
VERTEX
8
CORTE EXTERNO
10
989.4253
20
647.4362
30
0.0
0
VERTEX
8
CORTE EXTERNO
10
987.5852
20
648.2126
30
0.0
0
VERTEX
8
CORTE EXTERNO
10
985.7473
20
648.9911
30
0.0
0
VERTEX
8
CORTE EXTERNO
10
983.9115
20
649.7716
30
0.0
0
VERTEX
8
CORTE EXTERNO
10
982.0773
20
650.5539
30
0.0
0
VERTEX
8
CORTE EXTERNO
10
980.2443
20
651.3378
30
0.0
0
VERTEX
8
CORTE EXTERNO
10
978.4124
20
652.1231
30
0.0
0
VERTEX
8
CORTE EXTERNO
10
976.5811
20
652.9097
30
0.0
0
VERTEX
8
CORTE EXTERNO
10
974.7501
20
653.6975
30
0.0
0
VERTEX
8
CORTE EXTERNO
10
972.9192
20
654.4861
30
0.0
0
VERTEX
8
CORTE EXTERNO
10
971.0879
20
655.2756
30
0.0
0
VERTEX
8
CORTE EXTERNO
10
969.2559
20
656.0656
30
0.0
0
VERTEX
8
CORTE EXTERNO
10
967.4229
20
656.8560
30
0.0
0
VERTEX
8
CORTE EXTERNO
10
965.5886
20
657.6467
30
0.0
0
VERTEX
8
CORTE EXTERNO
10
963.7527
20
658.4375
30
0.0
0
VERTEX
8
CORTE EXTERNO
10
961.9148
20
659.2282
30
0.0
0
VERTEX
8
CORTE EXTERNO
10
960.0745
20
660.0186
30
0.0
0
VERTEX
8
CORTE EXTERNO
10
958.2317
20
660.8085
30
0.0
0
VERTEX
8
CORTE EXTERNO
10
956.3858
20
661.5979
30
0.0
0
VERTEX
8
CORTE EXTERNO
10
954.5367
20
662.3865
30
0.0
0
VERTEX
8
CORTE EXTERNO
10
952.6839
20
663.1741
30
0.0
0
VERTEX
8
CORTE EXTERNO
10
950.8272
20
663.9606
30
0.0
0
VERTEX
8
CORTE EXTERNO
10
948.9662
20
664.7458
30
0.0
0
VERTEX
8
CORTE EXTERNO
10
947.1006
20
665.5295
30
0.0
0
VERTEX
8
CORTE EXTERNO
10
945.2301
20
666.3116
30
0.0
0
VERTEX
8
CORTE EXTERNO
10
943.3543
20
667.0919
30
0.0
0
VERTEX
8
CORTE EXTERNO
10
941.4729
20
667.8702
30
0.0
0
VERTEX
8
CORTE EXTERNO
10
939.5855
20
668.6463
30
0.0
0
VERTEX
8
CORTE EXTERNO
10
937.6920
20
669.4201
30
0.0
0
VERTEX
8
CORTE EXTERNO
10
935.7918
20
670.1914
30
0.0
0
VERTEX
8
CORTE EXTERNO
10
933.8847
20
670.9601
30
0.0
0
VERTEX
8
CORTE EXTERNO
10
931.9704
20
671.7259
30
0.0
0
VERTEX
8
CORTE EXTERNO
10
930.0485
20
672.4886
30
0.0
0
VERTEX
8
CORTE EXTERNO
10
925.8815
20
674.1401
30
0.0
0
VERTEX
8
CORTE EXTERNO
10
921.7081
20
675.8027
30
0.0
0
VERTEX
8
CORTE EXTERNO
10
917.5282
20
677.4759
30
0.0
0
VERTEX
8
CORTE EXTERNO
10
913.3422
20
679.1596
30
0.0
0
VERTEX
8
CORTE EXTERNO
10
909.1501
20
680.8533
30
0.0
0
VERTEX
8
CORTE EXTERNO
10
904.9523
20
682.5568
30
0.0
0
VERTEX
8
CORTE EXTERNO
10
900.7488
20
684.2695
30
0.0
0
VERTEX
8
CORTE EXTERNO
10
896.5399
20
685.9914
30
0.0
0
VERTEX
8
CORTE EXTERNO
10
892.3257
20
687.7219
30
0.0
0
VERTEX
8
CORTE EXTERNO
10
888.1064
20
689.4607
30
0.0
0
VERTEX
8
CORTE EXTERNO
10
883.8823
20
691.2075
30
0.0
0
VERTEX
8
CORTE EXTERNO
10
879.6534
20
692.9620
30
0.0
0
VERTEX
8
CORTE EXTERNO
10
875.4200
20
694.7238
30
0.0
0
VERTEX
8
CORTE EXTERNO
10
871.1823
20
696.4926
30
0.0
0
VERTEX
8
CORTE EXTERNO
10
866.9404
20
698.2680
30
0.0
0
VERTEX
8
CORTE EXTERNO
10
862.6946
20
700.0497
30
0.0
0
VERTEX
8
CORTE EXTERNO
10
858.4450
20
701.8374
30
0.0
0
VERTEX
8
CORTE EXTERNO
10
854.1917
20
703.6307
30
0.0
0
VERTEX
8
CORTE EXTERNO
10
849.9351
20
705.4292
30
0.0
0
VERTEX
8
CORTE EXTERNO
10
845.6752
20
707.2327
30
0.0
0
VERTEX
8
CORTE EXTERNO
10
841.4122
20
709.0407
30
0.0
0
VERTEX
8
CORTE EXTERNO
10
837.1464
20
710.8530
30
0.0
0
VERTEX
8
CORTE EXTERNO
10
832.8779
20
712.6692
30
0.0
0
VERTEX
8
CORTE EXTERNO
10
828.6070
20
714.4889
30
0.0
0
VERTEX
8
CORTE EXTERNO
10
824.3337
20
716.3119
30
0.0
0
VERTEX
8
CORTE EXTERNO
10
820.0583
20
718.1377
30
0.0
0
VERTEX
8
CORTE EXTERNO
10
815.7809
20
719.9661
30
0.0
0
VERTEX
8
CORTE EXTERNO
10
811.5018
20
721.7967
30
0.0
0
VERTEX
8
CORTE EXTERNO
10
807.2211
20
723.6291
30
0.0
0
VERTEX
8
CORTE EXTERNO
10
802.9390
20
725.4630
30
0.0
0
VERTEX
8
CORTE EXTERNO
10
798.6557
20
727.2981
30
0.0
0
VERTEX
8
CORTE EXTERNO
10
794.3714
20
729.1340
30
0.0
0
VERTEX
8
CORTE EXTERNO
10
790.0862
20
730.9704
30
0.0
0
VERTEX
8
CORTE EXTERNO
10
785.8004
20
732.8070
30
0.0
0
VERTEX
8
CORTE EXTERNO
10
781.5141
20
734.6433
30
0.0
0
VERTEX
8
CORTE EXTERNO
10
777.2276
20
736.4791
30
0.0
0
VERTEX
8
CORTE EXTERNO
10
772.9409
20
738.3141
30
0.0
0
VERTEX
8
CORTE EXTERNO
10
768.6543
20
740.1478
30
0.0
0
VERTEX
8
CORTE EXTERNO
10
764.3680
20
741.9799
30
0.0
0
VERTEX
8
CORTE EXTERNO
10
760.0822
20
743.8102
30
0.0
0
VERTEX
8
CORTE EXTERNO
10
755.7970
20
745.6382
30
0.0
0
VERTEX
8
CORTE EXTERNO
10
751.5126
20
747.4636
30
0.0
0
VERTEX
8
CORTE EXTERNO
10
747.2292
20
749.2860
30
0.0
0
VERTEX
8
CORTE EXTERNO
10
742.9470
20
751.1052
30
0.0
0
VERTEX
8
CORTE EXTERNO
10
738.6662
20
752.9208
30
0.0
0
VERTEX
8
CORTE EXTERNO
10
734.3869
20
754.7324
30
0.0
0
VERTEX
8
CORTE EXTERNO
10
730.1094
20
756.5398
30
0.0
0
VERTEX
8
CORTE EXTERNO
10
725.8338
20
758.3425
30
0.0
0
VERTEX
8
CORTE EXTERNO
10
721.5603
20
760.1402
30
0.0
0
VERTEX
8
CORTE EXTERNO
10
717.2891
20
761.9326
30
0.0
0
VERTEX
8
CORTE EXTERNO
10
713.0204
20
763.7193
30
0.0
0
VERTEX
8
CORTE EXTERNO
10
708.7543
20
765.5000
30
0.0
0
VERTEX
8
CORTE EXTERNO
10
704.4911
20
767.2744
30
0.0
0
VERTEX
8
CORTE EXTERNO
10
700.2310
20
769.0421
30
0.0
0
VERTEX
8
CORTE EXTERNO
10
695.9740
20
770.8028
30
0.0
0
VERTEX
8
CORTE EXTERNO
10
691.7205
20
772.5560
30
0.0
0
VERTEX
8
CORTE EXTERNO
10
687.4705
20
774.3016
30
0.0
0
VERTEX
8
CORTE EXTERNO
10
683.2243
20
776.0391
30
0.0
0
VERTEX
8
CORTE EXTERNO
10
678.9821
20
777.7683
30
0.0
0
VERTEX
8
CORTE EXTERNO
10
674.7440
20
779.4887
30
0.0
0
VERTEX
8
CORTE EXTERNO
10
670.5102
20
781.2000
30
0.0
0
VERTEX
8
CORTE EXTERNO
10
666.2810
20
782.9019
30
0.0
0
VERTEX
8
CORTE EXTERNO
10
662.0564
20
784.5940
30
0.0
0
VERTEX
8
CORTE EXTERNO
10
657.8367
20
786.2760
30
0.0
0
VERTEX
8
CORTE EXTERNO
10
654.9335
20
787.4339
30
0.0
0
VERTEX
8
CORTE EXTERNO
10
652.1695
20
788.5417
30
0.0
0
VERTEX
8
CORTE EXTERNO
10
649.5383
20
789.5992
30
0.0
0
VERTEX
8
CORTE EXTERNO
10
647.0333
20
790.6063
30
0.0
0
VERTEX
8
CORTE EXTERNO
10
644.6482
20
791.5628
30
0.0
0
VERTEX
8
CORTE EXTERNO
10
642.3763
20
792.4688
30
0.0
0
VERTEX
8
CORTE EXTERNO
10
640.2114
20
793.3239
30
0.0
0
VERTEX
8
CORTE EXTERNO
10
638.1468
20
794.1282
30
0.0
0
VERTEX
8
CORTE EXTERNO
10
636.1762
20
794.8814
30
0.0
0
VERTEX
8
CORTE EXTERNO
10
634.2931
20
795.5835
30
0.0
0
VERTEX
8
CORTE EXTERNO
10
632.4909
20
796.2344
30
0.0
0
VERTEX
8
CORTE EXTERNO
10
630.7633
20
796.8338
30
0.0
0
VERTEX
8
CORTE EXTERNO
10
629.1037
20
797.3817
30
0.0
0
VERTEX
8
CORTE EXTERNO
10
627.5057
20
797.8780
30
0.0
0
VERTEX
8
CORTE EXTERNO
10
625.9629
20
798.3225
30
0.0
0
VERTEX
8
CORTE EXTERNO
10
624.4687
20
798.7151
30
0.0
0
VERTEX
8
CORTE EXTERNO
10
623.0167
20
799.0557
30
0.0
0
VERTEX
8
CORTE EXTERNO
10
621.6004
20
799.3442
30
0.0
0
VERTEX
8
CORTE EXTERNO
10
620.2134
20
799.5804
30
0.0
0
VERTEX
8
CORTE EXTERNO
10
618.8491
20
799.7642
30
0.0
0
VERTEX
8
CORTE EXTERNO
10
617.5012
20
799.8955
30
0.0
0
VERTEX
8
CORTE EXTERNO
10
616.1631
20
799.9741
30
0.0
0
VERTEX
8
CORTE EXTERNO
10
614.8284
20
800.0000
30
0.0
0
VERTEX
8
CORTE EXTERNO
10
613.4906
20
799.9730
30
0.0
0
VERTEX
8
CORTE EXTERNO
10
612.1433
20
799.8930
30
0.0
0
VERTEX
8
CORTE EXTERNO
10
610.7800
20
799.7598
30
0.0
0
VERTEX
8
CORTE EXTERNO
10
609.3941
20
799.5734
30
0.0
0
VERTEX
8
CORTE EXTERNO
10
607.9793
20
799.3336
30
0.0
0
VERTEX
8
CORTE EXTERNO
10
606.5291
20
799.0403
30
0.0
0
VERTEX
8
CORTE EXTERNO
10
605.0370
20
798.6933
30
0.0
0
VERTEX
8
CORTE EXTERNO
10
603.4965
20
798.2926
30
0.0
0
VERTEX
8
CORTE EXTERNO
10
601.9012
20
797.8380
30
0.0
0
VERTEX
8
CORTE EXTERNO
10
600.2445
20
797.3293
30
0.0
0
VERTEX
8
CORTE EXTERNO
10
598.5202
20
796.7666
30
0.0
0
VERTEX
8
CORTE EXTERNO
10
596.7216
20
796.1495
30
0.0
0
VERTEX
8
CORTE EXTERNO
10
594.8422
20
795.4781
30
0.0
0
VERTEX
8
CORTE EXTERNO
10
592.8758
20
794.7522
30
0.0
0
VERTEX
8
CORTE EXTERNO
10
590.8156
20
793.9717
30
0.0
0
VERTEX
8
CORTE EXTERNO
10
588.6554
20
793.1363
30
0.0
0
VERTEX
8
CORTE EXTERNO
10
586.3886
20
792.2461
30
0.0
0
VERTEX
8
CORTE EXTERNO
10
584.0088
20
791.3009
30
0.0
0
VERTEX
8
CORTE EXTERNO
10
581.5094
20
790.3006
30
0.0
0
VERTEX
8
CORTE EXTERNO
10
578.8841
20
789.2450
30
0.0
0
VERTEX
8
CORTE EXTERNO
10
576.1263
20
788.1340
30
0.0
0
VERTEX
8
CORTE EXTERNO
10
573.2297
20
786.9675
30
0.0
0
VERTEX
8
CORTE EXTERNO
10
568.9911
20
785.2585
30
0.0
0
VERTEX
8
CORTE EXTERNO
10
564.7460
20
783.5401
30
0.0
0
VERTEX
8
CORTE EXTERNO
10
560.4948
20
781.8125
30
0.0
0
VERTEX
8
CORTE EXTERNO
10
556.2377
20
780.0761
30
0.0
0
VERTEX
8
CORTE EXTERNO
10
551.9748
20
778.3313
30
0.0
0
VERTEX
8
CORTE EXTERNO
10
547.7065
20
776.5782
30
0.0
0
VERTEX
8
CORTE EXTERNO
10
543.4330
20
774.8174
30
0.0
0
VERTEX
8
CORTE EXTERNO
10
539.1545
20
773.0492
30
0.0
0
VERTEX
8
CORTE EXTERNO
10
534.8713
20
771.2738
30
0.0
0
VERTEX
8
CORTE EXTERNO
10
530.5837
20
769.4916
30
0.0
0
VERTEX
8
CORTE EXTERNO
10
526.2918
20
767.7029
30
0.0
0
VERTEX
8
CORTE EXTERNO
10
521.9960
20
765.9081
30
0.0
0
VERTEX
8
CORTE EXTERNO
10
517.6964
20
764.1076
30
0.0
0
VERTEX
8
CORTE EXTERNO
10
513.3934
20
762.3016
30
0.0
0
VERTEX
8
CORTE EXTERNO
10
509.0871
20
760.4905
30
0.0
0
VERTEX
8
CORTE EXTERNO
10
504.7778
20
758.6746
30
0.0
0
VERTEX
8
CORTE EXTERNO
10
500.4658
20
756.8542
30
0.0
0
VERTEX
8
CORTE EXTERNO
10
496.1513
20
755.0298
30
0.0
0
VERTEX
8
CORTE EXTERNO
10
491.8345
20
753.2016
30
0.0
0
VERTEX
8
CORTE EXTERNO
10
487.5158
20
751.3700
30
0.0
0
VERTEX
8
CORTE EXTERNO
10
483.1953
20
749.5352
30
0.0
0
VERTEX
8
CORTE EXTERNO
10
478.8733
20
747.6978
30
0.0
0
VERTEX
8
CORTE EXTERNO
10
474.5500
20
745.8579
30
0.0
0
VERTEX
8
CORTE EXTERNO
10
470.2257
20
744.0159
30
0.0
0
VERTEX
8
CORTE EXTERNO
10
465.9006
20
742.1721
30
0.0
0
VERTEX
8
CORTE EXTERNO
10
461.5750
20
740.3270
30
0.0
0
VERTEX
8
CORTE EXTERNO
10
457.2492
20
738.4808
30
0.0
0
VERTEX
8
CORTE EXTERNO
10
452.9233
20
736.6338
30
0.0
0
VERTEX
8
CORTE EXTERNO
10
448.5976
20
734.7865
30
0.0
0
VERTEX
8
CORTE EXTERNO
10
444.2724
20
732.9390
30
0.0
0
VERTEX
8
CORTE EXTERNO
10
439.9478
20
731.0919
30
0.0
0
VERTEX
8
CORTE EXTERNO
10
435.6243
20
729.2453
30
0.0
0
VERTEX
8
CORTE EXTERNO
10
431.3019
20
727.3997
30
0.0
0
VERTEX
8
CORTE EXTERNO
10
426.9810
20
725.5554
30
0.0
0
VERTEX
8
CORTE EXTERNO
10
422.6618
20
723.7127
30
0.0
0
VERTEX
8
CORTE EXTERNO
10
418.3446
20
721.8719
30
0.0
0
VERTEX
8
CORTE EXTERNO
10
414.0295
20
720.0335
30
0.0
0
VERTEX
8
CORTE EXTERNO
10
409.7168
20
718.1976
30
0.0
0
VERTEX
8
CORTE EXTERNO
10
405.4069
20
716.3647
30
0.0
0
VERTEX
8
CORTE EXTERNO
10
401.0998
20
714.5351
30
0.0
0
VERTEX
8
CORTE EXTERNO
10
396.7960
20
712.7092
30
0.0
0
VERTEX
8
CORTE EXTERNO
10
392.4955
20
710.8872
30
0.0
0
VERTEX
8
CORTE EXTERNO
10
388.1988
20
709.0695
30
0.0
0
VERTEX
8
CORTE EXTERNO
10
383.9059
20
707.2565
30
0.0
0
VERTEX
8
CORTE EXTERNO
10
379.6172
20
705.4484
30
0.0
0
VERTEX
8
CORTE EXTERNO
10
375.3329
20
703.6457
30
0.0
0
VERTEX
8
CORTE EXTERNO
10
371.0532
20
701.8486
30
0.0
0
VERTEX
8
CORTE EXTERNO
10
366.7785
20
700.0575
30
0.0
0
VERTEX
8
CORTE EXTERNO
10
362.5089
20
698.2727
30
0.0
0
VERTEX
8
CORTE EXTERNO
10
358.2447
20
696.4946
30
0.0
0
VERTEX
8
CORTE EXTERNO
10
353.9861
20
694.7235
30
0.0
0
VERTEX
8
CORTE EXTERNO
10
349.7334
20
692.9597
30
0.0
0
VERTEX
8
CORTE EXTERNO
10
345.4868
20
691.2036
30
0.0
0
VERTEX
8
CORTE EXTERNO
10
341.2466
20
689.4554
30
0.0
0
VERTEX
8
CORTE EXTERNO
10
337.0131
20
687.7157
30
0.0
0
VERTEX
8
CORTE EXTERNO
10
332.7864
20
685.9846
30
0.0
0
VERTEX
8
CORTE EXTERNO
10
328.5668
20
684.2625
30
0.0
0
VERTEX
8
CORTE EXTERNO
10
324.3546
20
682.5498
30
0.0
0
VERTEX
8
CORTE EXTERNO
10
320.1500
20
680.8467
30
0.0
0
VERTEX
8
CORTE EXTERNO
10
315.9533
20
679.1537
30
0.0
0
VERTEX
8
CORTE EXTERNO
10
311.7646
20
677.4711
30
0.0
0
VERTEX
8
CORTE EXTERNO
10
307.5843
20
675.7991
30
0.0
0
VERTEX
8
CORTE EXTERNO
10
303.4126
20
674.1382
30
0.0
0
VERTEX
8
CORTE EXTERNO
10
299.2498
20
672.4886
30
0.0
0
VERTEX
8
CORTE EXTERNO
10
65.3457
20
574.4838
30
0.0
0
VERTEX
8
CORTE EXTERNO
10
63.3911
20
573.6734
30
0.0
0
VERTEX
8
CORTE EXTERNO
10
61.4138
20
572.8727
30
0.0
0
VERTEX
8
CORTE EXTERNO
10
59.4168
20
572.0805
30
0.0
0
VERTEX
8
CORTE EXTERNO
10
57.4035
20
571.2951
30
0.0
0
VERTEX
8
CORTE EXTERNO
10
55.3769
20
570.5152
30
0.0
0
VERTEX
8
CORTE EXTERNO
10
53.3403
20
569.7394
30
0.0
0
VERTEX
8
CORTE EXTERNO
10
51.2969
20
568.9663
30
0.0
0
VERTEX
8
CORTE EXTERNO
10
49.2498
20
568.1944
30
0.0
0
VERTEX
8
CORTE EXTERNO
10
47.2023
20
567.4223
30
0.0
0
VERTEX
8
CORTE EXTERNO
10
45.1574
20
566.6485
30
0.0
0
VERTEX
8
CORTE EXTERNO
10
43.1185
20
565.8717
30
0.0
0
VERTEX
8
CORTE EXTERNO
10
41.0886
20
565.0904
30
0.0
0
VERTEX
8
CORTE EXTERNO
10
39.0711
20
564.3033
30
0.0
0
VERTEX
8
CORTE EXTERNO
10
37.0690
20
563.5087
30
0.0
0
VERTEX
8
CORTE EXTERNO
10
35.0855
20
562.7055
30
0.0
0
VERTEX
8
CORTE EXTERNO
10
33.1239
20
561.8920
30
0.0
0
VERTEX
8
CORTE EXTERNO
10
31.1873
20
561.0669
30
0.0
0
VERTEX
8
CORTE EXTERNO
10
29.2789
20
560.2288
30
0.0
0
VERTEX
8
CORTE EXTERNO
10
27.4019
20
559.3762
30
0.0
0
VERTEX
8
CORTE EXTERNO
10
25.5595
20
558.5078
30
0.0
0
VERTEX
8
CORTE EXTERNO
10
23.7548
20
557.6220
30
0.0
0
VERTEX
8
CORTE EXTERNO
10
21.9911
20
556.7175
30
0.0
0
VERTEX
8
CORTE EXTERNO
10
20.2715
20
555.7928
30
0.0
0
VERTEX
8
CORTE EXTERNO
10
18.5993
20
554.8465
30
0.0
0
VERTEX
8
CORTE EXTERNO
10
16.9776
20
553.8772
30
0.0
0
VERTEX
8
CORTE EXTERNO
10
15.4096
20
552.8835
30
0.0
0
VERTEX
8
CORTE EXTERNO
10
13.8984
20
551.8639
30
0.0
0
VERTEX
8
CORTE EXTERNO
10
12.4474
20
550.8170
30
0.0
0
VERTEX
8
CORTE EXTERNO
10
11.0596
20
549.7413
30
0.0
0
VERTEX
8
CORTE EXTERNO
10
9.7382
20
548.6356
30
0.0
0
VERTEX
8
CORTE EXTERNO
10
8.4864
20
547.4982
30
0.0
0
VERTEX
8
CORTE EXTERNO
10
7.3075
20
546.3279
30
0.0
0
VERTEX
8
CORTE EXTERNO
10
6.2046
20
545.1231
30
0.0
0
VERTEX
8
CORTE EXTERNO
10
5.1809
20
543.8825
30
0.0
0
VERTEX
8
CORTE EXTERNO
10
4.2395
20
542.6046
30
0.0
0
VERTEX
8
CORTE EXTERNO
10
3.3837
20
541.2879
30
0.0
0
VERTEX
8
CORTE EXTERNO
10
2.6167
20
539.9312
30
0.0
0
VERTEX
8
CORTE EXTERNO
10
1.9416
20
538.5329
30
0.0
0
VERTEX
8
CORTE EXTERNO
10
1.3616
20
537.0916
30
0.0
0
VERTEX
8
CORTE EXTERNO
10
0.8799
20
535.6060
30
0.0
0
VERTEX
8
CORTE EXTERNO
10
0.4997
20
534.0745
30
0.0
0
VERTEX
8
CORTE EXTERNO
10
0.2242
20
532.4957
30
0.0
0
VERTEX
8
CORTE EXTERNO
10
0.0566
20
530.8682
30
0.0
0
SEQEND
8
CORTE EXTERNO
0
POLYLINE
8
CORTE INTERNO
66
1
70
1
0
VERTEX
8
CORTE INTERNO
10
132.7651
20
526.7321
30
0.0
0
VERTEX
8
CORTE INTERNO
10
133.4287
20
527.5747
30
0.0
0
VERTEX
8
CORTE INTERNO
10
134.1494
20
528.3733
30
0.0
0
VERTEX
8
CORTE INTERNO
10
134.9241
20
529.1303
30
0.0
0
VERTEX
8
CORTE INTERNO
10
135.7496
20
529.8483
30
0.0
0
VERTEX
8
CORTE INTERNO
10
136.6229
20
530.5297
30
0.0
0
VERTEX
8
CORTE INTERNO
10
137.5409
20
531.1770
30
0.0
0
VERTEX
8
CORTE INTERNO
10
138.5004
20
531.7927
30
0.0
0
VERTEX
8
CORTE INTERNO
10
139.4983
20
532.3793
30
0.0
0
VERTEX
8
CORTE INTERNO
10
140.5317
20
532.9392
30
0.0
0
VERTEX
8
CORTE INTERNO
10
141.5972
20
533.4750
30
0.0
0
VERTEX
8
CORTE INTERNO
10
142.6919
20
533.9892
30
0.0
0
VERTEX
8
CORTE INTERNO
10
143.8127
20
534.4842
30
0.0
0
VERTEX
8
CORTE INTERNO
10
144.9563
20
534.9625
30
0.0
0
VERTEX
8
CORTE INTERNO
10
146.1199
20
535.4265
30
0.0
0
VERTEX
8
CORTE INTERNO
10
147.3001
20
535.8789
30
0.0
0
VERTEX
8
CORTE INTERNO
10
148.4940
20
536.3220
30
0.0
0
VERTEX
8
CORTE INTERNO
10
149.6984
20
536.7584
30
0.0
0
VERTEX
8
CORTE INTERNO
10
150.9103
20
537.1906
30
0.0
0
VERTEX
8
CORTE INTERNO
10
152.1265
20
537.6209
30
0.0
0
VERTEX
8
CORTE INTERNO
10
153.3439
20
538.0520
30
0.0
0
VERTEX
8
CORTE INTERNO
10
154.5594
20
538.4863
30
0.0
0
VERTEX
8
CORTE INTERNO
10
155.7699
20
538.9262
30
0.0
0
VERTEX
8
CORTE INTERNO
10
156.9723
20
539.3743
30
0.0
0
VERTEX
8
CORTE INTERNO
10
158.1636
20
539.8331
30
0.0
0
VERTEX
8
CORTE INTERNO
10
159.3406
20
540.3049
30
0.0
0
VERTEX
8
CORTE INTERNO
10
160.5001
20
540.7925
30
0.0
0
VERTEX
8
CORTE INTERNO
10
249.0093
20
577.6729
30
0.0
0
VERTEX
8
CORTE INTERNO
10
250.6683
20
578.3889
30
0.0
0
VERTEX
8
CORTE INTERNO
10
252.3260
20
579.1045
30
0.0
0
VERTEX
8
CORTE INTERNO
10
253.9822
20
579.8197
30
0.0
0
VERTEX
8
CORTE INTERNO
10
255.6370
20
580.5344
30
0.0
0
VERTEX
8
CORTE INTERNO
10
257.2903
20
581.2485
30
0.0
0
VERTEX
8
CORTE INTERNO
10
258.9421
20
581.9618
30
0.0
0
VERTEX
8
CORTE INTERNO
10
260.5923
20
582.6745
30
0.0
0
VERTEX
8
CORTE INTERNO
10
262.2410
20
583.3862
30
0.0
0
VERTEX
8
CORTE INTERNO
10
263.8881
20
584.0970
30
0.0
0
VERTEX
8
CORTE INTERNO
10
265.5336
20
584.8068
30
0.0
0
VERTEX
8
CORTE INTERNO
10
267.1774
20
585.5154
30
0.0
0
VERTEX
8
CORTE INTERNO
10
268.8196
20
586.2229
30
0.0
0
VERTEX
8
CORTE INTERNO
10
270.4600
20
586.9291
30
0.0
0
VERTEX
8
CORTE INTERNO
10
272.0987
20
587.6339
30
0.0
0
VERTEX
8
CORTE INTERNO
10
273.7356
20
588.3373
30
0.0
0
VERTEX
8
CORTE INTERNO
10
275.3707
20
589.0391
30
0.0
0
VERTEX
8
CORTE INTERNO
10
277.0040
20
589.7393
30
0.0
0
VERTEX
8
CORTE INTERNO
10
278.6354
20
590.4379
30
0.0
0
VERTEX
8
CORTE INTERNO
10
280.2650
20
591.1346
30
0.0
0
VERTEX
8
CORTE INTERNO
10
281.8926
20
591.8295
30
0.0
0
VERTEX
8
CORTE INTERNO
10
283.5183
20
592.5224
30
0.0
0
VERTEX
8
CORTE INTERNO
10
285.1420
20
593.2132
30
0.0
0
VERTEX
8
CORTE INTERNO
10
286.7637
20
593.9020
30
0.0
0
VERTEX
8
CORTE INTERNO
10
288.3834
20
594.5885
30
0.0
0
VERTEX
8
CORTE INTERNO
10
290.0010
20
595.2728
30
0.0
0
VERTEX
8
CORTE INTERNO
10
291.6166
20
595.9546
30
0.0
0
VERTEX
8
CORTE INTERNO
10
293.2300
20
596.6341
30
0.0
0
VERTEX
8
CORTE INTERNO
10
294.8412
20
597.3109
30
0.0
0
VERTEX
8
CORTE INTERNO
10
296.4503
20
597.9852
30
0.0
0
VERTEX
8
CORTE INTERNO
10
298.0572
20
598.6567
30
0.0
0
VERTEX
8
CORTE INTERNO
10
299.6618
20
599.3254
30
0.0
0
VERTEX
8
CORTE INTERNO
10
301.2642
20
599.9913
30
0.0
0
VERTEX
8
CORTE INTERNO
10
302.8643
20
600.6542
30
0.0
0
VERTEX
8
CORTE INTERNO
10
304.4620
20
601.3140
30
0.0
0
VERTEX
8
CORTE INTERNO
10
306.0574
20
601.9707
30
0.0
0
VERTEX
8
CORTE INTERNO
10
307.6505
20
602.6242
30
0.0
0
VERTEX
8
CORTE INTERNO
10
486.1119
20
677.3972
30
0.0
0
VERTEX
8
CORTE INTERNO
10
487.0538
20
677.8030
30
0.0
0
VERTEX
8
CORTE INTERNO
10
488.1758
20
678.2848
30
0.0
0
VERTEX
8
CORTE INTERNO
10
489.4702
20
678.8393
30
0.0
0
VERTEX
8
CORTE INTERNO
10
490.9295
20
679.4633
30
0.0
0
VERTEX
8
CORTE INTERNO
10
492.5462
20
680.1533
30
0.0
0
VERTEX
8
CORTE INTERNO
10
494.3128
20
680.9061
30
0.0
0
VERTEX
8
CORTE INTERNO
10
496.2217
20
681.7183
30
0.0
0
VERTEX
8
CORTE INTERNO
10
498.2654
20
682.5866
30
0.0
0
VERTEX
8
CORTE INTERNO
10
500.4363
20
683.5077
30
0.0
0
VERTEX
8
CORTE INTERNO
10
502.7270
20
684.4783
30
0.0
0
VERTEX
8
CORTE INTERNO
10
505.1298
20
685.4950
30
0.0
0
VERTEX
8
CORTE INTERNO
10
507.6373
20
686.5545
30
0.0
0
VERTEX
8
CORTE INTERNO
10
510.2419
20
687.6535
30
0.0
0
VERTEX
8
CORTE INTERNO
10
512.9361
20
688.7886
30
0.0
0
VERTEX
8
CORTE INTERNO
10
515.7124
20
689.9566
30
0.0
0
VERTEX
8
CORTE INTERNO
10
518.5632
20
691.1541
30
0.0
0
VERTEX
8
CORTE INTERNO
10
521.4810
20
692.3778
30
0.0
0
VERTEX
8
CORTE INTERNO
10
524.4582
20
693.6244
30
0.0
0
VERTEX
8
CORTE INTERNO
10
527.4873
20
694.8905
30
0.0
0
VERTEX
8
CORTE INTERNO
10
530.5609
20
696.1728
30
0.0
0
VERTEX
8
CORTE INTERNO
10
533.6713
20
697.4681
30
0.0
0
VERTEX
8
CORTE INTERNO
10
536.8110
20
698.7729
30
0.0
0
VERTEX
8
CORTE INTERNO
10
539.9725
20
700.0839
30
0.0
0
VERTEX
8
CORTE INTERNO
10
543.1483
20
701.3978
30
0.0
0
VERTEX
8
CORTE INTERNO
10
546.3308
20
702.7114
30
0.0
0
VERTEX
8
CORTE INTERNO
10
549.5125
20
704.0212
30
0.0
0
VERTEX
8
CORTE INTERNO
10
552.6859
20
705.3240
30
0.0
0
VERTEX
8
CORTE INTERNO
10
555.8433
20
706.6164
30
0.0
0
VERTEX
8
CORTE INTERNO
10
558.9774
20
707.8951
30
0.0
0
VERTEX
8
CORTE INTERNO
10
562.0805
20
709.1568
30
0.0
0
VERTEX
8
CORTE INTERNO
10
565.1452
20
710.3981
30
0.0
0
VERTEX
8
CORTE INTERNO
10
568.1638
20
711.6158
30
0.0
0
VERTEX
8
CORTE INTERNO
10
571.1289
20
712.8065
30
0.0
0
VERTEX
8
CORTE INTERNO
10
574.0329
20
713.9668
30
0.0
0
VERTEX
8
CORTE INTERNO
10
576.8684
20
715.0935
30
0.0
0
VERTEX
8
CORTE INTERNO
10
579.6276
20
716.1833
30
0.0
0
VERTEX
8
CORTE INTERNO
10
582.3032
20
717.2327
30
0.0
0
VERTEX
8
CORTE INTERNO
10
584.8876
20
718.2386
30
0.0
0
VERTEX
8
CORTE INTERNO
10
587.3733
20
719.1974
30
0.0
0
VERTEX
8
CORTE INTERNO
10
589.7527
20
720.1061
30
0.0
0
VERTEX
8
CORTE INTERNO
10
592.0182
20
720.9611
30
0.0
0
VERTEX
8
CORTE INTERNO
10
594.1625
20
721.7592
30
0.0
0
VERTEX
8
CORTE INTERNO
10
596.1778
20
722.4971
30
0.0
0
VERTEX
8
CORTE INTERNO
10
598.0568
20
723.1715
30
0.0
0
VERTEX
8
CORTE INTERNO
10
599.7918
20
723.7789
30
0.0
0
VERTEX
8
CORTE INTERNO
10
601.3753
20
724.3162
30
0.0
0
VERTEX
8
CORTE INTERNO
10
602.7999
20
724.7799
30
0.0
0
VERTEX
8
CORTE INTERNO
10
604.0579
20
725.1667
30
0.0
0
VERTEX
8
CORTE INTERNO
10
605.1418
20
725.4734
30
0.0
0
VERTEX
8
CORTE INTERNO
10
606.0441
20
725.6966
30
0.0
0
VERTEX
8
CORTE INTERNO
10
606.7573
20
725.8329
30
0.0
0
VERTEX
8
CORTE INTERNO
10
607.2738
20
725.8791
30
0.0
0
VERTEX
8
CORTE INTERNO
10
622.0259
20
725.8791
30
0.0
0
VERTEX
8
CORTE INTERNO
10
622.5083
20
725.8332
30
0.0
0
VERTEX
8
CORTE INTERNO
10
623.1886
20
725.6972
30
0.0
0
VERTEX
8
CORTE INTERNO
10
624.0607
20
725.4740
30
0.0
0
VERTEX
8
CORTE INTERNO
10
625.1188
20
725.1660
30
0.0
0
VERTEX
8
CORTE INTERNO
10
626.3567
20
724.7760
30
0.0
0
VERTEX
8
CORTE INTERNO
10
627.7684
20
724.3066
30
0.0
0
VERTEX
8
CORTE INTERNO
10
629.3480
20
723.7606
30
0.0
0
VERTEX
8
CORTE INTERNO
10
631.0894
20
723.1406
30
0.0
0
VERTEX
8
CORTE INTERNO
10
632.9866
20
722.4492
30
0.0
0
VERTEX
8
CORTE INTERNO
10
635.0336
20
721.6892
30
0.0
0
VERTEX
8
CORTE INTERNO
10
637.2243
20
720.8631
30
0.0
0
VERTEX
8
CORTE INTERNO
10
639.5529
20
719.9737
30
0.0
0
VERTEX
8
CORTE INTERNO
10
642.0131
20
719.0236
30
0.0
0
VERTEX
8
CORTE INTERNO
10
644.5991
20
718.0156
30
0.0
0
VERTEX
8
CORTE INTERNO
10
647.3048
20
716.9522
30
0.0
0
VERTEX
8
CORTE INTERNO
10
650.1242
20
715.8362
30
0.0
0
VERTEX
8
CORTE INTERNO
10
653.0513
20
714.6701
30
0.0
0
VERTEX
8
CORTE INTERNO
10
656.0801
20
713.4568
30
0.0
0
VERTEX
8
CORTE INTERNO
10
659.2045
20
712.1988
30
0.0
0
VERTEX
8
CORTE INTERNO
10
662.4186
20
710.8988
30
0.0
0
VERTEX
8
CORTE INTERNO
10
665.7163
20
709.5595
30
0.0
0
VERTEX
8
CORTE INTERNO
10
669.0916
20
708.1835
30
0.0
0
VERTEX
8
CORTE INTERNO
10
672.5385
20
706.7736
30
0.0
0
VERTEX
8
CORTE INTERNO
10
676.0510
20
705.3324
30
0.0
0
VERTEX
8
CORTE INTERNO
10
679.6231
20
703.8625
30
0.0
0
VERTEX
8
CORTE INTERNO
10
683.2487
20
702.3667
30
0.0
0
VERTEX
8
CORTE INTERNO
10
686.9219
20
700.8476
30
0.0
0
VERTEX
8
CORTE INTERNO
10
690.6366
20
699.3078
30
0.0
0
VERTEX
8
CORTE INTERNO
10
694.3868
20
697.7501
30
0.0
0
VERTEX
8
CORTE INTERNO
10
698.1665
20
696.1771
30
0.0
0
VERTEX
8
CORTE INTERNO
10
701.9697
20
694.5914
30
0.0
0
VERTEX
8
CORTE INTERNO
10
705.7904
20
692.9959
30
0.0
0
VERTEX
8
CORTE INTERNO
10
709.6225
20
691.3930
30
0.0
0
VERTEX
8
CORTE INTERNO
10
713.4600
20
689.7855
30
0.0
0
VERTEX
8
CORTE INTERNO
10
717.2970
20
688.1761
30
0.0
0
VERTEX
8
CORTE INTERNO
10
721.1274
20
686.5674
30
0.0
0
VERTEX
8
CORTE INTERNO
10
724.9452
20
684.9620
30
0.0
0
VERTEX
8
CORTE INTERNO
10
728.7444
20
683.3628
30
0.0
0
VERTEX
8
CORTE INTERNO
10
732.5190
20
681.7723
30
0.0
0
VERTEX
8
CORTE INTERNO
10
736.2629
20
680.1931
30
0.0
0
VERTEX
8
CORTE INTERNO
10
739.9701
20
678.6281
30
0.0
0
VERTEX
8
CORTE INTERNO
10
743.6347
20
677.0798
30
0.0
0
VERTEX
8
CORTE INTERNO
10
747.2506
20
675.5509
30
0.0
0
VERTEX
8
CORTE INTERNO
10
750.8117
20
674.0440
30
0.0
0
VERTEX
8
CORTE INTERNO
10
754.3122
20
672.5619
30
0.0
0
VERTEX
8
CORTE INTERNO
10
757.7459
20
671.1073
30
0.0
0
VERTEX
8
CORTE INTERNO
10
761.1069
20
669.6827
30
0.0
0
VERTEX
8
CORTE INTERNO
10
764.3891
20
668.2908
30
0.0
0
VERTEX
8
CORTE INTERNO
10
767.5866
20
666.9344
30
0.0
0
VERTEX
8
CORTE INTERNO
10
770.6932
20
665.6161
30
0.0
0
VERTEX
8
CORTE INTERNO
10
773.7031
20
664.3385
30
0.0
0
VERTEX
8
CORTE INTERNO
10
776.6101
20
663.1044
30
0.0
0
VERTEX
8
CORTE INTERNO
10
779.4083
20
661.9163
30
0.0
0
VERTEX
8
CORTE INTERNO
10
782.0917
20
660.7771
30
0.0
0
VERTEX
8
CORTE INTERNO
10
784.6542
20
659.6892
30
0.0
0
VERTEX
8
CORTE INTERNO
10
787.0898
20
658.6555
30
0.0
0
VERTEX
8
CORTE INTERNO
10
789.3925
20
657.6785
30
0.0
0
VERTEX
8
CORTE INTERNO
10
791.5563
20
656.7610
30
0.0
0
VERTEX
8
CORTE INTERNO
10
793.5752
20
655.9056
30
0.0
0
VERTEX
8
CORTE INTERNO
10
795.4432
20
655.1150
30
0.0
0
VERTEX
8
CORTE INTERNO
10
797.1542
20
654.3918
30
0.0
0
VERTEX
8
CORTE INTERNO
10
798.7022
20
653.7388
30
0.0
0
VERTEX
8
CORTE INTERNO
10
800.0813
20
653.1585
30
0.0
0
VERTEX
8
CORTE INTERNO
10
1067.0307
20
541.4846
30
0.0
0
VERTEX
8
CORTE INTERNO
10
1067.9269
20
541.1361
30
0.0
0
VERTEX
8
CORTE INTERNO
10
1068.8943
20
540.7681
30
0.0
0
VERTEX
8
CORTE INTERNO
10
1069.9264
20
540.3812
30
0.0
0
VERTEX
8
CORTE INTERNO
10
1071.0164
20
539.9759
30
0.0
0
VERTEX
8
CORTE INTERNO
10
1072.1575
20
539.5526
30
0.0
0
VERTEX
8
CORTE INTERNO
10
1073.3429
20
539.1119
30
0.0
0
VERTEX
8
CORTE INTERNO
10
1074.5660
20
538.6544
30
0.0
0
VERTEX
8
CORTE INTERNO
10
1075.8199
20
538.1804
30
0.0
0
VERTEX
8
CORTE INTERNO
10
1077.0980
20
537.6905
30
0.0
0
VERTEX
8
CORTE INTERNO
10
1078.3934
20
537.1852
30
0.0
0
VERTEX
8
CORTE INTERNO
10
1079.6995
20
536.6650
30
0.0
0
VERTEX
8
CORTE INTERNO
10
1081.0094
20
536.1305
30
0.0
0
VERTEX
8
CORTE INTERNO
10
1082.3165
20
535.5821
30
0.0
0
VERTEX
8
CORTE INTERNO
10
1083.6139
20
535.0203
30
0.0
0
VERTEX
8
CORTE INTERNO
10
1084.8950
20
534.4457
30
0.0
0
VERTEX
8
CORTE INTERNO
10
1086.1529
20
533.8587
30
0.0
0
VERTEX
8
CORTE INTERNO
10
1087.3810
20
533.2599
30
0.0
0
VERTEX
8
CORTE INTERNO
10
1088.5725
20
532.6498
30
0.0
0
VERTEX
8
CORTE INTERNO
10
1089.7206
20
532.0288
30
0.0
0
VERTEX
8
CORTE INTERNO
10
1090.8186
20
531.3975
30
0.0
0
VERTEX
8
CORTE INTERNO
10
1091.8597
20
530.7564
30
0.0
0
VERTEX
8
CORTE INTERNO
10
1092.8373
20
530.1060
30
0.0
0
VERTEX
8
CORTE INTERNO
10
1093.7445
20
529.4468
30
0.0
0
VERTEX
8
CORTE INTERNO
10
1094.5745
20
528.7793
30
0.0
0
VERTEX
8
CORTE INTERNO
10
1095.3207
20
528.1040
30
0.0
0
VERTEX
8
CORTE INTERNO
10
1095.9764
20
527.4215
30
0.0
0
VERTEX
8
CORTE INTERNO
10
1096.5346
20
526.7321
30
0.0
0
VERTEX
8
CORTE INTERNO
10
1095.9180
20
525.9332
30
0.0
0
VERTEX
8
CORTE INTERNO
10
1095.2740
20
525.1809
30
0.0
0
VERTEX
8
CORTE INTERNO
10
1094.6017
20
524.4717
30
0.0
0
VERTEX
8
CORTE INTERNO
10
1093.9001
20
523.8024
30
0.0
0
VERTEX
8
CORTE INTERNO
10
1093.1683
20
523.1696
30
0.0
0
VERTEX
8
CORTE INTERNO
10
1092.4053
20
522.5698
30
0.0
0
VERTEX
8
CORTE INTERNO
10
1091.6103
20
521.9998
30
0.0
0
VERTEX
8
CORTE INTERNO
10
1090.7821
20
521.4561
30
0.0
0
VERTEX
8
CORTE INTERNO
10
1089.9200
20
520.9354
30
0.0
0
VERTEX
8
CORTE INTERNO
10
1089.0228
20
520.4343
30
0.0
0
VERTEX
8
CORTE INTERNO
10
1088.0898
20
519.9494
30
0.0
0
VERTEX
8
CORTE INTERNO
10
1087.1199
20
519.4774
30
0.0
0
VERTEX
8
CORTE INTERNO
10
1086.1123
20
519.0149
30
0.0
0
VERTEX
8
CORTE INTERNO
10
1085.0658
20
518.5585
30
0.0
0
VERTEX
8
CORTE INTERNO
10
1083.9797
20
518.1048
30
0.0
0
VERTEX
8
CORTE INTERNO
10
1082.8529
20
517.6505
30
0.0
0
VERTEX
8
CORTE INTERNO
10
1081.6845
20
517.1922
30
0.0
0
VERTEX
8
CORTE INTERNO
10
1080.4736
20
516.7265
30
0.0
0
VERTEX
8
CORTE INTERNO
10
1079.2192
20
516.2501
30
0.0
0
VERTEX
8
CORTE INTERNO
10
1077.9203
20
515.7596
30
0.0
0
VERTEX
8
CORTE INTERNO
10
1076.5760
20
515.2515
30
0.0
0
VERTEX
8
CORTE INTERNO
10
1075.1854
20
514.7226
30
0.0
0
VERTEX
8
CORTE INTERNO
10
1073.7476
20
514.1695
30
0.0
0
VERTEX
8
CORTE INTERNO
10
1072.2614
20
513.5888
30
0.0
0
VERTEX
8
CORTE INTERNO
10
1070.7261
20
512.9771
30
0.0
0
VERTEX
8
CORTE INTERNO
10
1069.1407
20
512.3310
30
0.0
0
VERTEX
8
CORTE INTERNO
10
978.8461
20
474.7768
30
0.0
0
VERTEX
8
CORTE INTERNO
10
977.2999
20
474.1382
30
0.0
0
VERTEX
8
CORTE INTERNO
10
975.3444
20
473.3217
30
0.0
0
VERTEX
8
CORTE INTERNO
10
972.9932
20
472.3332
30
0.0
0
VERTEX
8
CORTE INTERNO
10
970.2597
20
471.1787
30
0.0
0
VERTEX
8
CORTE INTERNO
10
967.1573
20
469.8644
30
0.0
0
VERTEX
8
CORTE INTERNO
10
963.6994
20
468.3961
30
0.0
0
VERTEX
8
CORTE INTERNO
10
959.8995
20
466.7799
30
0.0
0
VERTEX
8
CORTE INTERNO
10
955.7710
20
465.0219
30
0.0
0
VERTEX
8
CORTE INTERNO
10
951.3273
20
463.1280
30
0.0
0
VERTEX
8
CORTE INTERNO
10
946.5819
20
461.1042
30
0.0
0
VERTEX
8
CORTE INTERNO
10
941.5483
20
458.9565
30
0.0
0
VERTEX
8
CORTE INTERNO
10
936.2398
20
456.6911
30
0.0
0
VERTEX
8
CORTE INTERNO
10
930.6698
20
454.3138
30
0.0
0
VERTEX
8
CORTE INTERNO
10
924.8519
20
451.8308
30
0.0
0
VERTEX
8
CORTE INTERNO
10
918.7994
20
449.2479
30
0.0
0
VERTEX
8
CORTE INTERNO
10
912.5258
20
446.5713
30
0.0
0
VERTEX
8
CORTE INTERNO
10
906.0446
20
443.8069
30
0.0
0
VERTEX
8
CORTE INTERNO
10
899.3691
20
440.9608
30
0.0
0
VERTEX
8
CORTE INTERNO
10
892.5127
20
438.0389
30
0.0
0
VERTEX
8
CORTE INTERNO
10
885.4890
20
435.0473
30
0.0
0
VERTEX
8
CORTE INTERNO
10
878.3114
20
431.9921
30
0.0
0
VERTEX
8
CORTE INTERNO
10
870.9933
20
428.8791
30
0.0
0
VERTEX
8
CORTE INTERNO
10
863.5480
20
425.7144
30
0.0
0
VERTEX
8
CORTE INTERNO
10
855.9892
20
422.5041
30
0.0
0
VERTEX
8
CORTE INTERNO
10
848.3301
20
419.2542
30
0.0
0
VERTEX
8
CORTE INTERNO
10
840.5842
20
415.9706
30
0.0
0
VERTEX
8
CORTE INTERNO
10
832.7651
20
412.6594
30
0.0
0
VERTEX
8
CORTE INTERNO
10
824.8860
20
409.3266
30
0.0
0
VERTEX
8
CORTE INTERNO
10
816.9604
20
405.9782
30
0.0
0
VERTEX
8
CORTE INTERNO
10
809.0019
20
402.6202
30
0.0
0
VERTEX
8
CORTE INTERNO
10
801.0237
20
399.2586
30
0.0
0
VERTEX
8
CORTE INTERNO
10
793.0393
20
395.8995
30
0.0
0
VERTEX
8
CORTE INTERNO
10
785.0622
20
392.5489
30
0.0
0
VERTEX
8
CORTE INTERNO
10
777.1059
20
389.2127
30
0.0
0
VERTEX
8
CORTE INTERNO
10
769.1836
20
385.8971
30
0.0
0
VERTEX
8
CORTE INTERNO
10
761.3090
20
382.6079
30
0.0
0
VERTEX
8
CORTE INTERNO
10
753.4953
20
379.3512
30
0.0
0
VERTEX
8
CORTE INTERNO
10
745.7561
20
376.1331
30
0.0
0
VERTEX
8
CORTE INTERNO
10
738.1048
20
372.9596
30
0.0
0
VERTEX
8
CORTE INTERNO
10
730.5548
20
369.8366
30
0.0
0
VERTEX
8
CORTE INTERNO
10
723.1195
20
366.7701
30
0.0
0
VERTEX
8
CORTE INTERNO
10
715.8124
20
363.7663
30
0.0
0
VERTEX
8
CORTE INTERNO
10
708.6469
20
360.8310
30
0.0
0
VERTEX
8
CORTE INTERNO
10
701.6365
20
357.9704
30
0.0
0
VERTEX
8
CORTE INTERNO
10
694.7945
20
355.1904
30
0.0
0
VERTEX
8
CORTE INTERNO
10
688.1345
20
352.4971
30
0.0
0
VERTEX
8
CORTE INTERNO
10
681.6698
20
349.8964
30
0.0
0
VERTEX
8
CORTE INTERNO
10
675.4139
20
347.3944
30
0.0
0
VERTEX
8
CORTE INTERNO
10
669.3802
20
344.9970
30
0.0
0
VERTEX
8
CORTE INTERNO
10
663.5822
20
342.7104
30
0.0
0
VERTEX
8
CORTE INTERNO
10
658.0332
20
340.5405
30
0.0
0
VERTEX
8
CORTE INTERNO
10
652.7468
20
338.4933
30
0.0
0
VERTEX
8
CORTE INTERNO
10
647.7364
20
336.5748
30
0.0
0
VERTEX
8
CORTE INTERNO
10
643.0153
20
334.7911
30
0.0
0
VERTEX
8
CORTE INTERNO
10
638.5971
20
333.1482
30
0.0
0
VERTEX
8
CORTE INTERNO
10
634.4951
20
331.6520
30
0.0
0
VERTEX
8
CORTE INTERNO
10
630.7228
20
330.3087
30
0.0
0
VERTEX
8
CORTE INTERNO
10
627.2937
20
329.1241
30
0.0
0
VERTEX
8
CORTE INTERNO
10
624.2211
20
328.1044
30
0.0
0
VERTEX
8
CORTE INTERNO
10
621.5185
20
327.2555
30
0.0
0
VERTEX
8
CORTE INTERNO
10
619.1993
20
326.5835
30
0.0
0
VERTEX
8
CORTE INTERNO
10
617.2771
20
326.0943
30
0.0
0
VERTEX
8
CORTE INTERNO
10
615.7651
20
325.7940
30
0.0
0
VERTEX
8
CORTE INTERNO
10
614.6768
20
325.6886
30
0.0
0
VERTEX
8
CORTE INTERNO
10
613.7138
20
325.7497
30
0.0
0
VERTEX
8
CORTE INTERNO
10
612.4781
20
325.9412
30
0.0
0
VERTEX
8
CORTE INTERNO
10
610.9786
20
326.2592
30
0.0
0
VERTEX
8
CORTE INTERNO
10
609.2242
20
326.6995
30
0.0
0
VERTEX
8
CORTE INTERNO
10
607.2236
20
327.2582
30
0.0
0
VERTEX
8
CORTE INTERNO
10
604.9858
20
327.9312
30
0.0
0
VERTEX
8
CORTE INTERNO
10
602.5196
20
328.7145
30
0.0
0
VERTEX
8
CORTE INTERNO
10
599.8337
20
329.6039
30
0.0
0
VERTEX
8
CORTE INTERNO
10
596.9371
20
330.5954
30
0.0
0
VERTEX
8
CORTE INTERNO
10
593.8385
20
331.6850
30
0.0
0
VERTEX
8
CORTE INTERNO
10
590.5468
20
332.8687
30
0.0
0
VERTEX
8
CORTE INTERNO
10
587.0709
20
334.1423
30
0.0
0
VERTEX
8
CORTE INTERNO
10
583.4195
20
335.5018
30
0.0
0
VERTEX
8
CORTE INTERNO
10
579.6016
20
336.9432
30
0.0
0
VERTEX
8
CORTE INTERNO
10
575.6259
20
338.4624
30
0.0
0
VERTEX
8
CORTE INTERNO
10
571.5013
20
340.0553
30
0.0
0
VERTEX
8
CORTE INTERNO
10
567.2366
20
341.7180
30
0.0
0
VERTEX
8
CORTE INTERNO
10
562.8407
20
343.4463
30
0.0
0
VERTEX
8
CORTE INTERNO
10
558.3224
20
345.2362
30
0.0
0
VERTEX
8
CORTE INTERNO
10
553.6905
20
347.0837
30
0.0
0
VERTEX
8
CORTE INTERNO
10
548.9539
20
348.9847
30
0.0
0
VERTEX
8
CORTE INTERNO
10
544.1214
20
350.9351
30
0.0
0
VERTEX
8
CORTE INTERNO
10
539.2018
20
352.9309
30
0.0
0
VERTEX
8
CORTE INTERNO
10
534.2041
20
354.9680
30
0.0
0
VERTEX
8
CORTE INTERNO
10
529.1369
20
357.0424
30
0.0
0
VERTEX
8
CORTE INTERNO
10
524.0092
20
359.1500
30
0.0
0
VERTEX
8
CORTE INTERNO
10
518.8298
20
361.2869
30
0.0
0
VERTEX
8
CORTE INTERNO
10
513.6075
20
363.4488
30
0.0
0
VERTEX
8
CORTE INTERNO
10
508.3511
20
365.6318
30
0.0
0
VERTEX
8
CORTE INTERNO
10
503.0696
20
367.8319
30
0.0
0
VERTEX
8
CORTE INTERNO
10
497.7717
20
370.0449
30
0.0
0
VERTEX
8
CORTE INTERNO
10
492.4663
20
372.2668
30
0.0
0
VERTEX
8
CORTE INTERNO
10
487.1622
20
374.4935
30
0.0
0
VERTEX
8
CORTE INTERNO
10
481.8682
20
376.7211
30
0.0
0
VERTEX
8
CORTE INTERNO
10
476.5933
20
378.9455
30
0.0
0
VERTEX
8
CORTE INTERNO
10
471.3461
20
381.1625
30
0.0
0
VERTEX
8
CORTE INTERNO
10
466.1356
20
383.3682
30
0.0
0
VERTEX
8
CORTE INTERNO
10
460.9706
20
385.5585
30
0.0
0
VERTEX
8
CORTE INTERNO
10
455.8599
20
387.7293
30
0.0
0
VERTEX
8
CORTE INTERNO
10
450.8124
20
389.8766
30
0.0
0
VERTEX
8
CORTE INTERNO
10
445.8369
20
391.9964
30
0.0
0
VERTEX
8
CORTE INTERNO
10
440.9423
20
394.0845
30
0.0
0
VERTEX
8
CORTE INTERNO
10
436.1373
20
396.1370
30
0.0
0
VERTEX
8
CORTE INTERNO
10
431.4308
20
398.1497
30
0.0
0
VERTEX
8
CORTE INTERNO
10
426.8317
20
400.1187
30
0.0
0
VERTEX
8
CORTE INTERNO
10
422.3488
20
402.0398
30
0.0
0
VERTEX
8
CORTE INTERNO
10
417.9908
20
403.9091
30
0.0
0
VERTEX
8
CORTE INTERNO
10
413.7668
20
405.7224
30
0.0
0
VERTEX
8
CORTE INTERNO
10
409.6854
20
407.4758
30
0.0
0
VERTEX
8
CORTE INTERNO
10
405.7556
20
409.1651
30
0.0
0
VERTEX
8
CORTE INTERNO
10
401.9862
20
410.7863
30
0.0
0
VERTEX
8
CORTE INTERNO
10
398.3859
20
412.3354
30
0.0
0
VERTEX
8
CORTE INTERNO
10
394.9637
20
413.8083
30
0.0
0
VERTEX
8
CORTE INTERNO
10
391.7284
20
415.2009
30
0.0
0
VERTEX
8
CORTE INTERNO
10
388.6888
20
416.5093
30
0.0
0
VERTEX
8
CORTE INTERNO
10
385.8538
20
417.7292
30
0.0
0
VERTEX
8
CORTE INTERNO
10
383.2321
20
418.8568
30
0.0
0
VERTEX
8
CORTE INTERNO
10
380.8327
20
419.8879
30
0.0
0
VERTEX
8
CORTE INTERNO
10
378.6643
20
420.8185
30
0.0
0
VERTEX
8
CORTE INTERNO
10
376.7359
20
421.6445
30
0.0
0
VERTEX
8
CORTE INTERNO
10
375.0562
20
422.3620
30
0.0
0
VERTEX
8
CORTE INTERNO
10
373.6340
20
422.9667
30
0.0
0
VERTEX
8
CORTE INTERNO
10
372.4783
20
423.4547
30
0.0
0
VERTEX
8
CORTE INTERNO
10
371.5978
20
423.8219
30
0.0
0
VERTEX
8
CORTE INTERNO
10
146.3982
20
518.2387
30
0.0
0
VERTEX
8
CORTE INTERNO
10
145.1343
20
518.7378
30
0.0
0
VERTEX
8
CORTE INTERNO
10
143.9975
20
519.1651
30
0.0
0
VERTEX
8
CORTE INTERNO
10
142.9774
20
519.5302
30
0.0
0
VERTEX
8
CORTE INTERNO
10
142.0637
20
519.8432
30
0.0
0
VERTEX
8
CORTE INTERNO
10
141.2460
20
520.1139
30
0.0
0
VERTEX
8
CORTE INTERNO
10
140.5140
20
520.3521
30
0.0
0
VERTEX
8
CORTE INTERNO
10
139.8572
20
520.5677
30
0.0
0
VERTEX
8
CORTE INTERNO
10
139.2654
20
520.7705
30
0.0
0
VERTEX
8
CORTE INTERNO
10
138.7282
20
520.9704
30
0.0
0
VERTEX
8
CORTE INTERNO
10
138.2351
20
521.1773
30
0.0
0
VERTEX
8
CORTE INTERNO
10
137.7759
20
521.4010
30
0.0
0
VERTEX
8
CORTE INTERNO
10
137.3402
20
521.6514
30
0.0
0
VERTEX
8
CORTE INTERNO
10
136.9176
20
521.9383
30
0.0
0
VERTEX
8
CORTE INTERNO
10
136.4977
20
522.2716
30
0.0
0
VERTEX
8
CORTE INTERNO
10
136.0702
20
522.6612
30
0.0
0
VERTEX
8
CORTE INTERNO
10
135.6248
20
523.1169
30
0.0
0
VERTEX
8
CORTE INTERNO
10
135.1510
20
523.6486
30
0.0
0
VERTEX
8
CORTE INTERNO
10
134.6385
20
524.2661
30
0.0
0
VERTEX
8
CORTE INTERNO
10
134.0769
20
524.9793
30
0.0
0
VERTEX
8
CORTE INTERNO
10
133.4559
20
525.7980
30
0.0
0
SEQEND
8
CORTE INTERNO
0
POLYLINE
8
CORTE EXTERNO
66
1
70
1
0
VERTEX
8
CORTE EXTERNO
10
319.6180
20
526.7323
30
0.0
0
VERTEX
8
CORTE EXTERNO
10
319.7070
20
525.5922
30
0.0
0
VERTEX
8
CORTE EXTERNO
10
319.9692
20
524.4517
30
0.0
0
VERTEX
8
CORTE EXTERNO
10
320.3972
20
523.3117
30
0.0
0
VERTEX
8
CORTE EXTERNO
10
320.9834
20
522.1730
30
0.0
0
VERTEX
8
CORTE EXTERNO
10
321.7204
20
521.0365
30
0.0
0
VERTEX
8
CORTE EXTERNO
10
322.6008
20
519.9030
30
0.0
0
VERTEX
8
CORTE EXTERNO
10
323.6172
20
518.7735
30
0.0
0
VERTEX
8
CORTE EXTERNO
10
324.7621
20
517.6488
30
0.0
0
VERTEX
8
CORTE EXTERNO
10
326.0280
20
516.5297
30
0.0
0
VERTEX
8
CORTE EXTERNO
10
327.4076
20
515.4171
30
0.0
0
VERTEX
8
CORTE EXTERNO
10
328.8934
20
514.3119
30
0.0
0
VERTEX
8
CORTE EXTERNO
10
330.4780
20
513.2150
30
0.0
0
VERTEX
8
CORTE EXTERNO
10
332.1539
20
512.1271
30
0.0
0
VERTEX
8
CORTE EXTERNO
10
333.9136
20
511.0493
30
0.0
0
VERTEX
8
CORTE EXTERNO
10
335.7498
20
509.9823
30
0.0
0
VERTEX
8
CORTE EXTERNO
10
337.6550
20
508.9270
30
0.0
0
VERTEX
8
CORTE EXTERNO
10
339.6218
20
507.8842
30
0.0
0
VERTEX
8
CORTE EXTERNO
10
341.6426
20
506.8550
30
0.0
0
VERTEX
8
CORTE EXTERNO
10
343.7102
20
505.8400
30
0.0
0
VERTEX
8
CORTE EXTERNO
10
345.8170
20
504.8401
30
0.0
0
VERTEX
8
CORTE EXTERNO
10
347.9556
20
503.8564
30
0.0
0
VERTEX
8
CORTE EXTERNO
10
350.1186
20
502.8895
30
0.0
0
VERTEX
8
CORTE EXTERNO
10
352.2985
20
501.9403
30
0.0
0
VERTEX
8
CORTE EXTERNO
10
354.4878
20
501.0099
30
0.0
0
VERTEX
8
CORTE EXTERNO
10
356.6793
20
500.0988
30
0.0
0
VERTEX
8
CORTE EXTERNO
10
358.8653
20
499.2082
30
0.0
0
VERTEX
8
CORTE EXTERNO
10
361.0385
20
498.3388
30
0.0
0
VERTEX
8
CORTE EXTERNO
10
363.1914
20
497.4915
30
0.0
0
VERTEX
8
CORTE EXTERNO
10
365.3166
20
496.6671
30
0.0
0
VERTEX
8
CORTE EXTERNO
10
367.4067
20
495.8665
30
0.0
0
VERTEX
8
CORTE EXTERNO
10
369.4542
20
495.0907
30
0.0
0
VERTEX
8
CORTE EXTERNO
10
371.4516
20
494.3403
30
0.0
0
VERTEX
8
CORTE EXTERNO
10
373.3916
20
493.6164
30
0.0
0
VERTEX
8
CORTE EXTERNO
10
375.2666
20
492.9198
30
0.0
0
VERTEX
8
CORTE EXTERNO
10
377.0694
20
492.2513
30
0.0
0
VERTEX
8
CORTE EXTERNO
10
378.7923
20
491.6118
30
0.0
0
VERTEX
8
CORTE EXTERNO
10
380.4280
20
491.0022
30
0.0
0
VERTEX
8
CORTE EXTERNO
10
381.9690
20
490.4234
30
0.0
0
VERTEX
8
CORTE EXTERNO
10
383.4079
20
489.8761
30
0.0
0
VERTEX
8
CORTE EXTERNO
10
384.7373
20
489.3613
30
0.0
0
VERTEX
8
CORTE EXTERNO
10
385.9497
20
488.8799
30
0.0
0
VERTEX
8
CORTE EXTERNO
10
387.0377
20
488.4327
30
0.0
0
VERTEX
8
CORTE EXTERNO
10
388.9432
20
487.6329
30
0.0
0
VERTEX
8
CORTE EXTERNO
10
390.8374
20
486.8391
30
0.0
0
VERTEX
8
CORTE EXTERNO
10
392.7207
20
486.0508
30
0.0
0
VERTEX
8
CORTE EXTERNO
10
394.5938
20
485.2679
30
0.0
0
VERTEX
8
CORTE EXTERNO
10
396.4571
20
484.4900
30
0.0
0
VERTEX
8
CORTE EXTERNO
10
398.3111
20
483.7168
30
0.0
0
VERTEX
8
CORTE EXTERNO
10
400.1565
20
482.9480
30
0.0
0
VERTEX
8
CORTE EXTERNO
10
401.9937
20
482.1832
30
0.0
0
VERTEX
8
CORTE EXTERNO
10
403.8232
20
481.4222
30
0.0
0
VERTEX
8
CORTE EXTERNO
10
405.6457
20
480.6647
30
0.0
0
VERTEX
8
CORTE EXTERNO
10
407.4616
20
479.9102
30
0.0
0
VERTEX
8
CORTE EXTERNO
10
409.2715
20
479.1587
30
0.0
0
VERTEX
8
CORTE EXTERNO
10
411.0759
20
478.4096
30
0.0
0
VERTEX
8
CORTE EXTERNO
10
412.8753
20
477.6628
30
0.0
0
VERTEX
8
CORTE EXTERNO
10
414.6702
20
476.9178
30
0.0
0
VERTEX
8
CORTE EXTERNO
10
416.4613
20
476.1744
30
0.0
0
VERTEX
8
CORTE EXTERNO
10
418.2490
20
475.4324
30
0.0
0
VERTEX
8
CORTE EXTERNO
10
420.0338
20
474.6913
30
0.0
0
VERTEX
8
CORTE EXTERNO
10
421.8164
20
473.9508
30
0.0
0
VERTEX
8
CORTE EXTERNO
10
423.5971
20
473.2107
30
0.0
0
VERTEX
8
CORTE EXTERNO
10
425.3766
20
472.4707
30
0.0
0
VERTEX
8
CORTE EXTERNO
10
427.1554
20
471.7304
30
0.0
0
VERTEX
8
CORTE EXTERNO
10
428.9341
20
470.9895
30
0.0
0
VERTEX
8
CORTE EXTERNO
10
430.7131
20
470.2477
30
0.0
0
VERTEX
8
CORTE EXTERNO
10
432.4929
20
469.5047
30
0.0
0
VERTEX
8
CORTE EXTERNO
10
434.2742
20
468.7602
30
0.0
0
VERTEX
8
CORTE EXTERNO
10
436.0575
20
468.0139
30
0.0
0
VERTEX
8
CORTE EXTERNO
10
437.8432
20
467.2654
30
0.0
0
VERTEX
8
CORTE EXTERNO
10
439.6319
20
466.5145
30
0.0
0
VERTEX
8
CORTE EXTERNO
10
441.4242
20
465.7609
30
0.0
0
VERTEX
8
CORTE EXTERNO
10
443.2206
20
465.0042
30
0.0
0
VERTEX
8
CORTE EXTERNO
10
445.0215
20
464.2442
30
0.0
0
VERTEX
8
CORTE EXTERNO
10
446.8276
20
463.4804
30
0.0
0
VERTEX
8
CORTE EXTERNO
10
448.6394
20
462.7127
30
0.0
0
VERTEX
8
CORTE EXTERNO
10
450.4574
20
461.9407
30
0.0
0
VERTEX
8
CORTE EXTERNO
10
452.2822
20
461.1640
30
0.0
0
VERTEX
8
CORTE EXTERNO
10
454.1142
20
460.3825
30
0.0
0
VERTEX
8
CORTE EXTERNO
10
455.9540
20
459.5957
30
0.0
0
VERTEX
8
CORTE EXTERNO
10
457.8022
20
458.8034
30
0.0
0
VERTEX
8
CORTE EXTERNO
10
459.6592
20
458.0052
30
0.0
0
VERTEX
8
CORTE EXTERNO
10
461.5257
20
457.2009
30
0.0
0
VERTEX
8
CORTE EXTERNO
10
463.3795
20
456.4022
30
0.0
0
VERTEX
8
CORTE EXTERNO
10
465.2321
20
455.6063
30
0.0
0
VERTEX
8
CORTE EXTERNO
10
467.0835
20
454.8133
30
0.0
0
VERTEX
8
CORTE EXTERNO
10
468.9336
20
454.0230
30
0.0
0
VERTEX
8
CORTE EXTERNO
10
470.7824
20
453.2355
30
0.0
0
VERTEX
8
CORTE EXTERNO
10
472.6300
20
452.4506
30
0.0
0
VERTEX
8
CORTE EXTERNO
10
474.4762
20
451.6683
30
0.0
0
VERTEX
8
CORTE EXTERNO
10
476.3211
20
450.8887
30
0.0
0
VERTEX
8
CORTE EXTERNO
10
478.1646
20
450.1115
30
0.0
0
VERTEX
8
CORTE EXTERNO
10
480.0068
20
449.3369
30
0.0
0
VERTEX
8
CORTE EXTERNO
10
481.8477
20
448.5647
30
0.0
0
VERTEX
8
CORTE EXTERNO
10
483.6871
20
447.7949
30
0.0
0
VERTEX
8
CORTE EXTERNO
10
485.5251
20
447.0274
30
0.0
0
VERTEX
8
CORTE EXTERNO
10
487.3617
20
446.2622
30
0.0
0
VERTEX
8
CORTE EXTERNO
10
489.1968
20
445.4993
30
0.0
0
VERTEX
8
CORTE EXTERNO
10
491.0305
20
444.7387
30
0.0
0
VERTEX
8
CORTE EXTERNO
10
492.8627
20
443.9801
30
0.0
0
VERTEX
8
CORTE EXTERNO
10
494.6934
20
443.2237
30
0.0
0
VERTEX
8
CORTE EXTERNO
10
496.5226
20
442.4694
30
0.0
0
VERTEX
8
CORTE EXTERNO
10
498.3503
20
441.7171
30
0.0
0
VERTEX
8
CORTE EXTERNO
10
500.1765
20
440.9668
30
0.0
0
VERTEX
8
CORTE EXTERNO
10
502.0011
20
440.2184
30
0.0
0
VERTEX
8
CORTE EXTERNO
10
503.8241
20
439.4719
30
0.0
0
VERTEX
8
CORTE EXTERNO
10
505.6455
20
438.7273
30
0.0
0
VERTEX
8
CORTE EXTERNO
10
507.4653
20
437.9844
30
0.0
0
VERTEX
8
CORTE EXTERNO
10
509.2835
20
437.2433
30
0.0
0
VERTEX
8
CORTE EXTERNO
10
511.1001
20
436.5039
30
0.0
0
VERTEX
8
CORTE EXTERNO
10
512.9150
20
435.7662
30
0.0
0
VERTEX
8
CORTE EXTERNO
10
514.7282
20
435.0301
30
0.0
0
VERTEX
8
CORTE EXTERNO
10
516.5398
20
434.2955
30
0.0
0
VERTEX
8
CORTE EXTERNO
10
518.3496
20
433.5625
30
0.0
0
VERTEX
8
CORTE EXTERNO
10
520.1578
20
432.8309
30
0.0
0
VERTEX
8
CORTE EXTERNO
10
521.9642
20
432.1008
30
0.0
0
VERTEX
8
CORTE EXTERNO
10
523.7688
20
431.3721
30
0.0
0
VERTEX
8
CORTE EXTERNO
10
525.5717
20
430.6447
30
0.0
0
VERTEX
8
CORTE EXTERNO
10
527.3728
20
429.9185
30
0.0
0
VERTEX
8
CORTE EXTERNO
10
529.1721
20
429.1937
30
0.0
0
VERTEX
8
CORTE EXTERNO
10
530.9695
20
428.4700
30
0.0
0
VERTEX
8
CORTE EXTERNO
10
532.7652
20
427.7475
30
0.0
0
VERTEX
8
CORTE EXTERNO
10
534.5590
20
427.0260
30
0.0
0
VERTEX
8
CORTE EXTERNO
10
536.3509
20
426.3057
30
0.0
0
VERTEX
8
CORTE EXTERNO
10
540.7533
20
424.5242
30
0.0
0
VERTEX
8
CORTE EXTERNO
10
544.9657
20
422.7967
30
0.0
0
VERTEX
8
CORTE EXTERNO
10
548.9941
20
421.1234
30
0.0
0
VERTEX
8
CORTE EXTERNO
10
552.8447
20
419.5043
30
0.0
0
VERTEX
8
CORTE EXTERNO
10
556.5236
20
417.9395
30
0.0
0
VERTEX
8
CORTE EXTERNO
10
560.0371
20
416.4292
30
0.0
0
VERTEX
8
CORTE EXTERNO
10
563.3912
20
414.9735
30
0.0
0
VERTEX
8
CORTE EXTERNO
10
566.5921
20
413.5724
30
0.0
0
VERTEX
8
CORTE EXTERNO
10
569.6460
20
412.2260
30
0.0
0
VERTEX
8
CORTE EXTERNO
10
572.5590
20
410.9345
30
0.0
0
VERTEX
8
CORTE EXTERNO
10
575.3372
20
409.6980
30
0.0
0
VERTEX
8
CORTE EXTERNO
10
577.9869
20
408.5166
30
0.0
0
VERTEX
8
CORTE EXTERNO
10
580.5141
20
407.3904
30
0.0
0
VERTEX
8
CORTE EXTERNO
10
582.9251
20
406.3195
30
0.0
0
VERTEX
8
CORTE EXTERNO
10
585.2259
20
405.3039
30
0.0
0
VERTEX
8
CORTE EXTERNO
10
587.4228
20
404.3439
30
0.0
0
VERTEX
8
CORTE EXTERNO
10
589.5219
20
403.4394
30
0.0
0
VERTEX
8
CORTE EXTERNO
10
591.5293
20
402.5907
30
0.0
0
VERTEX
8
CORTE EXTERNO
10
593.4511
20
401.7978
30
0.0
0
VERTEX
8
CORTE EXTERNO
10
595.2937
20
401.0609
30
0.0
0
VERTEX
8
CORTE EXTERNO
10
597.0630
20
400.3799
30
0.0
0
VERTEX
8
CORTE EXTERNO
10
598.7652
20
399.7551
30
0.0
0
VERTEX
8
CORTE EXTERNO
10
600.4066
20
399.1866
30
0.0
0
VERTEX
8
CORTE EXTERNO
10
601.9932
20
398.6743
30
0.0
0
VERTEX
8
CORTE EXTERNO
10
603.5311
20
398.2186
30
0.0
0
VERTEX
8
CORTE EXTERNO
10
605.0267
20
397.8194
30
0.0
0
VERTEX
8
CORTE EXTERNO
10
606.4859
20
397.4769
30
0.0
0
VERTEX
8
CORTE EXTERNO
10
607.9151
20
397.1911
30
0.0
0
VERTEX
8
CORTE EXTERNO
10
609.3202
20
396.9622
30
0.0
0
VERTEX
8
CORTE EXTERNO
10
610.7075
20
396.7903
30
0.0
0
VERTEX
8
CORTE EXTERNO
10
612.0831
20
396.6755
30
0.0
0
VERTEX
8
CORTE EXTERNO
10
613.4531
20
396.6179
30
0.0
0
VERTEX
8
CORTE EXTERNO
10
614.8238
20
396.6176
30
0.0
0
VERTEX
8
CORTE EXTERNO
10
616.2013
20
396.6747
30
0.0
0
VERTEX
8
CORTE EXTERNO
10
617.5917
20
396.7893
30
0.0
0
VERTEX
8
CORTE EXTERNO
10
619.0011
20
396.9615
30
0.0
0
VERTEX
8
CORTE EXTERNO
10
620.4358
20
397.1915
30
0.0
0
VERTEX
8
CORTE EXTERNO
10
621.9019
20
397.4792
30
0.0
0
VERTEX
8
CORTE EXTERNO
10
623.4055
20
397.8250
30
0.0
0
VERTEX
8
CORTE EXTERNO
10
624.9528
20
398.2287
30
0.0
0
VERTEX
8
CORTE EXTERNO
10
626.5499
20
398.6906
30
0.0
0
VERTEX
8
CORTE EXTERNO
10
628.2031
20
399.2107
30
0.0
0
VERTEX
8
CORTE EXTERNO
10
629.9183
20
399.7893
30
0.0
0
VERTEX
8
CORTE EXTERNO
10
631.7019
20
400.4262
30
0.0
0
VERTEX
8
CORTE EXTERNO
10
633.5599
20
401.1218
30
0.0
0
VERTEX
8
CORTE EXTERNO
10
635.4985
20
401.8760
30
0.0
0
VERTEX
8
CORTE EXTERNO
10
637.5239
20
402.6890
30
0.0
0
VERTEX
8
CORTE EXTERNO
10
639.6422
20
403.5609
30
0.0
0
VERTEX
8
CORTE EXTERNO
10
641.8595
20
404.4917
30
0.0
0
VERTEX
8
CORTE EXTERNO
10
644.1821
20
405.4817
30
0.0
0
VERTEX
8
CORTE EXTERNO
10
646.6160
20
406.5309
30
0.0
0
VERTEX
8
CORTE EXTERNO
10
649.1674
20
407.6394
30
0.0
0
VERTEX
8
CORTE EXTERNO
10
651.8425
20
408.8073
30
0.0
0
VERTEX
8
CORTE EXTERNO
10
654.6474
20
410.0347
30
0.0
0
VERTEX
8
CORTE EXTERNO
10
657.5883
20
411.3217
30
0.0
0
VERTEX
8
CORTE EXTERNO
10
660.6714
20
412.6685
30
0.0
0
VERTEX
8
CORTE EXTERNO
10
663.9027
20
414.0751
30
0.0
0
VERTEX
8
CORTE EXTERNO
10
667.2884
20
415.5417
30
0.0
0
VERTEX
8
CORTE EXTERNO
10
670.8347
20
417.0683
30
0.0
0
VERTEX
8
CORTE EXTERNO
10
674.5478
20
418.6550
30
0.0
0
VERTEX
8
CORTE EXTERNO
10
678.4337
20
420.3021
30
0.0
0
VERTEX
8
CORTE EXTERNO
10
682.4987
20
422.0095
30
0.0
0
VERTEX
8
CORTE EXTERNO
10
686.7489
20
423.7773
30
0.0
0
VERTEX
8
CORTE EXTERNO
10
691.1904
20
425.6058
30
0.0
0
VERTEX
8
CORTE EXTERNO
10
878.5598
20
503.7644
30
0.0
0
VERTEX
8
CORTE EXTERNO
10
879.6734
20
504.2473
30
0.0
0
VERTEX
8
CORTE EXTERNO
10
880.8352
20
504.7281
30
0.0
0
VERTEX
8
CORTE EXTERNO
10
882.0395
20
505.2086
30
0.0
0
VERTEX
8
CORTE EXTERNO
10
883.2805
20
505.6908
30
0.0
0
VERTEX
8
CORTE EXTERNO
10
884.5525
20
506.1769
30
0.0
0
VERTEX
8
CORTE EXTERNO
10
885.8498
20
506.6687
30
0.0
0
VERTEX
8
CORTE EXTERNO
10
887.1666
20
507.1683
30
0.0
0
VERTEX
8
CORTE EXTERNO
10
888.4972
20
507.6778
30
0.0
0
VERTEX
8
CORTE EXTERNO
10
889.8357
20
508.1990
30
0.0
0
VERTEX
8
CORTE EXTERNO
10
891.1766
20
508.7341
30
0.0
0
VERTEX
8
CORTE EXTERNO
10
892.5139
20
509.2851
30
0.0
0
VERTEX
8
CORTE EXTERNO
10
893.8421
20
509.8540
30
0.0
0
VERTEX
8
CORTE EXTERNO
10
895.1553
20
510.4427
30
0.0
0
VERTEX
8
CORTE EXTERNO
10
896.4477
20
511.0533
30
0.0
0
VERTEX
8
CORTE EXTERNO
10
897.7137
20
511.6878
30
0.0
0
VERTEX
8
CORTE EXTERNO
10
898.9475
20
512.3482
30
0.0
0
VERTEX
8
CORTE EXTERNO
10
900.1433
20
513.0365
30
0.0
0
VERTEX
8
CORTE EXTERNO
10
901.2955
20
513.7548
30
0.0
0
VERTEX
8
CORTE EXTERNO
10
902.3981
20
514.5050
30
0.0
0
VERTEX
8
CORTE EXTERNO
10
903.4456
20
515.2892
30
0.0
0
VERTEX
8
CORTE EXTERNO
10
904.4322
20
516.1094
30
0.0
0
VERTEX
8
CORTE EXTERNO
10
905.3520
20
516.9675
30
0.0
0
VERTEX
8
CORTE EXTERNO
10
906.1995
20
517.8657
30
0.0
0
VERTEX
8
CORTE EXTERNO
10
906.9687
20
518.8059
30
0.0
0
VERTEX
8
CORTE EXTERNO
10
907.6541
20
519.7900
30
0.0
0
VERTEX
8
CORTE EXTERNO
10
908.2497
20
520.8203
30
0.0
0
VERTEX
8
CORTE EXTERNO
10
908.7500
20
521.8985
30
0.0
0
VERTEX
8
CORTE EXTERNO
10
909.1490
20
523.0269
30
0.0
0
VERTEX
8
CORTE EXTERNO
10
909.4412
20
524.2073
30
0.0
0
VERTEX
8
CORTE EXTERNO
10
909.6207
20
525.4417
30
0.0
0
VERTEX
8
CORTE EXTERNO
10
909.6819
20
526.7323
30
0.0
0
VERTEX
8
CORTE EXTERNO
10
909.6190
20
528.0494
30
0.0
0
VERTEX
8
CORTE EXTERNO
10
909.4346
20
529.3054
30
0.0
0
VERTEX
8
CORTE EXTERNO
10
909.1349
20
530.5026
30
0.0
0
VERTEX
8
CORTE EXTERNO
10
908.7260
20
531.6432
30
0.0
0
VERTEX
8
CORTE EXTERNO
10
908.2142
20
532.7295
30
0.0
0
VERTEX
8
CORTE EXTERNO
10
907.6057
20
533.7638
30
0.0
0
VERTEX
8
CORTE EXTERNO
10
906.9066
20
534.7482
30
0.0
0
VERTEX
8
CORTE EXTERNO
10
906.1232
20
535.6851
30
0.0
0
VERTEX
8
CORTE EXTERNO
10
905.2617
20
536.5766
30
0.0
0
VERTEX
8
CORTE EXTERNO
10
904.3283
20
537.4250
30
0.0
0
VERTEX
8
CORTE EXTERNO
10
903.3292
20
538.2325
30
0.0
0
VERTEX
8
CORTE EXTERNO
10
902.2706
20
539.0015
30
0.0
0
VERTEX
8
CORTE EXTERNO
10
901.1587
20
539.7340
30
0.0
0
VERTEX
8
CORTE EXTERNO
10
899.9997
20
540.4324
30
0.0
0
VERTEX
8
CORTE EXTERNO
10
898.7998
20
541.0990
30
0.0
0
VERTEX
8
CORTE EXTERNO
10
897.5653
20
541.7359
30
0.0
0
VERTEX
8
CORTE EXTERNO
10
896.3022
20
542.3454
30
0.0
0
VERTEX
8
CORTE EXTERNO
10
895.0169
20
542.9297
30
0.0
0
VERTEX
8
CORTE EXTERNO
10
893.7155
20
543.4911
30
0.0
0
VERTEX
8
CORTE EXTERNO
10
892.4043
20
544.0319
30
0.0
0
VERTEX
8
CORTE EXTERNO
10
891.0894
20
544.5542
30
0.0
0
VERTEX
8
CORTE EXTERNO
10
889.7771
20
545.0603
30
0.0
0
VERTEX
8
CORTE EXTERNO
10
888.4735
20
545.5525
30
0.0
0
VERTEX
8
CORTE EXTERNO
10
887.1848
20
546.0330
30
0.0
0
VERTEX
8
CORTE EXTERNO
10
885.9173
20
546.5040
30
0.0
0
VERTEX
8
CORTE EXTERNO
10
884.6772
20
546.9678
30
0.0
0
VERTEX
8
CORTE EXTERNO
10
883.4707
20
547.4266
30
0.0
0
VERTEX
8
CORTE EXTERNO
10
882.3039
20
547.8828
30
0.0
0
VERTEX
8
CORTE EXTERNO
10
881.1831
20
548.3384
30
0.0
0
VERTEX
8
CORTE EXTERNO
10
880.1145
20
548.7957
30
0.0
0
VERTEX
8
CORTE EXTERNO
10
878.3033
20
549.5930
30
0.0
0
VERTEX
8
CORTE EXTERNO
10
876.2380
20
550.4986
30
0.0
0
VERTEX
8
CORTE EXTERNO
10
873.9271
20
551.5087
30
0.0
0
VERTEX
8
CORTE EXTERNO
10
871.3793
20
552.6193
30
0.0
0
VERTEX
8
CORTE EXTERNO
10
868.6034
20
553.8267
30
0.0
0
VERTEX
8
CORTE EXTERNO
10
865.6078
20
555.1269
30
0.0
0
VERTEX
8
CORTE EXTERNO
10
862.4014
20
556.5161
30
0.0
0
VERTEX
8
CORTE EXTERNO
10
858.9926
20
557.9905
30
0.0
0
VERTEX
8
CORTE EXTERNO
10
855.3903
20
559.5460
30
0.0
0
VERTEX
8
CORTE EXTERNO
10
851.6029
20
561.1790
30
0.0
0
VERTEX
8
CORTE EXTERNO
10
847.6393
20
562.8855
30
0.0
0
VERTEX
8
CORTE EXTERNO
10
843.5080
20
564.6616
30
0.0
0
VERTEX
8
CORTE EXTERNO
10
839.2176
20
566.5034
30
0.0
0
VERTEX
8
CORTE EXTERNO
10
834.7769
20
568.4072
30
0.0
0
VERTEX
8
CORTE EXTERNO
10
830.1945
20
570.3691
30
0.0
0
VERTEX
8
CORTE EXTERNO
10
825.4790
20
572.3851
30
0.0
0
VERTEX
8
CORTE EXTERNO
10
820.6391
20
574.4514
30
0.0
0
VERTEX
8
CORTE EXTERNO
10
815.6834
20
576.5641
30
0.0
0
VERTEX
8
CORTE EXTERNO
10
810.6206
20
578.7194
30
0.0
0
VERTEX
8
CORTE EXTERNO
10
805.4594
20
580.9134
30
0.0
0
VERTEX
8
CORTE EXTERNO
10
800.2083
20
583.1422
30
0.0
0
VERTEX
8
CORTE EXTERNO
10
794.8760
20
585.4020
30
0.0
0
VERTEX
8
CORTE EXTERNO
10
789.4712
20
587.6888
30
0.0
0
VERTEX
8
CORTE EXTERNO
10
784.0026
20
589.9989
30
0.0
0
VERTEX
8
CORTE EXTERNO
10
778.4787
20
592.3284
30
0.0
0
VERTEX
8
CORTE EXTERNO
10
772.9083
20
594.6733
30
0.0
0
VERTEX
8
CORTE EXTERNO
10
767.3000
20
597.0299
30
0.0
0
VERTEX
8
CORTE EXTERNO
10
761.6624
20
599.3942
30
0.0
0
VERTEX
8
CORTE EXTERNO
10
756.0041
20
601.7624
30
0.0
0
VERTEX
8
CORTE EXTERNO
10
750.3340
20
604.1306
30
0.0
0
VERTEX
8
CORTE EXTERNO
10
744.6604
20
606.4949
30
0.0
0
VERTEX
8
CORTE EXTERNO
10
738.9923
20
608.8516
30
0.0
0
VERTEX
8
CORTE EXTERNO
10
733.3381
20
611.1966
30
0.0
0
VERTEX
8
CORTE EXTERNO
10
727.7065
20
613.5262
30
0.0
0
VERTEX
8
CORTE EXTERNO
10
722.1063
20
615.8364
30
0.0
0
VERTEX
8
CORTE EXTERNO
10
716.5459
20
618.1235
30
0.0
0
VERTEX
8
CORTE EXTERNO
10
711.0342
20
620.3835
30
0.0
0
VERTEX
8
CORTE EXTERNO
10
705.5797
20
622.6125
30
0.0
0
VERTEX
8
CORTE EXTERNO
10
700.1911
20
624.8068
30
0.0
0
VERTEX
8
CORTE EXTERNO
10
694.8770
20
626.9624
30
0.0
0
VERTEX
8
CORTE EXTERNO
10
689.6461
20
629.0754
30
0.0
0
VERTEX
8
CORTE EXTERNO
10
684.5070
20
631.1421
30
0.0
0
VERTEX
8
CORTE EXTERNO
10
679.4684
20
633.1584
30
0.0
0
VERTEX
8
CORTE EXTERNO
10
674.5390
20
635.1207
30
0.0
0
VERTEX
8
CORTE EXTERNO
10
669.7273
20
637.0249
30
0.0
0
VERTEX
8
CORTE EXTERNO
10
665.0421
20
638.8672
30
0.0
0
VERTEX
8
CORTE EXTERNO
10
660.4920
20
640.6438
30
0.0
0
VERTEX
8
CORTE EXTERNO
10
656.0856
20
642.3508
30
0.0
0
VERTEX
8
CORTE EXTERNO
10
651.8316
20
643.9843
30
0.0
0
VERTEX
8
CORTE EXTERNO
10
647.7386
20
645.5404
30
0.0
0
VERTEX
8
CORTE EXTERNO
10
643.8154
20
647.0153
30
0.0
0
VERTEX
8
CORTE EXTERNO
10
640.0704
20
648.4052
30
0.0
0
VERTEX
8
CORTE EXTERNO
10
636.5125
20
649.7061
30
0.0
0
VERTEX
8
CORTE EXTERNO
10
633.1502
20
650.9141
30
0.0
0
VERTEX
8
CORTE EXTERNO
10
629.9922
20
652.0255
30
0.0
0
VERTEX
8
CORTE EXTERNO
10
627.0471
20
653.0363
30
0.0
0
VERTEX
8
CORTE EXTERNO
10
624.3236
20
653.9426
30
0.0
0
VERTEX
8
CORTE EXTERNO
10
621.8304
20
654.7407
30
0.0
0
VERTEX
8
CORTE EXTERNO
10
619.5760
20
655.4266
30
0.0
0
VERTEX
8
CORTE EXTERNO
10
617.5692
20
655.9965
30
0.0
0
VERTEX
8
CORTE EXTERNO
10
615.8186
20
656.4464
30
0.0
0
VERTEX
8
CORTE EXTERNO
10
614.3328
20
656.7726
30
0.0
0
VERTEX
8
CORTE EXTERNO
10
613.1205
20
656.9712
30
0.0
0
VERTEX
8
CORTE EXTERNO
10
612.1904
20
657.0382
30
0.0
0
VERTEX
8
CORTE EXTERNO
10
611.5715
20
656.9938
30
0.0
0
VERTEX
8
CORTE EXTERNO
10
610.7817
20
656.8631
30
0.0
0
VERTEX
8
CORTE EXTERNO
10
609.8293
20
656.6503
30
0.0
0
VERTEX
8
CORTE EXTERNO
10
608.7227
20
656.3593
30
0.0
0
VERTEX
8
CORTE EXTERNO
10
607.4704
20
655.9940
30
0.0
0
VERTEX
8
CORTE EXTERNO
10
606.0807
20
655.5586
30
0.0
0
VERTEX
8
CORTE EXTERNO
10
604.5621
20
655.0570
30
0.0
0
VERTEX
8
CORTE EXTERNO
10
602.9230
20
654.4933
30
0.0
0
VERTEX
8
CORTE EXTERNO
10
601.1718
20
653.8713
30
0.0
0
VERTEX
8
CORTE EXTERNO
10
599.3170
20
653.1952
30
0.0
0
VERTEX
8
CORTE EXTERNO
10
597.3668
20
652.4689
30
0.0
0
VERTEX
8
CORTE EXTERNO
10
595.3298
20
651.6965
30
0.0
0
VERTEX
8
CORTE EXTERNO
10
593.2144
20
650.8818
30
0.0
0
VERTEX
8
CORTE EXTERNO
10
591.0290
20
650.0291
30
0.0
0
VERTEX
8
CORTE EXTERNO
10
588.7819
20
649.1422
30
0.0
0
VERTEX
8
CORTE EXTERNO
10
586.4816
20
648.2251
30
0.0
0
VERTEX
8
CORTE EXTERNO
10
584.1366
20
647.2819
30
0.0
0
VERTEX
8
CORTE EXTERNO
10
581.7552
20
646.3165
30
0.0
0
VERTEX
8
CORTE EXTERNO
10
579.3459
20
645.3330
30
0.0
0
VERTEX
8
CORTE EXTERNO
10
576.9170
20
644.3354
30
0.0
0
VERTEX
8
CORTE EXTERNO
10
574.4770
20
643.3276
30
0.0
0
VERTEX
8
CORTE EXTERNO
10
572.0343
20
642.3137
30
0.0
0
VERTEX
8
CORTE EXTERNO
10
569.5973
20
641.2977
30
0.0
0
VERTEX
8
CORTE EXTERNO
10
567.1744
20
640.2835
30
0.0
0
VERTEX
8
CORTE EXTERNO
10
564.7741
20
639.2753
30
0.0
0
VERTEX
8
CORTE EXTERNO
10
562.4047
20
638.2769
30
0.0
0
VERTEX
8
CORTE EXTERNO
10
560.0747
20
637.2925
30
0.0
0
VERTEX
8
CORTE EXTERNO
10
557.7924
20
636.3259
30
0.0
0
VERTEX
8
CORTE EXTERNO
10
555.5664
20
635.3812
30
0.0
0
VERTEX
8
CORTE EXTERNO
10
553.4049
20
634.4624
30
0.0
0
VERTEX
8
CORTE EXTERNO
10
551.3165
20
633.5735
30
0.0
0
VERTEX
8
CORTE EXTERNO
10
549.3095
20
632.7186
30
0.0
0
VERTEX
8
CORTE EXTERNO
10
547.3924
20
631.9015
30
0.0
0
VERTEX
8
CORTE EXTERNO
10
545.5735
20
631.1264
30
0.0
0
VERTEX
8
CORTE EXTERNO
10
543.8613
20
630.3972
30
0.0
0
VERTEX
8
CORTE EXTERNO
10
542.2643
20
629.7179
30
0.0
0
VERTEX
8
CORTE EXTERNO
10
540.7907
20
629.0925
30
0.0
0
VERTEX
8
CORTE EXTERNO
10
539.4490
20
628.5251
30
0.0
0
VERTEX
8
CORTE EXTERNO
10
538.2477
20
628.0196
30
0.0
0
VERTEX
8
CORTE EXTERNO
10
537.1951
20
627.5801
30
0.0
0
VERTEX
8
CORTE EXTERNO
10
536.2997
20
627.2105
30
0.0
0
VERTEX
8
CORTE EXTERNO
10
534.5186
20
626.4794
30
0.0
0
VERTEX
8
CORTE EXTERNO
10
532.7328
20
625.7431
30
0.0
0
VERTEX
8
CORTE EXTERNO
10
530.9424
20
625.0019
30
0.0
0
VERTEX
8
CORTE EXTERNO
10
529.1477
20
624.2562
30
0.0
0
VERTEX
8
CORTE EXTERNO
10
527.3490
20
623.5061
30
0.0
0
VERTEX
8
CORTE EXTERNO
10
525.5465
20
622.7519
30
0.0
0
VERTEX
8
CORTE EXTERNO
10
523.7404
20
621.9940
30
0.0
0
VERTEX
8
CORTE EXTERNO
10
521.9309
20
621.2325
30
0.0
0
VERTEX
8
CORTE EXTERNO
10
520.1183
20
620.4678
30
0.0
0
VERTEX
8
CORTE EXTERNO
10
518.3028
20
619.7002
30
0.0
0
VERTEX
8
CORTE EXTERNO
10
516.4847
20
618.9299
30
0.0
0
VERTEX
8
CORTE EXTERNO
10
514.6640
20
618.1572
30
0.0
0
VERTEX
8
CORTE EXTERNO
10
512.8412
20
617.3824
30
0.0
0
VERTEX
8
CORTE EXTERNO
10
511.0164
20
616.6058
30
0.0
0
VERTEX
8
CORTE EXTERNO
10
509.1899
20
615.8276
30
0.0
0
VERTEX
8
CORTE EXTERNO
10
507.3618
20
615.0480
30
0.0
0
VERTEX
8
CORTE EXTERNO
10
505.5325
20
614.2675
30
0.0
0
VERTEX
8
CORTE EXTERNO
10
503.7021
20
613.4863
30
0.0
0
VERTEX
8
CORTE EXTERNO
10
501.8708
20
612.7045
30
0.0
0
VERTEX
8
CORTE EXTERNO
10
500.0390
20
611.9226
30
0.0
0
VERTEX
8
CORTE EXTERNO
10
498.2068
20
611.1408
30
0.0
0
VERTEX
8
CORTE EXTERNO
10
496.3744
20
610.3593
30
0.0
0
VERTEX
8
CORTE EXTERNO
10
494.5422
20
609.5785
30
0.0
0
VERTEX
8
CORTE EXTERNO
10
492.7103
20
608.7987
30
0.0
0
VERTEX
8
CORTE EXTERNO
10
490.8789
20
608.0200
30
0.0
0
VERTEX
8
CORTE EXTERNO
10
489.0483
20
607.2428
30
0.0
0
VERTEX
8
CORTE EXTERNO
10
487.2187
20
606.4673
30
0.0
0
VERTEX
8
CORTE EXTERNO
10
485.3904
20
605.6939
30
0.0
0
VERTEX
8
CORTE EXTERNO
10
483.5635
20
604.9227
30
0.0
0
VERTEX
8
CORTE EXTERNO
10
481.7384
20
604.1542
30
0.0
0
VERTEX
8
CORTE EXTERNO
10
479.9152
20
603.3885
30
0.0
0
VERTEX
8
CORTE EXTERNO
10
478.0941
20
602.6259
30
0.0
0
VERTEX
8
CORTE EXTERNO
10
476.2754
20
601.8667
30
0.0
0
VERTEX
8
CORTE EXTERNO
10
474.4594
20
601.1113
30
0.0
0
VERTEX
8
CORTE EXTERNO
10
472.6462
20
600.3598
30
0.0
0
VERTEX
8
CORTE EXTERNO
10
470.8361
20
599.6125
30
0.0
0
VERTEX
8
CORTE EXTERNO
10
469.0293
20
598.8698
30
0.0
0
VERTEX
8
CORTE EXTERNO
10
467.2261
20
598.1318
30
0.0
0
VERTEX
8
CORTE EXTERNO
10
465.4267
20
597.3989
30
0.0
0
VERTEX
8
CORTE EXTERNO
10
463.6312
20
596.6714
30
0.0
0
VERTEX
8
CORTE EXTERNO
10
461.8400
20
595.9494
30
0.0
0
VERTEX
8
CORTE EXTERNO
10
459.9735
20
595.1966
30
0.0
0
VERTEX
8
CORTE EXTERNO
10
458.1166
20
594.4427
30
0.0
0
VERTEX
8
CORTE EXTERNO
10
456.2686
20
593.6876
30
0.0
0
VERTEX
8
CORTE EXTERNO
10
454.4292
20
592.9316
30
0.0
0
VERTEX
8
CORTE EXTERNO
10
452.5976
20
592.1746
30
0.0
0
VERTEX
8
CORTE EXTERNO
10
450.7734
20
591.4166
30
0.0
0
VERTEX
8
CORTE EXTERNO
10
448.9561
20
590.6578
30
0.0
0
VERTEX
8
CORTE EXTERNO
10
447.1450
20
589.8981
30
0.0
0
VERTEX
8
CORTE EXTERNO
10
445.3397
20
589.1377
30
0.0
0
VERTEX
8
CORTE EXTERNO
10
443.5397
20
588.3765
30
0.0
0
VERTEX
8
CORTE EXTERNO
10
441.7443
20
587.6146
30
0.0
0
VERTEX
8
CORTE EXTERNO
10
439.9531
20
586.8521
30
0.0
0
VERTEX
8
CORTE EXTERNO
10
438.1655
20
586.0890
30
0.0
0
VERTEX
8
CORTE EXTERNO
10
436.3810
20
585.3253
30
0.0
0
VERTEX
8
CORTE EXTERNO
10
434.5990
20
584.5612
30
0.0
0
VERTEX
8
CORTE EXTERNO
10
432.8190
20
583.7966
30
0.0
0
VERTEX
8
CORTE EXTERNO
10
431.0404
20
583.0316
30
0.0
0
VERTEX
8
CORTE EXTERNO
10
429.2628
20
582.2663
30
0.0
0
VERTEX
8
CORTE EXTERNO
10
427.4855
20
581.5006
30
0.0
0
VERTEX
8
CORTE EXTERNO
10
425.7081
20
580.7347
30
0.0
0
VERTEX
8
CORTE EXTERNO
10
423.9300
20
579.9686
30
0.0
0
VERTEX
8
CORTE EXTERNO
10
422.1506
20
579.2024
30
0.0
0
VERTEX
8
CORTE EXTERNO
10
420.3694
20
578.4360
30
0.0
0
VERTEX
8
CORTE EXTERNO
10
418.5860
20
577.6696
30
0.0
0
VERTEX
8
CORTE EXTERNO
10
416.7997
20
576.9032
30
0.0
0
VERTEX
8
CORTE EXTERNO
10
415.0100
20
576.1368
30
0.0
0
VERTEX
8
CORTE EXTERNO
10
413.2163
20
575.3706
30
0.0
0
VERTEX
8
CORTE EXTERNO
10
411.4182
20
574.6044
30
0.0
0
VERTEX
8
CORTE EXTERNO
10
409.6151
20
573.8384
30
0.0
0
VERTEX
8
CORTE EXTERNO
10
407.8064
20
573.0727
30
0.0
0
VERTEX
8
CORTE EXTERNO
10
405.9917
20
572.3072
30
0.0
0
VERTEX
8
CORTE EXTERNO
10
404.1703
20
571.5421
30
0.0
0
VERTEX
8
CORTE EXTERNO
10
402.3418
20
570.7774
30
0.0
0
VERTEX
8
CORTE EXTERNO
10
400.5055
20
570.0131
30
0.0
0
VERTEX
8
CORTE EXTERNO
10
398.6610
20
569.2492
30
0.0
0
VERTEX
8
CORTE EXTERNO
10
396.8077
20
568.4859
30
0.0
0
VERTEX
8
CORTE EXTERNO
10
394.9452
20
567.7232
30
0.0
0
VERTEX
8
CORTE EXTERNO
10
393.0727
20
566.9610
30
0.0
0
VERTEX
8
CORTE EXTERNO
10
391.1899
20
566.1996
30
0.0
0
VERTEX
8
CORTE EXTERNO
10
389.2961
20
565.4388
30
0.0
0
VERTEX
8
CORTE EXTERNO
10
387.3908
20
564.6789
30
0.0
0
VERTEX
8
CORTE EXTERNO
10
331.8026
20
541.5920
30
0.0
0
VERTEX
8
CORTE EXTERNO
10
330.9583
20
541.2093
30
0.0
0
VERTEX
8
CORTE EXTERNO
10
330.1201
20
540.8163
30
0.0
0
VERTEX
8
CORTE EXTERNO
10
329.2911
20
540.4106
30
0.0
0
VERTEX
8
CORTE EXTERNO
10
328.4747
20
539.9893
30
0.0
0
VERTEX
8
CORTE EXTERNO
10
327.6741
20
539.5499
30
0.0
0
VERTEX
8
CORTE EXTERNO
10
326.8925
20
539.0897
30
0.0
0
VERTEX
8
CORTE EXTERNO
10
326.1331
20
538.6060
30
0.0
0
VERTEX
8
CORTE EXTERNO
10
325.3993
20
538.0962
30
0.0
0
VERTEX
8
CORTE EXTERNO
10
324.6942
20
537.5577
30
0.0
0
VERTEX
8
CORTE EXTERNO
10
324.0210
20
536.9878
30
0.0
0
VERTEX
8
CORTE EXTERNO
10
323.3831
20
536.3837
30
0.0
0
VERTEX
8
CORTE EXTERNO
10
322.7837
20
535.7430
30
0.0
0
VERTEX
8
CORTE EXTERNO
10
322.2260
20
535.0629
30
0.0
0
VERTEX
8
CORTE EXTERNO
10
321.7132
20
534.3408
30
0.0
0
VERTEX
8
CORTE EXTERNO
10
321.2486
20
533.5740
30
0.0
0
VERTEX
8
CORTE EXTERNO
10
320.8354
20
532.7598
30
0.0
0
VERTEX
8
CORTE EXTERNO
10
320.4769
20
531.8957
30
0.0
0
VERTEX
8
CORTE EXTERNO
10
320.1764
20
530.9789
30
0.0
0
VERTEX
8
CORTE EXTERNO
10
319.9369
20
530.0068
30
0.0
0
VERTEX
8
CORTE EXTERNO
10
319.7619
20
528.9768
30
0.0
0
VERTEX
8
CORTE EXTERNO
10
319.6545
20
527.8862
30
0.0
0
SEQEND
8
CORTE EXTERNO
0
POLYLINE
8
CORTE INTERNO
66
1
70
1
0
VERTEX
8
CORTE INTERNO
10
474.5100
20
529.1908
30
0.0
0
VERTEX
8
CORTE INTERNO
10
475.3120
20
529.3005
30
0.0
0
VERTEX
8
CORTE INTERNO
10
476.3125
20
529.5104
30
0.0
0
VERTEX
8
CORTE INTERNO
10
477.5039
20
529.8169
30
0.0
0
VERTEX
8
CORTE INTERNO
10
478.8787
20
530.2162
30
0.0
0
VERTEX
8
CORTE INTERNO
10
480.4291
20
530.7044
30
0.0
0
VERTEX
8
CORTE INTERNO
10
482.1478
20
531.2780
30
0.0
0
VERTEX
8
CORTE INTERNO
10
484.0269
20
531.9330
30
0.0
0
VERTEX
8
CORTE INTERNO
10
486.0590
20
532.6658
30
0.0
0
VERTEX
8
CORTE INTERNO
10
488.2365
20
533.4726
30
0.0
0
VERTEX
8
CORTE INTERNO
10
490.5518
20
534.3497
30
0.0
0
VERTEX
8
CORTE INTERNO
10
492.9972
20
535.2932
30
0.0
0
VERTEX
8
CORTE INTERNO
10
495.5652
20
536.2996
30
0.0
0
VERTEX
8
CORTE INTERNO
10
498.2482
20
537.3649
30
0.0
0
VERTEX
8
CORTE INTERNO
10
501.0386
20
538.4855
30
0.0
0
VERTEX
8
CORTE INTERNO
10
503.9288
20
539.6575
30
0.0
0
VERTEX
8
CORTE INTERNO
10
506.9112
20
540.8773
30
0.0
0
VERTEX
8
CORTE INTERNO
10
509.9782
20
542.1411
30
0.0
0
VERTEX
8
CORTE INTERNO
10
513.1222
20
543.4451
30
0.0
0
VERTEX
8
CORTE INTERNO
10
516.3357
20
544.7857
30
0.0
0
VERTEX
8
CORTE INTERNO
10
519.6110
20
546.1589
30
0.0
0
VERTEX
8
CORTE INTERNO
10
522.9406
20
547.5611
30
0.0
0
VERTEX
8
CORTE INTERNO
10
526.3168
20
548.9886
30
0.0
0
VERTEX
8
CORTE INTERNO
10
529.7320
20
550.4375
30
0.0
0
VERTEX
8
CORTE INTERNO
10
533.1788
20
551.9041
30
0.0
0
VERTEX
8
CORTE INTERNO
10
536.6494
20
553.3848
30
0.0
0
VERTEX
8
CORTE INTERNO
10
540.1362
20
554.8756
30
0.0
0
VERTEX
8
CORTE INTERNO
10
543.6318
20
556.3729
30
0.0
0
VERTEX
8
CORTE INTERNO
10
547.1284
20
557.8729
30
0.0
0
VERTEX
8
CORTE INTERNO
10
550.6186
20
559.3719
30
0.0
0
VERTEX
8
CORTE INTERNO
10
554.0946
20
560.8660
30
0.0
0
VERTEX
8
CORTE INTERNO
10
557.5490
20
562.3517
30
0.0
0
VERTEX
8
CORTE INTERNO
10
560.9741
20
563.8250
30
0.0
0
VERTEX
8
CORTE INTERNO
10
564.3623
20
565.2823
30
0.0
0
VERTEX
8
CORTE INTERNO
10
567.7060
20
566.7197
30
0.0
0
VERTEX
8
CORTE INTERNO
10
570.9977
20
568.1337
30
0.0
0
VERTEX
8
CORTE INTERNO
10
574.2298
20
569.5203
30
0.0
0
VERTEX
8
CORTE INTERNO
10
577.3945
20
570.8758
30
0.0
0
VERTEX
8
CORTE INTERNO
10
580.4845
20
572.1966
30
0.0
0
VERTEX
8
CORTE INTERNO
10
583.4920
20
573.4787
30
0.0
0
VERTEX
8
CORTE INTERNO
10
586.4095
20
574.7186
30
0.0
0
VERTEX
8
CORTE INTERNO
10
589.2294
20
575.9124
30
0.0
0
VERTEX
8
CORTE INTERNO
10
591.9440
20
577.0563
30
0.0
0
VERTEX
8
CORTE INTERNO
10
594.5459
20
578.1467
30
0.0
0
VERTEX
8
CORTE INTERNO
10
597.0273
20
579.1798
30
0.0
0
VERTEX
8
CORTE INTERNO
10
599.3808
20
580.1518
30
0.0
0
VERTEX
8
CORTE INTERNO
10
601.5987
20
581.0589
30
0.0
0
VERTEX
8
CORTE INTERNO
10
603.6734
20
581.8975
30
0.0
0
VERTEX
8
CORTE INTERNO
10
605.5973
20
582.6637
30
0.0
0
VERTEX
8
CORTE INTERNO
10
607.3629
20
583.3538
30
0.0
0
VERTEX
8
CORTE INTERNO
10
608.9625
20
583.9641
30
0.0
0
VERTEX
8
CORTE INTERNO
10
610.3886
20
584.4908
30
0.0
0
VERTEX
8
CORTE INTERNO
10
611.6335
20
584.9301
30
0.0
0
VERTEX
8
CORTE INTERNO
10
612.6897
20
585.2784
30
0.0
0
VERTEX
8
CORTE INTERNO
10
613.5496
20
585.5318
30
0.0
0
VERTEX
8
CORTE INTERNO
10
614.2055
20
585.6866
30
0.0
0
VERTEX
8
CORTE INTERNO
10
614.6499
20
585.7390
30
0.0
0
VERTEX
8
CORTE INTERNO
10
614.9149
20
585.6897
30
0.0
0
VERTEX
8
CORTE INTERNO
10
615.3990
20
585.5452
30
0.0
0
VERTEX
8
CORTE INTERNO
10
616.0909
20
585.3101
30
0.0
0
VERTEX
8
CORTE INTERNO
10
616.9795
20
584.9893
30
0.0
0
VERTEX
8
CORTE INTERNO
10
618.0534
20
584.5875
30
0.0
0
VERTEX
8
CORTE INTERNO
10
619.3013
20
584.1097
30
0.0
0
VERTEX
8
CORTE INTERNO
10
620.7120
20
583.5606
30
0.0
0
VERTEX
8
CORTE INTERNO
10
622.2741
20
582.9449
30
0.0
0
VERTEX
8
CORTE INTERNO
10
623.9765
20
582.2676
30
0.0
0
VERTEX
8
CORTE INTERNO
10
625.8079
20
581.5334
30
0.0
0
VERTEX
8
CORTE INTERNO
10
627.7569
20
580.7470
30
0.0
0
VERTEX
8
CORTE INTERNO
10
629.8123
20
579.9134
30
0.0
0
VERTEX
8
CORTE INTERNO
10
631.9628
20
579.0373
30
0.0
0
VERTEX
8
CORTE INTERNO
10
634.1972
20
578.1234
30
0.0
0
VERTEX
8
CORTE INTERNO
10
636.5041
20
577.1767
30
0.0
0
VERTEX
8
CORTE INTERNO
10
638.8724
20
576.2019
30
0.0
0
VERTEX
8
CORTE INTERNO
10
641.2906
20
575.2038
30
0.0
0
VERTEX
8
CORTE INTERNO
10
643.7476
20
574.1873
30
0.0
0
VERTEX
8
CORTE INTERNO
10
646.2321
20
573.1570
30
0.0
0
VERTEX
8
CORTE INTERNO
10
648.7328
20
572.1179
30
0.0
0
VERTEX
8
CORTE INTERNO
10
651.2384
20
571.0747
30
0.0
0
VERTEX
8
CORTE INTERNO
10
653.7377
20
570.0322
30
0.0
0
VERTEX
8
CORTE INTERNO
10
656.2194
20
568.9952
30
0.0
0
VERTEX
8
CORTE INTERNO
10
658.6721
20
567.9686
30
0.0
0
VERTEX
8
CORTE INTERNO
10
661.0847
20
566.9571
30
0.0
0
VERTEX
8
CORTE INTERNO
10
663.4458
20
565.9656
30
0.0
0
VERTEX
8
CORTE INTERNO
10
665.7443
20
564.9987
30
0.0
0
VERTEX
8
CORTE INTERNO
10
667.9687
20
564.0614
30
0.0
0
VERTEX
8
CORTE INTERNO
10
670.1079
20
563.1585
30
0.0
0
VERTEX
8
CORTE INTERNO
10
672.1505
20
562.2947
30
0.0
0
VERTEX
8
CORTE INTERNO
10
674.0853
20
561.4748
30
0.0
0
VERTEX
8
CORTE INTERNO
10
675.9010
20
560.7037
30
0.0
0
VERTEX
8
CORTE INTERNO
10
677.5864
20
559.9861
30
0.0
0
VERTEX
8
CORTE INTERNO
10
679.1301
20
559.3269
30
0.0
0
VERTEX
8
CORTE INTERNO
10
680.5209
20
558.7308
30
0.0
0
VERTEX
8
CORTE INTERNO
10
681.7475
20
558.2027
30
0.0
0
VERTEX
8
CORTE INTERNO
10
682.7987
20
557.7473
30
0.0
0
VERTEX
8
CORTE INTERNO
10
683.6631
20
557.3695
30
0.0
0
VERTEX
8
CORTE INTERNO
10
684.3295
20
557.0740
30
0.0
0
VERTEX
8
CORTE INTERNO
10
685.2175
20
556.6773
30
0.0
0
VERTEX
8
CORTE INTERNO
10
686.2506
20
556.2187
30
0.0
0
VERTEX
8
CORTE INTERNO
10
687.4208
20
555.7017
30
0.0
0
VERTEX
8
CORTE INTERNO
10
688.7203
20
555.1302
30
0.0
0
VERTEX
8
CORTE INTERNO
10
690.1412
20
554.5078
30
0.0
0
VERTEX
8
CORTE INTERNO
10
691.6754
20
553.8381
30
0.0
0
VERTEX
8
CORTE INTERNO
10
693.3152
20
553.1248
30
0.0
0
VERTEX
8
CORTE INTERNO
10
695.0525
20
552.3717
30
0.0
0
VERTEX
8
CORTE INTERNO
10
696.8795
20
551.5823
30
0.0
0
VERTEX
8
CORTE INTERNO
10
698.7882
20
550.7603
30
0.0
0
VERTEX
8
CORTE INTERNO
10
700.7708
20
549.9095
30
0.0
0
VERTEX
8
CORTE INTERNO
10
702.8192
20
549.0335
30
0.0
0
VERTEX
8
CORTE INTERNO
10
704.9257
20
548.1360
30
0.0
0
VERTEX
8
CORTE INTERNO
10
707.0822
20
547.2206
30
0.0
0
VERTEX
8
CORTE INTERNO
10
709.2809
20
546.2910
30
0.0
0
VERTEX
8
CORTE INTERNO
10
711.5139
20
545.3509
30
0.0
0
VERTEX
8
CORTE INTERNO
10
713.7731
20
544.4040
30
0.0
0
VERTEX
8
CORTE INTERNO
10
716.0508
20
543.4540
30
0.0
0
VERTEX
8
CORTE INTERNO
10
718.3389
20
542.5044
30
0.0
0
VERTEX
8
CORTE INTERNO
10
720.6297
20
541.5591
30
0.0
0
VERTEX
8
CORTE INTERNO
10
722.9150
20
540.6216
30
0.0
0
VERTEX
8
CORTE INTERNO
10
725.1871
20
539.6957
30
0.0
0
VERTEX
8
CORTE INTERNO
10
727.4380
20
538.7849
30
0.0
0
VERTEX
8
CORTE INTERNO
10
729.6598
20
537.8931
30
0.0
0
VERTEX
8
CORTE INTERNO
10
731.8446
20
537.0238
30
0.0
0
VERTEX
8
CORTE INTERNO
10
733.9845
20
536.1808
30
0.0
0
VERTEX
8
CORTE INTERNO
10
736.0715
20
535.3677
30
0.0
0
VERTEX
8
CORTE INTERNO
10
738.0977
20
534.5881
30
0.0
0
VERTEX
8
CORTE INTERNO
10
740.0552
20
533.8458
30
0.0
0
VERTEX
8
CORTE INTERNO
10
741.9361
20
533.1445
30
0.0
0
VERTEX
8
CORTE INTERNO
10
743.7325
20
532.4878
30
0.0
0
VERTEX
8
CORTE INTERNO
10
745.4365
20
531.8793
30
0.0
0
VERTEX
8
CORTE INTERNO
10
747.0400
20
531.3228
30
0.0
0
VERTEX
8
CORTE INTERNO
10
748.5353
20
530.8220
30
0.0
0
VERTEX
8
CORTE INTERNO
10
749.9144
20
530.3804
30
0.0
0
VERTEX
8
CORTE INTERNO
10
751.1694
20
530.0018
30
0.0
0
VERTEX
8
CORTE INTERNO
10
752.2924
20
529.6899
30
0.0
0
VERTEX
8
CORTE INTERNO
10
753.2754
20
529.4483
30
0.0
0
VERTEX
8
CORTE INTERNO
10
754.1105
20
529.2807
30
0.0
0
VERTEX
8
CORTE INTERNO
10
754.7898
20
529.1908
30
0.0
0
VERTEX
8
CORTE INTERNO
10
754.7898
20
524.2742
30
0.0
0
VERTEX
8
CORTE INTERNO
10
753.4059
20
523.9397
30
0.0
0
VERTEX
8
CORTE INTERNO
10
752.0416
20
523.5866
30
0.0
0
VERTEX
8
CORTE INTERNO
10
750.6957
20
523.2157
30
0.0
0
VERTEX
8
CORTE INTERNO
10
749.3669
20
522.8278
30
0.0
0
VERTEX
8
CORTE INTERNO
10
748.0540
20
522.4238
30
0.0
0
VERTEX
8
CORTE INTERNO
10
746.7557
20
522.0044
30
0.0
0
VERTEX
8
CORTE INTERNO
10
745.4707
20
521.5705
30
0.0
0
VERTEX
8
CORTE INTERNO
10
744.1978
20
521.1229
30
0.0
0
VERTEX
8
CORTE INTERNO
10
742.9358
20
520.6625
30
0.0
0
VERTEX
8
CORTE INTERNO
10
741.6832
20
520.1900
30
0.0
0
VERTEX
8
CORTE INTERNO
10
740.4390
20
519.7063
30
0.0
0
VERTEX
8
CORTE INTERNO
10
739.2018
20
519.2121
30
0.0
0
VERTEX
8
CORTE INTERNO
10
737.9703
20
518.7084
30
0.0
0
VERTEX
8
CORTE INTERNO
10
736.7434
20
518.1959
30
0.0
0
VERTEX
8
CORTE INTERNO
10
735.5197
20
517.6754
30
0.0
0
VERTEX
8
CORTE INTERNO
10
734.2979
20
517.1478
30
0.0
0
VERTEX
8
CORTE INTERNO
10
733.0769
20
516.6139
30
0.0
0
VERTEX
8
CORTE INTERNO
10
731.8553
20
516.0746
30
0.0
0
VERTEX
8
CORTE INTERNO
10
730.6319
20
515.5305
30
0.0
0
VERTEX
8
CORTE INTERNO
10
729.4054
20
514.9826
30
0.0
0
VERTEX
8
CORTE INTERNO
10
728.1746
20
514.4317
30
0.0
0
VERTEX
8
CORTE INTERNO
10
726.9382
20
513.8785
30
0.0
0
VERTEX
8
CORTE INTERNO
10
725.6949
20
513.3240
30
0.0
0
VERTEX
8
CORTE INTERNO
10
724.4434
20
512.7689
30
0.0
0
VERTEX
8
CORTE INTERNO
10
723.1826
20
512.2140
30
0.0
0
VERTEX
8
CORTE INTERNO
10
721.9111
20
511.6603
30
0.0
0
VERTEX
8
CORTE INTERNO
10
720.6277
20
511.1084
30
0.0
0
VERTEX
8
CORTE INTERNO
10
719.3311
20
510.5592
30
0.0
0
VERTEX
8
CORTE INTERNO
10
614.6499
20
467.7260
30
0.0
0
VERTEX
8
CORTE INTERNO
10
614.2197
20
467.7738
30
0.0
0
VERTEX
8
CORTE INTERNO
10
613.5937
20
467.9140
30
0.0
0
VERTEX
8
CORTE INTERNO
10
612.7822
20
468.1421
30
0.0
0
VERTEX
8
CORTE INTERNO
10
611.7950
20
468.4535
30
0.0
0
VERTEX
8
CORTE INTERNO
10
610.6423
20
468.8436
30
0.0
0
VERTEX
8
CORTE INTERNO
10
609.3341
20
469.3078
30
0.0
0
VERTEX
8
CORTE INTERNO
10
607.8805
20
469.8416
30
0.0
0
VERTEX
8
CORTE INTERNO
10
606.2915
20
470.4402
30
0.0
0
VERTEX
8
CORTE INTERNO
10
604.5773
20
471.0993
30
0.0
0
VERTEX
8
CORTE INTERNO
10
602.7477
20
471.8141
30
0.0
0
VERTEX
8
CORTE INTERNO
10
600.8130
20
472.5800
30
0.0
0
VERTEX
8
CORTE INTERNO
10
598.7831
20
473.3926
30
0.0
0
VERTEX
8
CORTE INTERNO
10
596.6682
20
474.2471
30
0.0
0
VERTEX
8
CORTE INTERNO
10
594.4782
20
475.1391
30
0.0
0
VERTEX
8
CORTE INTERNO
10
592.2232
20
476.0638
30
0.0
0
VERTEX
8
CORTE INTERNO
10
589.9133
20
477.0168
30
0.0
0
VERTEX
8
CORTE INTERNO
10
587.5585
20
477.9935
30
0.0
0
VERTEX
8
CORTE INTERNO
10
585.1689
20
478.9892
30
0.0
0
VERTEX
8
CORTE INTERNO
10
582.7546
20
479.9993
30
0.0
0
VERTEX
8
CORTE INTERNO
10
580.3255
20
481.0194
30
0.0
0
VERTEX
8
CORTE INTERNO
10
577.8919
20
482.0447
30
0.0
0
VERTEX
8
CORTE INTERNO
10
575.4636
20
483.0708
30
0.0
0
VERTEX
8
CORTE INTERNO
10
573.0508
20
484.0929
30
0.0
0
VERTEX
8
CORTE INTERNO
10
570.6635
20
485.1066
30
0.0
0
VERTEX
8
CORTE INTERNO
10
568.3118
20
486.1072
30
0.0
0
VERTEX
8
CORTE INTERNO
10
566.0057
20
487.0902
30
0.0
0
VERTEX
8
CORTE INTERNO
10
563.7553
20
488.0509
30
0.0
0
VERTEX
8
CORTE INTERNO
10
561.5707
20
488.9848
30
0.0
0
VERTEX
8
CORTE INTERNO
10
559.4618
20
489.8873
30
0.0
0
VERTEX
8
CORTE INTERNO
10
557.4388
20
490.7538
30
0.0
0
VERTEX
8
CORTE INTERNO
10
555.5117
20
491.5797
30
0.0
0
VERTEX
8
CORTE INTERNO
10
553.6906
20
492.3604
30
0.0
0
VERTEX
8
CORTE INTERNO
10
551.9855
20
493.0914
30
0.0
0
VERTEX
8
CORTE INTERNO
10
550.4065
20
493.7680
30
0.0
0
VERTEX
8
CORTE INTERNO
10
548.9636
20
494.3856
30
0.0
0
VERTEX
8
CORTE INTERNO
10
547.6669
20
494.9398
30
0.0
0
VERTEX
8
CORTE INTERNO
10
546.5264
20
495.4258
30
0.0
0
VERTEX
8
CORTE INTERNO
10
545.5522
20
495.8391
30
0.0
0
VERTEX
8
CORTE INTERNO
10
544.7544
20
496.1751
30
0.0
0
SEQEND
8
CORTE INTERNO
0
POLYLINE
8
CORTE EXTERNO
66
1
70
1
0
VERTEX
8
CORTE EXTERNO
10
604.8157
20
3.2927
30
0.0
0
VERTEX
8
CORTE EXTERNO
10
656.4450
20
3.0513
30
0.0
0
VERTEX
8
CORTE EXTERNO
10
656.4450
20
30.0960
30
0.0
0
VERTEX
8
CORTE EXTERNO
10
657.9804
20
28.3361
30
0.0
0
VERTEX
8
CORTE EXTERNO
10
659.4723
20
26.6412
30
0.0
0
VERTEX
8
CORTE EXTERNO
10
660.9244
20
25.0106
30
0.0
0
VERTEX
8
CORTE EXTERNO
10
662.3403
20
23.4430
30
0.0
0
VERTEX
8
CORTE EXTERNO
10
663.7239
20
21.9376
30
0.0
0
VERTEX
8
CORTE EXTERNO
10
665.0787
20
20.4933
30
0.0
0
VERTEX
8
CORTE EXTERNO
10
666.4086
20
19.1092
30
0.0
0
VERTEX
8
CORTE EXTERNO
10
667.7171
20
17.7842
30
0.0
0
VERTEX
8
CORTE EXTERNO
10
669.0081
20
16.5174
30
0.0
0
VERTEX
8
CORTE EXTERNO
10
670.2852
20
15.3077
30
0.0
0
VERTEX
8
CORTE EXTERNO
10
671.5521
20
14.1542
30
0.0
0
VERTEX
8
CORTE EXTERNO
10
672.8126
20
13.0558
30
0.0
0
VERTEX
8
CORTE EXTERNO
10
674.0703
20
12.0116
30
0.0
0
VERTEX
8
CORTE EXTERNO
10
675.3289
20
11.0206
30
0.0
0
VERTEX
8
CORTE EXTERNO
10
676.5922
20
10.0817
30
0.0
0
VERTEX
8
CORTE EXTERNO
10
677.8638
20
9.1940
30
0.0
0
VERTEX
8
CORTE EXTERNO
10
679.1475
20
8.3564
30
0.0
0
VERTEX
8
CORTE EXTERNO
10
680.4469
20
7.5681
30
0.0
0
VERTEX
8
CORTE EXTERNO
10
681.7658
20
6.8279
30
0.0
0
VERTEX
8
CORTE EXTERNO
10
683.1079
20
6.1349
30
0.0
0
VERTEX
8
CORTE EXTERNO
10
684.4769
20
5.4881
30
0.0
0
VERTEX
8
CORTE EXTERNO
10
685.8764
20
4.8864
30
0.0
0
VERTEX
8
CORTE EXTERNO
10
687.3103
20
4.3290
30
0.0
0
VERTEX
8
CORTE EXTERNO
10
688.7821
20
3.8147
30
0.0
0
VERTEX
8
CORTE EXTERNO
10
690.2956
20
3.3426
30
0.0
0
VERTEX
8
CORTE EXTERNO
10
691.8545
20
2.9118
30
0.0
0
VERTEX
8
CORTE EXTERNO
10
693.4626
20
2.5211
30
0.0
0
VERTEX
8
CORTE EXTERNO
10
695.1234
20
2.1697
30
0.0
0
VERTEX
8
CORTE EXTERNO
10
696.8408
20
1.8564
30
0.0
0
VERTEX
8
CORTE EXTERNO
10
698.6184
20
1.5803
30
0.0
0
VERTEX
8
CORTE EXTERNO
10
700.4599
20
1.3405
30
0.0
0
VERTEX
8
CORTE EXTERNO
10
702.3690
20
1.1359
30
0.0
0
VERTEX
8
CORTE EXTERNO
10
704.3495
20
0.9655
30
0.0
0
VERTEX
8
CORTE EXTERNO
10
706.4050
20
0.8283
30
0.0
0
VERTEX
8
CORTE EXTERNO
10
708.5393
20
0.7233
30
0.0
0
VERTEX
8
CORTE EXTERNO
10
710.7561
20
0.6496
30
0.0
0
VERTEX
8
CORTE EXTERNO
10
713.0590
20
0.6061
30
0.0
0
VERTEX
8
CORTE EXTERNO
10
715.4517
20
0.5918
30
0.0
0
VERTEX
8
CORTE EXTERNO
10
717.3578
20
0.6194
30
0.0
0
VERTEX
8
CORTE EXTERNO
10
719.2379
20
0.7014
30
0.0
0
VERTEX
8
CORTE EXTERNO
10
721.0916
20
0.8363
30
0.0
0
VERTEX
8
CORTE EXTERNO
10
722.9187
20
1.0227
30
0.0
0
VERTEX
8
CORTE EXTERNO
10
724.7189
20
1.2593
30
0.0
0
VERTEX
8
CORTE EXTERNO
10
726.4922
20
1.5446
30
0.0
0
VERTEX
8
CORTE EXTERNO
10
728.2381
20
1.8773
30
0.0
0
VERTEX
8
CORTE EXTERNO
10
729.9565
20
2.2559
30
0.0
0
VERTEX
8
CORTE EXTERNO
10
731.6471
20
2.6791
30
0.0
0
VERTEX
8
CORTE EXTERNO
10
733.3096
20
3.1454
30
0.0
0
VERTEX
8
CORTE EXTERNO
10
734.9439
20
3.6534
30
0.0
0
VERTEX
8
CORTE EXTERNO
10
736.5497
20
4.2019
30
0.0
0
VERTEX
8
CORTE EXTERNO
10
738.1268
20
4.7893
30
0.0
0
VERTEX
8
CORTE EXTERNO
10
739.6748
20
5.4142
30
0.0
0
VERTEX
8
CORTE EXTERNO
10
741.1937
20
6.0754
30
0.0
0
VERTEX
8
CORTE EXTERNO
10
742.6830
20
6.7713
30
0.0
0
VERTEX
8
CORTE EXTERNO
10
744.1427
20
7.5005
30
0.0
0
VERTEX
8
CORTE EXTERNO
10
745.5724
20
8.2618
30
0.0
0
VERTEX
8
CORTE EXTERNO
10
746.9719
20
9.0536
30
0.0
0
VERTEX
8
CORTE EXTERNO
10
748.3409
20
9.8746
30
0.0
0
VERTEX
8
CORTE EXTERNO
10
749.6793
20
10.7234
30
0.0
0
VERTEX
8
CORTE EXTERNO
10
750.9868
20
11.5986
30
0.0
0
VERTEX
8
CORTE EXTERNO
10
752.2631
20
12.4987
30
0.0
0
VERTEX
8
CORTE EXTERNO
10
753.5080
20
13.4225
30
0.0
0
VERTEX
8
CORTE EXTERNO
10
754.7213
20
14.3684
30
0.0
0
VERTEX
8
CORTE EXTERNO
10
755.9027
20
15.3352
30
0.0
0
VERTEX
8
CORTE EXTERNO
10
757.0519
20
16.3213
30
0.0
0
VERTEX
8
CORTE EXTERNO
10
758.1688
20
17.3255
30
0.0
0
VERTEX
8
CORTE EXTERNO
10
759.2531
20
18.3462
30
0.0
0
VERTEX
8
CORTE EXTERNO
10
760.3046
20
19.3822
30
0.0
0
VERTEX
8
CORTE EXTERNO
10
761.3229
20
20.4320
30
0.0
0
VERTEX
8
CORTE EXTERNO
10
762.3080
20
21.4942
30
0.0
0
VERTEX
8
CORTE EXTERNO
10
763.2594
20
22.5674
30
0.0
0
VERTEX
8
CORTE EXTERNO
10
764.1771
20
23.6502
30
0.0
0
VERTEX
8
CORTE EXTERNO
10
765.0607
20
24.7412
30
0.0
0
VERTEX
8
CORTE EXTERNO
10
766.8386
20
27.0751
30
0.0
0
VERTEX
8
CORTE EXTERNO
10
768.5289
20
29.4714
30
0.0
0
VERTEX
8
CORTE EXTERNO
10
770.1319
20
31.9271
30
0.0
0
VERTEX
8
CORTE EXTERNO
10
771.6479
20
34.4389
30
0.0
0
VERTEX
8
CORTE EXTERNO
10
773.0772
20
37.0037
30
0.0
0
VERTEX
8
CORTE EXTERNO
10
774.4202
20
39.6184
30
0.0
0
VERTEX
8
CORTE EXTERNO
10
775.6771
20
42.2796
30
0.0
0
VERTEX
8
CORTE EXTERNO
10
776.8483
20
44.9842
30
0.0
0
VERTEX
8
CORTE EXTERNO
10
777.9341
20
47.7292
30
0.0
0
VERTEX
8
CORTE EXTERNO
10
778.9348
20
50.5112
30
0.0
0
VERTEX
8
CORTE EXTERNO
10
779.8508
20
53.3272
30
0.0
0
VERTEX
8
CORTE EXTERNO
10
780.6823
20
56.1739
30
0.0
0
VERTEX
8
CORTE EXTERNO
10
781.4297
20
59.0481
30
0.0
0
VERTEX
8
CORTE EXTERNO
10
782.0932
20
61.9468
30
0.0
0
VERTEX
8
CORTE EXTERNO
10
782.6733
20
64.8666
30
0.0
0
VERTEX
8
CORTE EXTERNO
10
783.1702
20
67.8045
30
0.0
0
VERTEX
8
CORTE EXTERNO
10
783.5842
20
70.7573
30
0.0
0
VERTEX
8
CORTE EXTERNO
10
783.9157
20
73.7217
30
0.0
0
VERTEX
8
CORTE EXTERNO
10
784.1650
20
76.6946
30
0.0
0
VERTEX
8
CORTE EXTERNO
10
784.3324
20
79.6729
30
0.0
0
VERTEX
8
CORTE EXTERNO
10
784.4182
20
82.6533
30
0.0
0
VERTEX
8
CORTE EXTERNO
10
784.4228
20
85.6327
30
0.0
0
VERTEX
8
CORTE EXTERNO
10
784.3464
20
88.6079
30
0.0
0
VERTEX
8
CORTE EXTERNO
10
784.1894
20
91.5757
30
0.0
0
VERTEX
8
CORTE EXTERNO
10
783.9520
20
94.5330
30
0.0
0
VERTEX
8
CORTE EXTERNO
10
783.6347
20
97.4765
30
0.0
0
VERTEX
8
CORTE EXTERNO
10
783.2377
20
100.4032
30
0.0
0
VERTEX
8
CORTE EXTERNO
10
782.7614
20
103.3097
30
0.0
0
VERTEX
8
CORTE EXTERNO
10
782.2060
20
106.1930
30
0.0
0
VERTEX
8
CORTE EXTERNO
10
781.5719
20
109.0499
30
0.0
0
VERTEX
8
CORTE EXTERNO
10
780.8594
20
111.8772
30
0.0
0
VERTEX
8
CORTE EXTERNO
10
780.0689
20
114.6717
30
0.0
0
VERTEX
8
CORTE EXTERNO
10
779.2006
20
117.4302
30
0.0
0
VERTEX
8
CORTE EXTERNO
10
778.2548
20
120.1495
30
0.0
0
VERTEX
8
CORTE EXTERNO
10
777.2319
20
122.8266
30
0.0
0
VERTEX
8
CORTE EXTERNO
10
776.1322
20
125.4582
30
0.0
0
VERTEX
8
CORTE EXTERNO
10
774.9561
20
128.0411
30
0.0
0
VERTEX
8
CORTE EXTERNO
10
773.7037
20
130.5721
30
0.0
0
VERTEX
8
CORTE EXTERNO
10
772.3755
20
133.0482
30
0.0
0
VERTEX
8
CORTE EXTERNO
10
770.9718
20
135.4660
30
0.0
0
VERTEX
8
CORTE EXTERNO
10
769.4929
20
137.8225
30
0.0
0
VERTEX
8
CORTE EXTERNO
10
767.9391
20
140.1144
30
0.0
0
VERTEX
8
CORTE EXTERNO
10
766.3107
20
142.3386
30
0.0
0
VERTEX
8
CORTE EXTERNO
10
764.6080
20
144.4919
30
0.0
0
VERTEX
8
CORTE EXTERNO
10
762.8314
20
146.5712
30
0.0
0
VERTEX
8
CORTE EXTERNO
10
760.9812
20
148.5731
30
0.0
0
VERTEX
8
CORTE EXTERNO
10
759.0577
20
150.4947
30
0.0
0
VERTEX
8
CORTE EXTERNO
10
757.0612
20
152.3326
30
0.0
0
VERTEX
8
CORTE EXTERNO
10
754.9921
20
154.0838
30
0.0
0
VERTEX
8
CORTE EXTERNO
10
752.8506
20
155.7450
30
0.0
0
VERTEX
8
CORTE EXTERNO
10
750.6371
20
157.3130
30
0.0
0
VERTEX
8
CORTE EXTERNO
10
748.3518
20
158.7848
30
0.0
0
VERTEX
8
CORTE EXTERNO
10
745.9952
20
160.1571
30
0.0
0
VERTEX
8
CORTE EXTERNO
10
743.5675
20
161.4267
30
0.0
0
VERTEX
8
CORTE EXTERNO
10
741.0691
20
162.5904
30
0.0
0
VERTEX
8
CORTE EXTERNO
10
738.5002
20
163.6452
30
0.0
0
VERTEX
8
CORTE EXTERNO
10
735.8612
20
164.5877
30
0.0
0
VERTEX
8
CORTE EXTERNO
10
733.1524
20
165.4149
30
0.0
0
VERTEX
8
CORTE EXTERNO
10
730.3741
20
166.1235
30
0.0
0
VERTEX
8
CORTE EXTERNO
10
727.5267
20
166.7105
30
0.0
0
VERTEX
8
CORTE EXTERNO
10
724.6104
20
167.1725
30
0.0
0
VERTEX
8
CORTE EXTERNO
10
721.6256
20
167.5064
30
0.0
0
VERTEX
8
CORTE EXTERNO
10
718.5726
20
167.7091
30
0.0
0
VERTEX
8
CORTE EXTERNO
10
715.4517
20
167.7774
30
0.0
0
VERTEX
8
CORTE EXTERNO
10
713.1388
20
167.7519
30
0.0
0
VERTEX
8
CORTE EXTERNO
10
710.9099
20
167.6763
30
0.0
0
VERTEX
8
CORTE EXTERNO
10
708.7617
20
167.5520
30
0.0
0
VERTEX
8
CORTE EXTERNO
10
706.6910
20
167.3806
30
0.0
0
VERTEX
8
CORTE EXTERNO
10
704.6943
20
167.1634
30
0.0
0
VERTEX
8
CORTE EXTERNO
10
702.7684
20
166.9020
30
0.0
0
VERTEX
8
CORTE EXTERNO
10
700.9099
20
166.5977
30
0.0
0
VERTEX
8
CORTE EXTERNO
10
699.1154
20
166.2520
30
0.0
0
VERTEX
8
CORTE EXTERNO
10
697.3817
20
165.8663
30
0.0
0
VERTEX
8
CORTE EXTERNO
10
695.7054
20
165.4422
30
0.0
0
VERTEX
8
CORTE EXTERNO
10
694.0832
20
164.9810
30
0.0
0
VERTEX
8
CORTE EXTERNO
10
692.5118
20
164.4842
30
0.0
0
VERTEX
8
CORTE EXTERNO
10
690.9877
20
163.9533
30
0.0
0
VERTEX
8
CORTE EXTERNO
10
689.5078
20
163.3897
30
0.0
0
VERTEX
8
CORTE EXTERNO
10
688.0686
20
162.7948
30
0.0
0
VERTEX
8
CORTE EXTERNO
10
686.6669
20
162.1702
30
0.0
0
VERTEX
8
CORTE EXTERNO
10
685.2993
20
161.5171
30
0.0
0
VERTEX
8
CORTE EXTERNO
10
683.9624
20
160.8372
30
0.0
0
VERTEX
8
CORTE EXTERNO
10
682.6529
20
160.1318
30
0.0
0
VERTEX
8
CORTE EXTERNO
10
681.3676
20
159.4024
30
0.0
0
VERTEX
8
CORTE EXTERNO
10
680.1031
20
158.6505
30
0.0
0
VERTEX
8
CORTE EXTERNO
10
678.8560
20
157.8774
30
0.0
0
VERTEX
8
CORTE EXTERNO
10
677.6230
20
157.0847
30
0.0
0
VERTEX
8
CORTE EXTERNO
10
676.4007
20
156.2738
30
0.0
0
VERTEX
8
CORTE EXTERNO
10
675.1860
20
155.4461
30
0.0
0
VERTEX
8
CORTE EXTERNO
10
673.9753
20
154.6031
30
0.0
0
VERTEX
8
CORTE EXTERNO
10
672.7655
20
153.7462
30
0.0
0
VERTEX
8
CORTE EXTERNO
10
671.5531
20
152.8769
30
0.0
0
VERTEX
8
CORTE EXTERNO
10
670.3348
20
151.9966
30
0.0
0
VERTEX
8
CORTE EXTERNO
10
669.1074
20
151.1069
30
0.0
0
VERTEX
8
CORTE EXTERNO
10
667.8674
20
150.2090
30
0.0
0
VERTEX
8
CORTE EXTERNO
10
666.6115
20
149.3045
30
0.0
0
VERTEX
8
CORTE EXTERNO
10
665.3364
20
148.3949
30
0.0
0
VERTEX
8
CORTE EXTERNO
10
664.0389
20
147.4815
30
0.0
0
VERTEX
8
CORTE EXTERNO
10
662.7154
20
146.5659
30
0.0
0
VERTEX
8
CORTE EXTERNO
10
661.3628
20
145.6494
30
0.0
0
VERTEX
8
CORTE EXTERNO
10
661.3628
20
219.4082
30
0.0
0
VERTEX
8
CORTE EXTERNO
10
604.8157
20
219.4082
30
0.0
0
SEQEND
8
CORTE EXTERNO
0
POLYLINE
8
CORTE INTERNO
66
1
70
1
0
VERTEX
8
CORTE INTERNO
10
693.3248
20
125.9810
30
0.0
0
VERTEX
8
CORTE INTERNO
10
695.6981
20
125.9110
30
0.0
0
VERTEX
8
CORTE INTERNO
10
697.9816
20
125.7041
30
0.0
0
VERTEX
8
CORTE INTERNO
10
700.1760
20
125.3651
30
0.0
0
VERTEX
8
CORTE INTERNO
10
702.2818
20
124.8986
30
0.0
0
VERTEX
8
CORTE INTERNO
10
704.2998
20
124.3095
30
0.0
0
VERTEX
8
CORTE INTERNO
10
706.2305
20
123.6026
30
0.0
0
VERTEX
8
CORTE INTERNO
10
708.0746
20
122.7824
30
0.0
0
VERTEX
8
CORTE INTERNO
10
709.8327
20
121.8538
30
0.0
0
VERTEX
8
CORTE INTERNO
10
711.5054
20
120.8215
30
0.0
0
VERTEX
8
CORTE INTERNO
10
713.0934
20
119.6903
30
0.0
0
VERTEX
8
CORTE INTERNO
10
714.5973
20
118.4649
30
0.0
0
VERTEX
8
CORTE INTERNO
10
716.0177
20
117.1501
30
0.0
0
VERTEX
8
CORTE INTERNO
10
717.3553
20
115.7505
30
0.0
0
VERTEX
8
CORTE INTERNO
10
718.6106
20
114.2710
30
0.0
0
VERTEX
8
CORTE INTERNO
10
719.7844
20
112.7163
30
0.0
0
VERTEX
8
CORTE INTERNO
10
720.8771
20
111.0910
30
0.0
0
VERTEX
8
CORTE INTERNO
10
721.8896
20
109.4000
30
0.0
0
VERTEX
8
CORTE INTERNO
10
722.8223
20
107.6481
30
0.0
0
VERTEX
8
CORTE INTERNO
10
723.6760
20
105.8399
30
0.0
0
VERTEX
8
CORTE INTERNO
10
724.4512
20
103.9801
30
0.0
0
VERTEX
8
CORTE INTERNO
10
725.1486
20
102.0736
30
0.0
0
VERTEX
8
CORTE INTERNO
10
725.7689
20
100.1251
30
0.0
0
VERTEX
8
CORTE INTERNO
10
726.3125
20
98.1393
30
0.0
0
VERTEX
8
CORTE INTERNO
10
726.7803
20
96.1209
30
0.0
0
VERTEX
8
CORTE INTERNO
10
727.1727
20
94.0748
30
0.0
0
VERTEX
8
CORTE INTERNO
10
727.4905
20
92.0056
30
0.0
0
VERTEX
8
CORTE INTERNO
10
727.7343
20
89.9181
30
0.0
0
VERTEX
8
CORTE INTERNO
10
727.9046
20
87.8170
30
0.0
0
VERTEX
8
CORTE INTERNO
10
728.0021
20
85.7071
30
0.0
0
VERTEX
8
CORTE INTERNO
10
728.0275
20
83.5931
30
0.0
0
VERTEX
8
CORTE INTERNO
10
727.9814
20
81.4798
30
0.0
0
VERTEX
8
CORTE INTERNO
10
727.8644
20
79.3718
30
0.0
0
VERTEX
8
CORTE INTERNO
10
727.6771
20
77.2741
30
0.0
0
VERTEX
8
CORTE INTERNO
10
727.4202
20
75.1912
30
0.0
0
VERTEX
8
CORTE INTERNO
10
727.0943
20
73.1279
30
0.0
0
VERTEX
8
CORTE INTERNO
10
726.7000
20
71.0890
30
0.0
0
VERTEX
8
CORTE INTERNO
10
726.2380
20
69.0792
30
0.0
0
VERTEX
8
CORTE INTERNO
10
725.7089
20
67.1033
30
0.0
0
VERTEX
8
CORTE INTERNO
10
725.1132
20
65.1660
30
0.0
0
VERTEX
8
CORTE INTERNO
10
724.4517
20
63.2720
30
0.0
0
VERTEX
8
CORTE INTERNO
10
723.7250
20
61.4262
30
0.0
0
VERTEX
8
CORTE INTERNO
10
722.9337
20
59.6331
30
0.0
0
VERTEX
8
CORTE INTERNO
10
722.0784
20
57.8976
30
0.0
0
VERTEX
8
CORTE INTERNO
10
721.1598
20
56.2244
30
0.0
0
VERTEX
8
CORTE INTERNO
10
720.1785
20
54.6183
30
0.0
0
VERTEX
8
CORTE INTERNO
10
719.1351
20
53.0840
30
0.0
0
VERTEX
8
CORTE INTERNO
10
718.0302
20
51.6263
30
0.0
0
VERTEX
8
CORTE INTERNO
10
716.8645
20
50.2498
30
0.0
0
VERTEX
8
CORTE INTERNO
10
715.6386
20
48.9593
30
0.0
0
VERTEX
8
CORTE INTERNO
10
714.3532
20
47.7597
30
0.0
0
VERTEX
8
CORTE INTERNO
10
713.0088
20
46.6555
30
0.0
0
VERTEX
8
CORTE INTERNO
10
711.6061
20
45.6516
30
0.0
0
VERTEX
8
CORTE INTERNO
10
710.1458
20
44.7527
30
0.0
0
VERTEX
8
CORTE INTERNO
10
708.6284
20
43.9635
30
0.0
0
VERTEX
8
CORTE INTERNO
10
707.0546
20
43.2888
30
0.0
0
VERTEX
8
CORTE INTERNO
10
704.5228
20
42.3932
30
0.0
0
VERTEX
8
CORTE INTERNO
10
702.0578
20
41.6751
30
0.0
0
VERTEX
8
CORTE INTERNO
10
699.6599
20
41.1292
30
0.0
0
VERTEX
8
CORTE INTERNO
10
697.3295
20
40.7505
30
0.0
0
VERTEX
8
CORTE INTERNO
10
695.0669
20
40.5336
30
0.0
0
VERTEX
8
CORTE INTERNO
10
692.8724
20
40.4733
30
0.0
0
VERTEX
8
CORTE INTERNO
10
690.7463
20
40.5645
30
0.0
0
VERTEX
8
CORTE INTERNO
10
688.6891
20
40.8017
30
0.0
0
VERTEX
8
CORTE INTERNO
10
686.7009
20
41.1799
30
0.0
0
VERTEX
8
CORTE INTERNO
10
684.7821
20
41.6938
30
0.0
0
VERTEX
8
CORTE INTERNO
10
682.9331
20
42.3382
30
0.0
0
VERTEX
8
CORTE INTERNO
10
681.1542
20
43.1078
30
0.0
0
VERTEX
8
CORTE INTERNO
10
679.4457
20
43.9974
30
0.0
0
VERTEX
8
CORTE INTERNO
10
677.8079
20
45.0018
30
0.0
0
VERTEX
8
CORTE INTERNO
10
676.2411
20
46.1157
30
0.0
0
VERTEX
8
CORTE INTERNO
10
674.7458
20
47.3340
30
0.0
0
VERTEX
8
CORTE INTERNO
10
673.3221
20
48.6513
30
0.0
0
VERTEX
8
CORTE INTERNO
10
671.9705
20
50.0625
30
0.0
0
VERTEX
8
CORTE INTERNO
10
670.6913
20
51.5623
30
0.0
0
VERTEX
8
CORTE INTERNO
10
669.4848
20
53.1456
30
0.0
0
VERTEX
8
CORTE INTERNO
10
668.3513
20
54.8070
30
0.0
0
VERTEX
8
CORTE INTERNO
10
667.2911
20
56.5413
30
0.0
0
VERTEX
8
CORTE INTERNO
10
666.3046
20
58.3433
30
0.0
0
VERTEX
8
CORTE INTERNO
10
665.3921
20
60.2078
30
0.0
0
VERTEX
8
CORTE INTERNO
10
664.5539
20
62.1296
30
0.0
0
VERTEX
8
CORTE INTERNO
10
663.7904
20
64.1034
30
0.0
0
VERTEX
8
CORTE INTERNO
10
663.1019
20
66.1240
30
0.0
0
VERTEX
8
CORTE INTERNO
10
662.4886
20
68.1861
30
0.0
0
VERTEX
8
CORTE INTERNO
10
661.9510
20
70.2845
30
0.0
0
VERTEX
8
CORTE INTERNO
10
661.4894
20
72.4141
30
0.0
0
VERTEX
8
CORTE INTERNO
10
661.1040
20
74.5695
30
0.0
0
VERTEX
8
CORTE INTERNO
10
660.7953
20
76.7456
30
0.0
0
VERTEX
8
CORTE INTERNO
10
660.5635
20
78.9371
30
0.0
0
VERTEX
8
CORTE INTERNO
10
660.4090
20
81.1387
30
0.0
0
VERTEX
8
CORTE INTERNO
10
660.3321
20
83.3453
30
0.0
0
VERTEX
8
CORTE INTERNO
10
660.3331
20
85.5516
30
0.0
0
VERTEX
8
CORTE INTERNO
10
660.4123
20
87.7524
30
0.0
0
VERTEX
8
CORTE INTERNO
10
660.5702
20
89.9425
30
0.0
0
VERTEX
8
CORTE INTERNO
10
660.8069
20
92.1166
30
0.0
0
VERTEX
8
CORTE INTERNO
10
661.1228
20
94.2695
30
0.0
0
VERTEX
8
CORTE INTERNO
10
661.5184
20
96.3960
30
0.0
0
VERTEX
8
CORTE INTERNO
10
661.9938
20
98.4908
30
0.0
0
VERTEX
8
CORTE INTERNO
10
662.5494
20
100.5487
30
0.0
0
VERTEX
8
CORTE INTERNO
10
663.1855
20
102.5645
30
0.0
0
VERTEX
8
CORTE INTERNO
10
663.9025
20
104.5329
30
0.0
0
VERTEX
8
CORTE INTERNO
10
664.7007
20
106.4488
30
0.0
0
VERTEX
8
CORTE INTERNO
10
665.5805
20
108.3069
30
0.0
0
VERTEX
8
CORTE INTERNO
10
666.5420
20
110.1019
30
0.0
0
VERTEX
8
CORTE INTERNO
10
667.5858
20
111.8286
30
0.0
0
VERTEX
8
CORTE INTERNO
10
668.7120
20
113.4819
30
0.0
0
VERTEX
8
CORTE INTERNO
10
669.9211
20
115.0564
30
0.0
0
VERTEX
8
CORTE INTERNO
10
671.2133
20
116.5469
30
0.0
0
VERTEX
8
CORTE INTERNO
10
672.5890
20
117.9483
30
0.0
0
VERTEX
8
CORTE INTERNO
10
674.0485
20
119.2552
30
0.0
0
VERTEX
8
CORTE INTERNO
10
675.5921
20
120.4625
30
0.0
0
VERTEX
8
CORTE INTERNO
10
677.2202
20
121.5649
30
0.0
0
VERTEX
8
CORTE INTERNO
10
678.9331
20
122.5573
30
0.0
0
VERTEX
8
CORTE INTERNO
10
680.7311
20
123.4342
30
0.0
0
VERTEX
8
CORTE INTERNO
10
682.6145
20
124.1906
30
0.0
0
VERTEX
8
CORTE INTERNO
10
684.5837
20
124.8212
30
0.0
0
VERTEX
8
CORTE INTERNO
10
686.6390
20
125.3208
30
0.0
0
VERTEX
8
CORTE INTERNO
10
688.7808
20
125.6841
30
0.0
0
VERTEX
8
CORTE INTERNO
10
691.0092
20
125.9059
30
0.0
0
SEQEND
8
CORTE INTERNO
0
POLYLINE
8
CORTE EXTERNO
66
1
70
1
0
VERTEX
8
CORTE EXTERNO
10
912.1400
20
81.7265
30
0.0
0
VERTEX
8
CORTE EXTERNO
10
912.1804
20
79.1471
30
0.0
0
VERTEX
8
CORTE EXTERNO
10
912.3008
20
76.5936
30
0.0
0
VERTEX
8
CORTE EXTERNO
10
912.4998
20
74.0668
30
0.0
0
VERTEX
8
CORTE EXTERNO
10
912.7761
20
71.5677
30
0.0
0
VERTEX
8
CORTE EXTERNO
10
913.1283
20
69.0970
30
0.0
0
VERTEX
8
CORTE EXTERNO
10
913.5551
20
66.6557
30
0.0
0
VERTEX
8
CORTE EXTERNO
10
914.0553
20
64.2445
30
0.0
0
VERTEX
8
CORTE EXTERNO
10
914.6274
20
61.8643
30
0.0
0
VERTEX
8
CORTE EXTERNO
10
915.2702
20
59.5159
30
0.0
0
VERTEX
8
CORTE EXTERNO
10
915.9822
20
57.2003
30
0.0
0
VERTEX
8
CORTE EXTERNO
10
916.7622
20
54.9183
30
0.0
0
VERTEX
8
CORTE EXTERNO
10
917.6089
20
52.6706
30
0.0
0
VERTEX
8
CORTE EXTERNO
10
918.5209
20
50.4582
30
0.0
0
VERTEX
8
CORTE EXTERNO
10
919.4969
20
48.2819
30
0.0
0
VERTEX
8
CORTE EXTERNO
10
920.5355
20
46.1426
30
0.0
0
VERTEX
8
CORTE EXTERNO
10
921.6355
20
44.0411
30
0.0
0
VERTEX
8
CORTE EXTERNO
10
922.7954
20
41.9782
30
0.0
0
VERTEX
8
CORTE EXTERNO
10
924.0140
20
39.9549
30
0.0
0
VERTEX
8
CORTE EXTERNO
10
925.2900
20
37.9718
30
0.0
0
VERTEX
8
CORTE EXTERNO
10
926.6219
20
36.0300
30
0.0
0
VERTEX
8
CORTE EXTERNO
10
928.0086
20
34.1303
30
0.0
0
VERTEX
8
CORTE EXTERNO
10
929.4485
20
32.2735
30
0.0
0
VERTEX
8
CORTE EXTERNO
10
930.9405
20
30.4604
30
0.0
0
VERTEX
8
CORTE EXTERNO
10
932.4831
20
28.6919
30
0.0
0
VERTEX
8
CORTE EXTERNO
10
934.0751
20
26.9689
30
0.0
0
VERTEX
8
CORTE EXTERNO
10
935.7152
20
25.2921
30
0.0
0
VERTEX
8
CORTE EXTERNO
10
937.4019
20
23.6626
30
0.0
0
VERTEX
8
CORTE EXTERNO
10
939.1340
20
22.0810
30
0.0
0
VERTEX
8
CORTE EXTERNO
10
940.9101
20
20.5483
30
0.0
0
VERTEX
8
CORTE EXTERNO
10
942.7289
20
19.0652
30
0.0
0
VERTEX
8
CORTE EXTERNO
10
944.5891
20
17.6328
30
0.0
0
VERTEX
8
CORTE EXTERNO
10
946.4893
20
16.2517
30
0.0
0
VERTEX
8
CORTE EXTERNO
10
948.4282
20
14.9229
30
0.0
0
VERTEX
8
CORTE EXTERNO
10
950.4045
20
13.6472
30
0.0
0
VERTEX
8
CORTE EXTERNO
10
952.4169
20
12.4254
30
0.0
0
VERTEX
8
CORTE EXTERNO
10
954.4639
20
11.2584
30
0.0
0
VERTEX
8
CORTE EXTERNO
10
956.5444
20
10.1471
30
0.0
0
VERTEX
8
CORTE EXTERNO
10
958.6569
20
9.0922
30
0.0
0
VERTEX
8
CORTE EXTERNO
10
960.8001
20
8.0948
30
0.0
0
VERTEX
8
CORTE EXTERNO
10
962.9728
20
7.1555
30
0.0
0
VERTEX
8
CORTE EXTERNO
10
965.1735
20
6.2752
30
0.0
0
VERTEX
8
CORTE EXTERNO
10
967.4009
20
5.4549
30
0.0
0
VERTEX
8
CORTE EXTERNO
10
969.6538
20
4.6953
30
0.0
0
VERTEX
8
CORTE EXTERNO
10
971.9307
20
3.9973
30
0.0
0
VERTEX
8
CORTE EXTERNO
10
974.2303
20
3.3617
30
0.0
0
VERTEX
8
CORTE EXTERNO
10
976.5514
20
2.7895
30
0.0
0
VERTEX
8
CORTE EXTERNO
10
978.8926
20
2.2813
30
0.0
0
VERTEX
8
CORTE EXTERNO
10
981.2525
20
1.8382
30
0.0
0
VERTEX
8
CORTE EXTERNO
10
983.6299
20
1.4609
30
0.0
0
VERTEX
8
CORTE EXTERNO
10
986.0233
20
1.1503
30
0.0
0
VERTEX
8
CORTE EXTERNO
10
988.4315
20
0.9073
30
0.0
0
VERTEX
8
CORTE EXTERNO
10
990.8531
20
0.7326
30
0.0
0
VERTEX
8
CORTE EXTERNO
10
993.2869
20
0.6272
30
0.0
0
VERTEX
8
CORTE EXTERNO
10
995.7314
20
0.5919
30
0.0
0
VERTEX
8
CORTE EXTERNO
10
998.2176
20
0.6002
30
0.0
0
VERTEX
8
CORTE EXTERNO
10
1000.6860
20
0.6260
30
0.0
0
VERTEX
8
CORTE EXTERNO
10
1003.1361
20
0.6706
30
0.0
0
VERTEX
8
CORTE EXTERNO
10
1005.5677
20
0.7353
30
0.0
0
VERTEX
8
CORTE EXTERNO
10
1007.9803
20
0.8215
30
0.0
0
VERTEX
8
CORTE EXTERNO
10
1010.3736
20
0.9303
30
0.0
0
VERTEX
8
CORTE EXTERNO
10
1012.7472
20
1.0632
30
0.0
0
VERTEX
8
CORTE EXTERNO
10
1015.1008
20
1.2214
30
0.0
0
VERTEX
8
CORTE EXTERNO
10
1017.4338
20
1.4063
30
0.0
0
VERTEX
8
CORTE EXTERNO
10
1019.7461
20
1.6191
30
0.0
0
VERTEX
8
CORTE EXTERNO
10
1022.0372
20
1.8612
30
0.0
0
VERTEX
8
CORTE EXTERNO
10
1024.3067
20
2.1338
30
0.0
0
VERTEX
8
CORTE EXTERNO
10
1026.5542
20
2.4383
30
0.0
0
VERTEX
8
CORTE EXTERNO
10
1028.7795
20
2.7759
30
0.0
0
VERTEX
8
CORTE EXTERNO
10
1030.9821
20
3.1481
30
0.0
0
VERTEX
8
CORTE EXTERNO
10
1033.1616
20
3.5560
30
0.0
0
VERTEX
8
CORTE EXTERNO
10
1035.3177
20
4.0010
30
0.0
0
VERTEX
8
CORTE EXTERNO
10
1037.4499
20
4.4843
30
0.0
0
VERTEX
8
CORTE EXTERNO
10
1039.5581
20
5.0074
30
0.0
0
VERTEX
8
CORTE EXTERNO
10
1041.6416
20
5.5715
30
0.0
0
VERTEX
8
CORTE EXTERNO
10
1043.7002
20
6.1779
30
0.0
0
VERTEX
8
CORTE EXTERNO
10
1045.7336
20
6.8280
30
0.0
0
VERTEX
8
CORTE EXTERNO
10
1047.7413
20
7.5229
30
0.0
0
VERTEX
8
CORTE EXTERNO
10
1049.7229
20
8.2641
30
0.0
0
VERTEX
8
CORTE EXTERNO
10
1051.6781
20
9.0528
30
0.0
0
VERTEX
8
CORTE EXTERNO
10
1053.6066
20
9.8903
30
0.0
0
VERTEX
8
CORTE EXTERNO
10
1055.5078
20
10.7781
30
0.0
0
VERTEX
8
CORTE EXTERNO
10
1057.3816
20
11.7172
30
0.0
0
VERTEX
8
CORTE EXTERNO
10
1059.2274
20
12.7091
30
0.0
0
VERTEX
8
CORTE EXTERNO
10
1061.0450
20
13.7551
30
0.0
0
VERTEX
8
CORTE EXTERNO
10
1062.8339
20
14.8565
30
0.0
0
VERTEX
8
CORTE EXTERNO
10
1064.5938
20
16.0145
30
0.0
0
VERTEX
8
CORTE EXTERNO
10
1066.3242
20
17.2305
30
0.0
0
VERTEX
8
CORTE EXTERNO
10
1068.0250
20
18.5058
30
0.0
0
VERTEX
8
CORTE EXTERNO
10
1069.6955
20
19.8417
30
0.0
0
VERTEX
8
CORTE EXTERNO
10
1071.3356
20
21.2395
30
0.0
0
VERTEX
8
CORTE EXTERNO
10
1072.9448
20
22.7005
30
0.0
0
VERTEX
8
CORTE EXTERNO
10
1074.5227
20
24.2260
30
0.0
0
VERTEX
8
CORTE EXTERNO
10
1076.0689
20
25.8174
30
0.0
0
VERTEX
8
CORTE EXTERNO
10
1077.5832
20
27.4758
30
0.0
0
VERTEX
8
CORTE EXTERNO
10
1079.0651
20
29.2027
30
0.0
0
VERTEX
8
CORTE EXTERNO
10
1080.5142
20
30.9994
30
0.0
0
VERTEX
8
CORTE EXTERNO
10
1081.9302
20
32.8670
30
0.0
0
VERTEX
8
CORTE EXTERNO
10
1083.3127
20
34.8071
30
0.0
0
VERTEX
8
CORTE EXTERNO
10
1084.6614
20
36.8207
30
0.0
0
VERTEX
8
CORTE EXTERNO
10
1085.9757
20
38.9094
30
0.0
0
VERTEX
8
CORTE EXTERNO
10
1087.2555
20
41.0743
30
0.0
0
VERTEX
8
CORTE EXTERNO
10
1088.5003
20
43.3168
30
0.0
0
VERTEX
8
CORTE EXTERNO
10
1089.7097
20
45.6382
30
0.0
0
VERTEX
8
CORTE EXTERNO
10
1090.8834
20
48.0397
30
0.0
0
VERTEX
8
CORTE EXTERNO
10
1091.9859
20
50.4678
30
0.0
0
VERTEX
8
CORTE EXTERNO
10
1093.0068
20
52.9184
30
0.0
0
VERTEX
8
CORTE EXTERNO
10
1093.9462
20
55.3895
30
0.0
0
VERTEX
8
CORTE EXTERNO
10
1094.8043
20
57.8791
30
0.0
0
VERTEX
8
CORTE EXTERNO
10
1095.5812
20
60.3853
30
0.0
0
VERTEX
8
CORTE EXTERNO
10
1096.2770
20
62.9062
30
0.0
0
VERTEX
8
CORTE EXTERNO
10
1096.8919
20
65.4398
30
0.0
0
VERTEX
8
CORTE EXTERNO
10
1097.4261
20
67.9843
30
0.0
0
VERTEX
8
CORTE EXTERNO
10
1097.8796
20
70.5375
30
0.0
0
VERTEX
8
CORTE EXTERNO
10
1098.2528
20
73.0977
30
0.0
0
VERTEX
8
CORTE EXTERNO
10
1098.5456
20
75.6629
30
0.0
0
VERTEX
8
CORTE EXTERNO
10
1098.7583
20
78.2310
30
0.0
0
VERTEX
8
CORTE EXTERNO
10
1098.8910
20
80.8003
30
0.0
0
VERTEX
8
CORTE EXTERNO
10
1098.9438
20
83.3686
30
0.0
0
VERTEX
8
CORTE EXTERNO
10
1098.9170
20
85.9342
30
0.0
0
VERTEX
8
CORTE EXTERNO
10
1098.8106
20
88.4951
30
0.0
0
VERTEX
8
CORTE EXTERNO
10
1098.6248
20
91.0492
30
0.0
0
VERTEX
8
CORTE EXTERNO
10
1098.3598
20
93.5947
30
0.0
0
VERTEX
8
CORTE EXTERNO
10
1098.0157
20
96.1297
30
0.0
0
VERTEX
8
CORTE EXTERNO
10
1097.5926
20
98.6521
30
0.0
0
VERTEX
8
CORTE EXTERNO
10
1097.0908
20
101.1601
30
0.0
0
VERTEX
8
CORTE EXTERNO
10
1096.5103
20
103.6517
30
0.0
0
VERTEX
8
CORTE EXTERNO
10
1095.8513
20
106.1249
30
0.0
0
VERTEX
8
CORTE EXTERNO
10
1095.1140
20
108.5779
30
0.0
0
VERTEX
8
CORTE EXTERNO
10
1094.2985
20
111.0087
30
0.0
0
VERTEX
8
CORTE EXTERNO
10
1093.4049
20
113.4152
30
0.0
0
VERTEX
8
CORTE EXTERNO
10
1092.4335
20
115.7957
30
0.0
0
VERTEX
8
CORTE EXTERNO
10
1091.3843
20
118.1482
30
0.0
0
VERTEX
8
CORTE EXTERNO
10
1090.2575
20
120.4706
30
0.0
0
VERTEX
8
CORTE EXTERNO
10
1089.0533
20
122.7611
30
0.0
0
VERTEX
8
CORTE EXTERNO
10
1087.7718
20
125.0178
30
0.0
0
VERTEX
8
CORTE EXTERNO
10
1086.4131
20
127.2386
30
0.0
0
VERTEX
8
CORTE EXTERNO
10
1084.9775
20
129.4217
30
0.0
0
VERTEX
8
CORTE EXTERNO
10
1083.4651
20
131.5651
30
0.0
0
VERTEX
8
CORTE EXTERNO
10
1081.8759
20
133.6669
30
0.0
0
VERTEX
8
CORTE EXTERNO
10
1080.2102
20
135.7251
30
0.0
0
VERTEX
8
CORTE EXTERNO
10
1078.4681
20
137.7377
30
0.0
0
VERTEX
8
CORTE EXTERNO
10
1076.6498
20
139.7029
30
0.0
0
VERTEX
8
CORTE EXTERNO
10
1074.7554
20
141.6187
30
0.0
0
VERTEX
8
CORTE EXTERNO
10
1072.7851
20
143.4831
30
0.0
0
VERTEX
8
CORTE EXTERNO
10
1070.7390
20
145.2943
30
0.0
0
VERTEX
8
CORTE EXTERNO
10
1068.6173
20
147.0502
30
0.0
0
VERTEX
8
CORTE EXTERNO
10
1066.4200
20
148.7490
30
0.0
0
VERTEX
8
CORTE EXTERNO
10
1064.1475
20
150.3886
30
0.0
0
VERTEX
8
CORTE EXTERNO
10
1061.7997
20
151.9672
30
0.0
0
VERTEX
8
CORTE EXTERNO
10
1059.3769
20
153.4828
30
0.0
0
VERTEX
8
CORTE EXTERNO
10
1056.8793
20
154.9334
30
0.0
0
VERTEX
8
CORTE EXTERNO
10
1054.3069
20
156.3172
30
0.0
0
VERTEX
8
CORTE EXTERNO
10
1051.6599
20
157.6321
30
0.0
0
VERTEX
8
CORTE EXTERNO
10
1048.9385
20
158.8763
30
0.0
0
VERTEX
8
CORTE EXTERNO
10
1046.1428
20
160.0478
30
0.0
0
VERTEX
8
CORTE EXTERNO
10
1043.2730
20
161.1446
30
0.0
0
VERTEX
8
CORTE EXTERNO
10
1040.3292
20
162.1649
30
0.0
0
VERTEX
8
CORTE EXTERNO
10
1037.3115
20
163.1066
30
0.0
0
VERTEX
8
CORTE EXTERNO
10
1034.2202
20
163.9679
30
0.0
0
VERTEX
8
CORTE EXTERNO
10
1031.0554
20
164.7467
30
0.0
0
VERTEX
8
CORTE EXTERNO
10
1027.8172
20
165.4412
30
0.0
0
VERTEX
8
CORTE EXTERNO
10
1024.5057
20
166.0493
30
0.0
0
VERTEX
8
CORTE EXTERNO
10
1021.1212
20
166.5693
30
0.0
0
VERTEX
8
CORTE EXTERNO
10
1017.6638
20
166.9990
30
0.0
0
VERTEX
8
CORTE EXTERNO
10
1014.1335
20
167.3367
30
0.0
0
VERTEX
8
CORTE EXTERNO
10
1010.5307
20
167.5803
30
0.0
0
VERTEX
8
CORTE EXTERNO
10
1006.8553
20
167.7278
30
0.0
0
VERTEX
8
CORTE EXTERNO
10
1003.1077
20
167.7774
30
0.0
0
VERTEX
8
CORTE EXTERNO
10
1000.8132
20
167.7509
30
0.0
0
VERTEX
8
CORTE EXTERNO
10
998.5239
20
167.6718
30
0.0
0
VERTEX
8
CORTE EXTERNO
10
996.2408
20
167.5406
30
0.0
0
VERTEX
8
CORTE EXTERNO
10
993.9652
20
167.3578
30
0.0
0
VERTEX
8
CORTE EXTERNO
10
991.6982
20
167.1241
30
0.0
0
VERTEX
8
CORTE EXTERNO
10
989.4409
20
166.8400
30
0.0
0
VERTEX
8
CORTE EXTERNO
10
987.1946
20
166.5060
30
0.0
0
VERTEX
8
CORTE EXTERNO
10
984.9602
20
166.1227
30
0.0
0
VERTEX
8
CORTE EXTERNO
10
982.7390
20
165.6907
30
0.0
0
VERTEX
8
CORTE EXTERNO
10
980.5322
20
165.2104
30
0.0
0
VERTEX
8
CORTE EXTERNO
10
978.3409
20
164.6826
30
0.0
0
VERTEX
8
CORTE EXTERNO
10
976.1662
20
164.1077
30
0.0
0
VERTEX
8
CORTE EXTERNO
10
974.0093
20
163.4862
30
0.0
0
VERTEX
8
CORTE EXTERNO
10
971.8713
20
162.8189
30
0.0
0
VERTEX
8
CORTE EXTERNO
10
969.7534
20
162.1061
30
0.0
0
VERTEX
8
CORTE EXTERNO
10
967.6567
20
161.3484
30
0.0
0
VERTEX
8
CORTE EXTERNO
10
965.5825
20
160.5465
30
0.0
0
VERTEX
8
CORTE EXTERNO
10
963.5317
20
159.7008
30
0.0
0
VERTEX
8
CORTE EXTERNO
10
961.5057
20
158.8120
30
0.0
0
VERTEX
8
CORTE EXTERNO
10
959.5054
20
157.8805
30
0.0
0
VERTEX
8
CORTE EXTERNO
10
957.5322
20
156.9070
30
0.0
0
VERTEX
8
CORTE EXTERNO
10
955.5871
20
155.8920
30
0.0
0
VERTEX
8
CORTE EXTERNO
10
953.6713
20
154.8360
30
0.0
0
VERTEX
8
CORTE EXTERNO
10
951.7859
20
153.7396
30
0.0
0
VERTEX
8
CORTE EXTERNO
10
949.9321
20
152.6034
30
0.0
0
VERTEX
8
CORTE EXTERNO
10
948.1110
20
151.4279
30
0.0
0
VERTEX
8
CORTE EXTERNO
10
946.3239
20
150.2137
30
0.0
0
VERTEX
8
CORTE EXTERNO
10
944.5717
20
148.9613
30
0.0
0
VERTEX
8
CORTE EXTERNO
10
942.8557
20
147.6714
30
0.0
0
VERTEX
8
CORTE EXTERNO
10
941.1771
20
146.3443
30
0.0
0
VERTEX
8
CORTE EXTERNO
10
939.5369
20
144.9808
30
0.0
0
VERTEX
8
CORTE EXTERNO
10
937.9364
20
143.5813
30
0.0
0
VERTEX
8
CORTE EXTERNO
10
936.3767
20
142.1464
30
0.0
0
VERTEX
8
CORTE EXTERNO
10
934.8589
20
140.6768
30
0.0
0
VERTEX
8
CORTE EXTERNO
10
933.3841
20
139.1728
30
0.0
0
VERTEX
8
CORTE EXTERNO
10
931.9536
20
137.6351
30
0.0
0
VERTEX
8
CORTE EXTERNO
10
930.5685
20
136.0643
30
0.0
0
VERTEX
8
CORTE EXTERNO
10
929.2299
20
134.4609
30
0.0
0
VERTEX
8
CORTE EXTERNO
10
927.9390
20
132.8254
30
0.0
0
VERTEX
8
CORTE EXTERNO
10
926.6969
20
131.1585
30
0.0
0
VERTEX
8
CORTE EXTERNO
10
925.5048
20
129.4606
30
0.0
0
VERTEX
8
CORTE EXTERNO
10
924.3639
20
127.7323
30
0.0
0
VERTEX
8
CORTE EXTERNO
10
923.2752
20
125.9742
30
0.0
0
VERTEX
8
CORTE EXTERNO
10
922.2399
20
124.1869
30
0.0
0
VERTEX
8
CORTE EXTERNO
10
921.2592
20
122.3709
30
0.0
0
VERTEX
8
CORTE EXTERNO
10
920.3343
20
120.5267
30
0.0
0
VERTEX
8
CORTE EXTERNO
10
919.4662
20
118.6549
30
0.0
0
VERTEX
8
CORTE EXTERNO
10
919.0088
20
117.6036
30
0.0
0
VERTEX
8
CORTE EXTERNO
10
918.5618
20
116.5276
30
0.0
0
VERTEX
8
CORTE EXTERNO
10
918.1258
20
115.4274
30
0.0
0
VERTEX
8
CORTE EXTERNO
10
917.7012
20
114.3037
30
0.0
0
VERTEX
8
CORTE EXTERNO
10
917.2884
20
113.1569
30
0.0
0
VERTEX
8
CORTE EXTERNO
10
916.8880
20
111.9876
30
0.0
0
VERTEX
8
CORTE EXTERNO
10
916.5004
20
110.7965
30
0.0
0
VERTEX
8
CORTE EXTERNO
10
916.1260
20
109.5840
30
0.0
0
VERTEX
8
CORTE EXTERNO
10
915.7654
20
108.3508
30
0.0
0
VERTEX
8
CORTE EXTERNO
10
915.4189
20
107.0974
30
0.0
0
VERTEX
8
CORTE EXTERNO
10
915.0872
20
105.8243
30
0.0
0
VERTEX
8
CORTE EXTERNO
10
914.7705
20
104.5322
30
0.0
0
VERTEX
8
CORTE EXTERNO
10
914.4694
20
103.2216
30
0.0
0
VERTEX
8
CORTE EXTERNO
10
914.1844
20
101.8930
30
0.0
0
VERTEX
8
CORTE EXTERNO
10
913.9159
20
100.5471
30
0.0
0
VERTEX
8
CORTE EXTERNO
10
913.6643
20
99.1844
30
0.0
0
VERTEX
8
CORTE EXTERNO
10
913.4302
20
97.8054
30
0.0
0
VERTEX
8
CORTE EXTERNO
10
913.2141
20
96.4107
30
0.0
0
VERTEX
8
CORTE EXTERNO
10
913.0163
20
95.0010
30
0.0
0
VERTEX
8
CORTE EXTERNO
10
912.8373
20
93.5767
30
0.0
0
VERTEX
8
CORTE EXTERNO
10
912.6777
20
92.1384
30
0.0
0
VERTEX
8
CORTE EXTERNO
10
912.5378
20
90.6867
30
0.0
0
VERTEX
8
CORTE EXTERNO
10
912.4182
20
89.2222
30
0.0
0
VERTEX
8
CORTE EXTERNO
10
912.3193
20
87.7453
30
0.0
0
VERTEX
8
CORTE EXTERNO
10
912.2416
20
86.2568
30
0.0
0
VERTEX
8
CORTE EXTERNO
10
912.1855
20
84.7571
30
0.0
0
VERTEX
8
CORTE EXTERNO
10
912.1515
20
83.2468
30
0.0
0
SEQEND
8
CORTE EXTERNO
0
POLYLINE
8
CORTE INTERNO
66
1
70
1
0
VERTEX
8
CORTE INTERNO
10
966.2290
20
81.7265
30
0.0
0
VERTEX
8
CORTE INTERNO
10
966.2842
20
84.6008
30
0.0
0
VERTEX
8
CORTE INTERNO
10
966.4476
20
87.3914
30
0.0
0
VERTEX
8
CORTE INTERNO
10
966.7157
20
90.0979
30
0.0
0
VERTEX
8
CORTE INTERNO
10
967.0849
20
92.7200
30
0.0
0
VERTEX
8
CORTE INTERNO
10
967.5518
20
95.2575
30
0.0
0
VERTEX
8
CORTE INTERNO
10
968.1130
20
97.7099
30
0.0
0
VERTEX
8
CORTE INTERNO
10
968.7648
20
100.0771
30
0.0
0
VERTEX
8
CORTE INTERNO
10
969.5039
20
102.3586
30
0.0
0
VERTEX
8
CORTE INTERNO
10
970.3267
20
104.5543
30
0.0
0
VERTEX
8
CORTE INTERNO
10
971.2297
20
106.6638
30
0.0
0
VERTEX
8
CORTE INTERNO
10
972.2096
20
108.6867
30
0.0
0
VERTEX
8
CORTE INTERNO
10
973.2626
20
110.6229
30
0.0
0
VERTEX
8
CORTE INTERNO
10
974.3855
20
112.4720
30
0.0
0
VERTEX
8
CORTE INTERNO
10
975.5746
20
114.2336
30
0.0
0
VERTEX
8
CORTE INTERNO
10
976.8266
20
115.9076
30
0.0
0
VERTEX
8
CORTE INTERNO
10
978.1378
20
117.4935
30
0.0
0
VERTEX
8
CORTE INTERNO
10
979.5049
20
118.9911
30
0.0
0
VERTEX
8
CORTE INTERNO
10
980.9243
20
120.4001
30
0.0
0
VERTEX
8
CORTE INTERNO
10
982.3925
20
121.7202
30
0.0
0
VERTEX
8
CORTE INTERNO
10
983.9062
20
122.9511
30
0.0
0
VERTEX
8
CORTE INTERNO
10
985.4616
20
124.0924
30
0.0
0
VERTEX
8
CORTE INTERNO
10
987.0555
20
125.1439
30
0.0
0
VERTEX
8
CORTE INTERNO
10
988.6842
20
126.1053
30
0.0
0
VERTEX
8
CORTE INTERNO
10
990.3444
20
126.9762
30
0.0
0
VERTEX
8
CORTE INTERNO
10
992.0324
20
127.7565
30
0.0
0
VERTEX
8
CORTE INTERNO
10
993.7449
20
128.4456
30
0.0
0
VERTEX
8
CORTE INTERNO
10
995.4783
20
129.0434
30
0.0
0
VERTEX
8
CORTE INTERNO
10
997.2292
20
129.5496
30
0.0
0
VERTEX
8
CORTE INTERNO
10
998.9940
20
129.9639
30
0.0
0
VERTEX
8
CORTE INTERNO
10
1000.7693
20
130.2859
30
0.0
0
VERTEX
8
CORTE INTERNO
10
1002.5515
20
130.5153
30
0.0
0
VERTEX
8
CORTE INTERNO
10
1004.3373
20
130.6519
30
0.0
0
VERTEX
8
CORTE INTERNO
10
1006.1230
20
130.6953
30
0.0
0
VERTEX
8
CORTE INTERNO
10
1007.9053
20
130.6453
30
0.0
0
VERTEX
8
CORTE INTERNO
10
1009.6806
20
130.5015
30
0.0
0
VERTEX
8
CORTE INTERNO
10
1011.4454
20
130.2636
30
0.0
0
VERTEX
8
CORTE INTERNO
10
1013.1962
20
129.9314
30
0.0
0
VERTEX
8
CORTE INTERNO
10
1014.9296
20
129.5045
30
0.0
0
VERTEX
8
CORTE INTERNO
10
1016.6421
20
128.9826
30
0.0
0
VERTEX
8
CORTE INTERNO
10
1018.3302
20
128.3655
30
0.0
0
VERTEX
8
CORTE INTERNO
10
1019.9903
20
127.6527
30
0.0
0
VERTEX
8
CORTE INTERNO
10
1021.6191
20
126.8441
30
0.0
0
VERTEX
8
CORTE INTERNO
10
1023.2129
20
125.9393
30
0.0
0
VERTEX
8
CORTE INTERNO
10
1024.7684
20
124.9381
30
0.0
0
VERTEX
8
CORTE INTERNO
10
1026.2820
20
123.8400
30
0.0
0
VERTEX
8
CORTE INTERNO
10
1027.7503
20
122.6449
30
0.0
0
VERTEX
8
CORTE INTERNO
10
1029.1697
20
121.3523
30
0.0
0
VERTEX
8
CORTE INTERNO
10
1030.5367
20
119.9621
30
0.0
0
VERTEX
8
CORTE INTERNO
10
1031.8480
20
118.4738
30
0.0
0
VERTEX
8
CORTE INTERNO
10
1033.0999
20
116.8873
30
0.0
0
VERTEX
8
CORTE INTERNO
10
1034.2891
20
115.2022
30
0.0
0
VERTEX
8
CORTE INTERNO
10
1035.4119
20
113.4181
30
0.0
0
VERTEX
8
CORTE INTERNO
10
1036.4650
20
111.5348
30
0.0
0
VERTEX
8
CORTE INTERNO
10
1037.4448
20
109.5521
30
0.0
0
VERTEX
8
CORTE INTERNO
10
1038.3478
20
107.4695
30
0.0
0
VERTEX
8
CORTE INTERNO
10
1039.1707
20
105.2868
30
0.0
0
VERTEX
8
CORTE INTERNO
10
1039.9097
20
103.0037
30
0.0
0
VERTEX
8
CORTE INTERNO
10
1040.5616
20
100.6198
30
0.0
0
VERTEX
8
CORTE INTERNO
10
1041.1227
20
98.1350
30
0.0
0
VERTEX
8
CORTE INTERNO
10
1041.5896
20
95.5488
30
0.0
0
VERTEX
8
CORTE INTERNO
10
1041.9589
20
92.8609
30
0.0
0
VERTEX
8
CORTE INTERNO
10
1042.2269
20
90.0712
30
0.0
0
VERTEX
8
CORTE INTERNO
10
1042.3903
20
87.1792
30
0.0
0
VERTEX
8
CORTE INTERNO
10
1042.4456
20
84.1847
30
0.0
0
VERTEX
8
CORTE INTERNO
10
1042.3886
20
81.0641
30
0.0
0
VERTEX
8
CORTE INTERNO
10
1042.2200
20
78.0580
30
0.0
0
VERTEX
8
CORTE INTERNO
10
1041.9436
20
75.1655
30
0.0
0
VERTEX
8
CORTE INTERNO
10
1041.5629
20
72.3860
30
0.0
0
VERTEX
8
CORTE INTERNO
10
1041.0816
20
69.7186
30
0.0
0
VERTEX
8
CORTE INTERNO
10
1040.5033
20
67.1627
30
0.0
0
VERTEX
8
CORTE INTERNO
10
1039.8318
20
64.7175
30
0.0
0
VERTEX
8
CORTE INTERNO
10
1039.0707
20
62.3823
30
0.0
0
VERTEX
8
CORTE INTERNO
10
1038.2237
20
60.1563
30
0.0
0
VERTEX
8
CORTE INTERNO
10
1037.2943
20
58.0388
30
0.0
0
VERTEX
8
CORTE INTERNO
10
1036.2863
20
56.0291
30
0.0
0
VERTEX
8
CORTE INTERNO
10
1035.2033
20
54.1264
30
0.0
0
VERTEX
8
CORTE INTERNO
10
1034.0490
20
52.3300
30
0.0
0
VERTEX
8
CORTE INTERNO
10
1032.8270
20
50.6392
30
0.0
0
VERTEX
8
CORTE INTERNO
10
1031.5410
20
49.0531
30
0.0
0
VERTEX
8
CORTE INTERNO
10
1030.1947
20
47.5711
30
0.0
0
VERTEX
8
CORTE INTERNO
10
1028.7917
20
46.1925
30
0.0
0
VERTEX
8
CORTE INTERNO
10
1027.3356
20
44.9165
30
0.0
0
VERTEX
8
CORTE INTERNO
10
1025.8301
20
43.7423
30
0.0
0
VERTEX
8
CORTE INTERNO
10
1024.2790
20
42.6693
30
0.0
0
VERTEX
8
CORTE INTERNO
10
1022.6857
20
41.6966
30
0.0
0
VERTEX
8
CORTE INTERNO
10
1021.0541
20
40.8236
30
0.0
0
VERTEX
8
CORTE INTERNO
10
1019.3877
20
40.0495
30
0.0
0
VERTEX
8
CORTE INTERNO
10
1017.6902
20
39.3736
30
0.0
0
VERTEX
8
CORTE INTERNO
10
1015.9653
20
38.7951
30
0.0
0
VERTEX
8
CORTE INTERNO
10
1014.2166
20
38.3133
30
0.0
0
VERTEX
8
CORTE INTERNO
10
1012.4478
20
37.9274
30
0.0
0
VERTEX
8
CORTE INTERNO
10
1010.6625
20
37.6368
30
0.0
0
VERTEX
8
CORTE INTERNO
10
1008.8645
20
37.4407
30
0.0
0
VERTEX
8
CORTE INTERNO
10
1007.0572
20
37.3384
30
0.0
0
VERTEX
8
CORTE INTERNO
10
1005.2445
20
37.3290
30
0.0
0
VERTEX
8
CORTE INTERNO
10
1003.4300
20
37.4119
30
0.0
0
VERTEX
8
CORTE INTERNO
10
1001.6173
20
37.5864
30
0.0
0
VERTEX
8
CORTE INTERNO
10
999.8101
20
37.8516
30
0.0
0
VERTEX
8
CORTE INTERNO
10
998.0120
20
38.2069
30
0.0
0
VERTEX
8
CORTE INTERNO
10
996.2268
20
38.6516
30
0.0
0
VERTEX
8
CORTE INTERNO
10
994.4580
20
39.1848
30
0.0
0
VERTEX
8
CORTE INTERNO
10
992.7093
20
39.8059
30
0.0
0
VERTEX
8
CORTE INTERNO
10
990.9843
20
40.5141
30
0.0
0
VERTEX
8
CORTE INTERNO
10
989.2869
20
41.3086
30
0.0
0
VERTEX
8
CORTE INTERNO
10
987.6205
20
42.1888
30
0.0
0
VERTEX
8
CORTE INTERNO
10
985.9888
20
43.1539
30
0.0
0
VERTEX
8
CORTE INTERNO
10
984.3956
20
44.2032
30
0.0
0
VERTEX
8
CORTE INTERNO
10
982.8444
20
45.3359
30
0.0
0
VERTEX
8
CORTE INTERNO
10
981.3390
20
46.5512
30
0.0
0
VERTEX
8
CORTE INTERNO
10
979.8829
20
47.8486
30
0.0
0
VERTEX
8
CORTE INTERNO
10
978.4799
20
49.2271
30
0.0
0
VERTEX
8
CORTE INTERNO
10
977.1335
20
50.6861
30
0.0
0
VERTEX
8
CORTE INTERNO
10
975.8475
20
52.2248
30
0.0
0
VERTEX
8
CORTE INTERNO
10
974.6255
20
53.8426
30
0.0
0
VERTEX
8
CORTE INTERNO
10
973.4712
20
55.5386
30
0.0
0
VERTEX
8
CORTE INTERNO
10
972.3882
20
57.3121
30
0.0
0
VERTEX
8
CORTE INTERNO
10
971.3802
20
59.1624
30
0.0
0
VERTEX
8
CORTE INTERNO
10
970.4509
20
61.0888
30
0.0
0
VERTEX
8
CORTE INTERNO
10
969.6038
20
63.0904
30
0.0
0
VERTEX
8
CORTE INTERNO
10
968.8427
20
65.1667
30
0.0
0
VERTEX
8
CORTE INTERNO
10
968.1712
20
67.3168
30
0.0
0
VERTEX
8
CORTE INTERNO
10
967.5930
20
69.5399
30
0.0
0
VERTEX
8
CORTE INTERNO
10
967.1117
20
71.8355
30
0.0
0
VERTEX
8
CORTE INTERNO
10
966.7310
20
74.2026
30
0.0
0
VERTEX
8
CORTE INTERNO
10
966.4545
20
76.6407
30
0.0
0
VERTEX
8
CORTE INTERNO
10
966.2860
20
79.1489
30
0.0
0
SEQEND
8
CORTE INTERNO
0
POLYLINE
8
CORTE EXTERNO
66
1
70
1
0
VERTEX
8
CORTE EXTERNO
10
130.3070
20
81.7265
30
0.0
0
VERTEX
8
CORTE EXTERNO
10
130.3977
20
76.6883
30
0.0
0
VERTEX
8
CORTE EXTERNO
10
130.6664
20
71.8411
30
0.0
0
VERTEX
8
CORTE EXTERNO
10
131.1079
20
67.1820
30
0.0
0
VERTEX
8
CORTE EXTERNO
10
131.7171
20
62.7082
30
0.0
0
VERTEX
8
CORTE EXTERNO
10
132.4887
20
58.4166
30
0.0
0
VERTEX
8
CORTE EXTERNO
10
133.4177
20
54.3045
30
0.0
0
VERTEX
8
CORTE EXTERNO
10
134.4987
20
50.3689
30
0.0
0
VERTEX
8
CORTE EXTERNO
10
135.7267
20
46.6069
30
0.0
0
VERTEX
8
CORTE EXTERNO
10
137.0964
20
43.0157
30
0.0
0
VERTEX
8
CORTE EXTERNO
10
138.6028
20
39.5923
30
0.0
0
VERTEX
8
CORTE EXTERNO
10
140.2405
20
36.3339
30
0.0
0
VERTEX
8
CORTE EXTERNO
10
142.0045
20
33.2374
30
0.0
0
VERTEX
8
CORTE EXTERNO
10
143.8896
20
30.3002
30
0.0
0
VERTEX
8
CORTE EXTERNO
10
145.8905
20
27.5192
30
0.0
0
VERTEX
8
CORTE EXTERNO
10
148.0022
20
24.8915
30
0.0
0
VERTEX
8
CORTE EXTERNO
10
150.2194
20
22.4143
30
0.0
0
VERTEX
8
CORTE EXTERNO
10
152.5369
20
20.0846
30
0.0
0
VERTEX
8
CORTE EXTERNO
10
154.9497
20
17.8997
30
0.0
0
VERTEX
8
CORTE EXTERNO
10
157.4524
20
15.8564
30
0.0
0
VERTEX
8
CORTE EXTERNO
10
160.0400
20
13.9521
30
0.0
0
VERTEX
8
CORTE EXTERNO
10
162.7073
20
12.1837
30
0.0
0
VERTEX
8
CORTE EXTERNO
10
165.4490
20
10.5484
30
0.0
0
VERTEX
8
CORTE EXTERNO
10
168.2601
20
9.0433
30
0.0
0
VERTEX
8
CORTE EXTERNO
10
171.1353
20
7.6655
30
0.0
0
VERTEX
8
CORTE EXTERNO
10
174.0695
20
6.4121
30
0.0
0
VERTEX
8
CORTE EXTERNO
10
177.0574
20
5.2801
30
0.0
0
VERTEX
8
CORTE EXTERNO
10
180.0940
20
4.2668
30
0.0
0
VERTEX
8
CORTE EXTERNO
10
183.1740
20
3.3691
30
0.0
0
VERTEX
8
CORTE EXTERNO
10
186.2923
20
2.5843
30
0.0
0
VERTEX
8
CORTE EXTERNO
10
189.4436
20
1.9093
30
0.0
0
VERTEX
8
CORTE EXTERNO
10
192.6229
20
1.3414
30
0.0
0
VERTEX
8
CORTE EXTERNO
10
195.8249
20
0.8775
30
0.0
0
VERTEX
8
CORTE EXTERNO
10
199.0445
20
0.5149
30
0.0
0
VERTEX
8
CORTE EXTERNO
10
202.2764
20
0.2506
30
0.0
0
VERTEX
8
CORTE EXTERNO
10
205.5156
20
0.0818
30
0.0
0
VERTEX
8
CORTE EXTERNO
10
208.7568
20
0.0054
30
0.0
0
VERTEX
8
CORTE EXTERNO
10
211.9949
20
0.0187
30
0.0
0
VERTEX
8
CORTE EXTERNO
10
215.2246
20
0.1187
30
0.0
0
VERTEX
8
CORTE EXTERNO
10
218.4409
20
0.3026
30
0.0
0
VERTEX
8
CORTE EXTERNO
10
221.6385
20
0.5674
30
0.0
0
VERTEX
8
CORTE EXTERNO
10
224.8122
20
0.9102
30
0.0
0
VERTEX
8
CORTE EXTERNO
10
227.9570
20
1.3282
30
0.0
0
VERTEX
8
CORTE EXTERNO
10
231.0675
20
1.8184
30
0.0
0
VERTEX
8
CORTE EXTERNO
10
234.1387
20
2.3780
30
0.0
0
VERTEX
8
CORTE EXTERNO
10
237.1654
20
3.0040
30
0.0
0
VERTEX
8
CORTE EXTERNO
10
240.1423
20
3.6936
30
0.0
0
VERTEX
8
CORTE EXTERNO
10
243.0644
20
4.4439
30
0.0
0
VERTEX
8
CORTE EXTERNO
10
245.9263
20
5.2519
30
0.0
0
VERTEX
8
CORTE EXTERNO
10
248.7231
20
6.1148
30
0.0
0
VERTEX
8
CORTE EXTERNO
10
251.4494
20
7.0297
30
0.0
0
VERTEX
8
CORTE EXTERNO
10
254.1002
20
7.9936
30
0.0
0
VERTEX
8
CORTE EXTERNO
10
256.6701
20
9.0038
30
0.0
0
VERTEX
8
CORTE EXTERNO
10
259.1542
20
10.0572
30
0.0
0
VERTEX
8
CORTE EXTERNO
10
261.5471
20
11.1510
30
0.0
0
VERTEX
8
CORTE EXTERNO
10
263.8437
20
12.2823
30
0.0
0
VERTEX
8
CORTE EXTERNO
10
266.0388
20
13.4482
30
0.0
0
VERTEX
8
CORTE EXTERNO
10
268.1274
20
14.6457
30
0.0
0
VERTEX
8
CORTE EXTERNO
10
270.1041
20
15.8721
30
0.0
0
VERTEX
8
CORTE EXTERNO
10
271.9638
20
17.1244
30
0.0
0
VERTEX
8
CORTE EXTERNO
10
273.7013
20
18.3997
30
0.0
0
VERTEX
8
CORTE EXTERNO
10
275.3115
20
19.6951
30
0.0
0
VERTEX
8
CORTE EXTERNO
10
276.7892
20
21.0078
30
0.0
0
VERTEX
8
CORTE EXTERNO
10
278.1292
20
22.3347
30
0.0
0
VERTEX
8
CORTE EXTERNO
10
279.3263
20
23.6731
30
0.0
0
VERTEX
8
CORTE EXTERNO
10
280.6837
20
25.3623
30
0.0
0
VERTEX
8
CORTE EXTERNO
10
281.9775
20
27.1078
30
0.0
0
VERTEX
8
CORTE EXTERNO
10
283.2092
20
28.9083
30
0.0
0
VERTEX
8
CORTE EXTERNO
10
284.3802
20
30.7623
30
0.0
0
VERTEX
8
CORTE EXTERNO
10
285.4919
20
32.6683
30
0.0
0
VERTEX
8
CORTE EXTERNO
10
286.5458
20
34.6250
30
0.0
0
VERTEX
8
CORTE EXTERNO
10
287.5434
20
36.6309
30
0.0
0
VERTEX
8
CORTE EXTERNO
10
288.4860
20
38.6845
30
0.0
0
VERTEX
8
CORTE EXTERNO
10
289.3752
20
40.7846
30
0.0
0
VERTEX
8
CORTE EXTERNO
10
290.2123
20
42.9295
30
0.0
0
VERTEX
8
CORTE EXTERNO
10
290.9989
20
45.1180
30
0.0
0
VERTEX
8
CORTE EXTERNO
10
291.7363
20
47.3486
30
0.0
0
VERTEX
8
CORTE EXTERNO
10
292.4261
20
49.6198
30
0.0
0
VERTEX
8
CORTE EXTERNO
10
293.0696
20
51.9303
30
0.0
0
VERTEX
8
CORTE EXTERNO
10
293.6683
20
54.2786
30
0.0
0
VERTEX
8
CORTE EXTERNO
10
294.2237
20
56.6633
30
0.0
0
VERTEX
8
CORTE EXTERNO
10
294.7371
20
59.0829
30
0.0
0
VERTEX
8
CORTE EXTERNO
10
295.2102
20
61.5361
30
0.0
0
VERTEX
8
CORTE EXTERNO
10
295.6442
20
64.0214
30
0.0
0
VERTEX
8
CORTE EXTERNO
10
296.0407
20
66.5374
30
0.0
0
VERTEX
8
CORTE EXTERNO
10
296.4010
20
69.0826
30
0.0
0
VERTEX
8
CORTE EXTERNO
10
296.7267
20
71.6557
30
0.0
0
VERTEX
8
CORTE EXTERNO
10
297.0191
20
74.2552
30
0.0
0
VERTEX
8
CORTE EXTERNO
10
297.2798
20
76.8797
30
0.0
0
VERTEX
8
CORTE EXTERNO
10
297.5102
20
79.5278
30
0.0
0
VERTEX
8
CORTE EXTERNO
10
297.7116
20
82.1980
30
0.0
0
VERTEX
8
CORTE EXTERNO
10
297.8857
20
84.8889
30
0.0
0
VERTEX
8
CORTE EXTERNO
10
298.0337
20
87.5991
30
0.0
0
VERTEX
8
CORTE EXTERNO
10
298.1572
20
90.3272
30
0.0
0
VERTEX
8
CORTE EXTERNO
10
298.2576
20
93.0717
30
0.0
0
VERTEX
8
CORTE EXTERNO
10
298.3364
20
95.8312
30
0.0
0
VERTEX
8
CORTE EXTERNO
10
298.3949
20
98.6044
30
0.0
0
VERTEX
8
CORTE EXTERNO
10
298.4347
20
101.3896
30
0.0
0
VERTEX
8
CORTE EXTERNO
10
298.4572
20
104.1857
30
0.0
0
VERTEX
8
CORTE EXTERNO
10
298.4638
20
106.9910
30
0.0
0
VERTEX
8
CORTE EXTERNO
10
298.4560
20
109.8042
30
0.0
0
VERTEX
8
CORTE EXTERNO
10
298.4352
20
112.6239
30
0.0
0
VERTEX
8
CORTE EXTERNO
10
298.4029
20
115.4487
30
0.0
0
VERTEX
8
CORTE EXTERNO
10
298.3605
20
118.2770
30
0.0
0
VERTEX
8
CORTE EXTERNO
10
298.3094
20
121.1076
30
0.0
0
VERTEX
8
CORTE EXTERNO
10
298.2512
20
123.9389
30
0.0
0
VERTEX
8
CORTE EXTERNO
10
298.1873
20
126.7695
30
0.0
0
VERTEX
8
CORTE EXTERNO
10
298.1190
20
129.5981
30
0.0
0
VERTEX
8
CORTE EXTERNO
10
298.0479
20
132.4232
30
0.0
0
VERTEX
8
CORTE EXTERNO
10
297.9754
20
135.2433
30
0.0
0
VERTEX
8
CORTE EXTERNO
10
297.9029
20
138.0571
30
0.0
0
VERTEX
8
CORTE EXTERNO
10
297.8319
20
140.8631
30
0.0
0
VERTEX
8
CORTE EXTERNO
10
297.7639
20
143.6598
30
0.0
0
VERTEX
8
CORTE EXTERNO
10
297.7002
20
146.4460
30
0.0
0
VERTEX
8
CORTE EXTERNO
10
297.6424
20
149.2201
30
0.0
0
VERTEX
8
CORTE EXTERNO
10
297.5918
20
151.9807
30
0.0
0
VERTEX
8
CORTE EXTERNO
10
297.5499
20
154.7264
30
0.0
0
VERTEX
8
CORTE EXTERNO
10
297.5183
20
157.4557
30
0.0
0
VERTEX
8
CORTE EXTERNO
10
297.4982
20
160.1673
30
0.0
0
VERTEX
8
CORTE EXTERNO
10
297.4912
20
162.8597
30
0.0
0
VERTEX
8
CORTE EXTERNO
10
240.9430
20
162.8597
30
0.0
0
VERTEX
8
CORTE EXTERNO
10
240.9430
20
76.8102
30
0.0
0
VERTEX
8
CORTE EXTERNO
10
240.8881
20
74.0211
30
0.0
0
VERTEX
8
CORTE EXTERNO
10
240.7260
20
71.3499
30
0.0
0
VERTEX
8
CORTE EXTERNO
10
240.4608
20
68.7958
30
0.0
0
VERTEX
8
CORTE EXTERNO
10
240.0967
20
66.3576
30
0.0
0
VERTEX
8
CORTE EXTERNO
10
239.6377
20
64.0347
30
0.0
0
VERTEX
8
CORTE EXTERNO
10
239.0881
20
61.8259
30
0.0
0
VERTEX
8
CORTE EXTERNO
10
238.4520
20
59.7304
30
0.0
0
VERTEX
8
CORTE EXTERNO
10
237.7334
20
57.7472
30
0.0
0
VERTEX
8
CORTE EXTERNO
10
236.9365
20
55.8755
30
0.0
0
VERTEX
8
CORTE EXTERNO
10
236.0653
20
54.1142
30
0.0
0
VERTEX
8
CORTE EXTERNO
10
235.1241
20
52.4625
30
0.0
0
VERTEX
8
CORTE EXTERNO
10
234.1170
20
50.9194
30
0.0
0
VERTEX
8
CORTE EXTERNO
10
233.0480
20
49.4841
30
0.0
0
VERTEX
8
CORTE EXTERNO
10
231.9213
20
48.1555
30
0.0
0
VERTEX
8
CORTE EXTERNO
10
230.7411
20
46.9327
30
0.0
0
VERTEX
8
CORTE EXTERNO
10
229.5113
20
45.8148
30
0.0
0
VERTEX
8
CORTE EXTERNO
10
228.2363
20
44.8010
30
0.0
0
VERTEX
8
CORTE EXTERNO
10
226.9200
20
43.8901
30
0.0
0
VERTEX
8
CORTE EXTERNO
10
225.5666
20
43.0814
30
0.0
0
VERTEX
8
CORTE EXTERNO
10
224.1802
20
42.3739
30
0.0
0
VERTEX
8
CORTE EXTERNO
10
222.7650
20
41.7667
30
0.0
0
VERTEX
8
CORTE EXTERNO
10
221.3250
20
41.2588
30
0.0
0
VERTEX
8
CORTE EXTERNO
10
219.8645
20
40.8493
30
0.0
0
VERTEX
8
CORTE EXTERNO
10
218.3874
20
40.5372
30
0.0
0
VERTEX
8
CORTE EXTERNO
10
216.8980
20
40.3217
30
0.0
0
VERTEX
8
CORTE EXTERNO
10
215.4003
20
40.2019
30
0.0
0
VERTEX
8
CORTE EXTERNO
10
213.8986
20
40.1767
30
0.0
0
VERTEX
8
CORTE EXTERNO
10
212.3968
20
40.2453
30
0.0
0
VERTEX
8
CORTE EXTERNO
10
210.8991
20
40.4067
30
0.0
0
VERTEX
8
CORTE EXTERNO
10
209.4097
20
40.6600
30
0.0
0
VERTEX
8
CORTE EXTERNO
10
207.9326
20
41.0042
30
0.0
0
VERTEX
8
CORTE EXTERNO
10
206.4721
20
41.4386
30
0.0
0
VERTEX
8
CORTE EXTERNO
10
205.0321
20
41.9620
30
0.0
0
VERTEX
8
CORTE EXTERNO
10
203.6169
20
42.5736
30
0.0
0
VERTEX
8
CORTE EXTERNO
10
202.2305
20
43.2724
30
0.0
0
VERTEX
8
CORTE EXTERNO
10
200.8771
20
44.0576
30
0.0
0
VERTEX
8
CORTE EXTERNO
10
199.5608
20
44.9282
30
0.0
0
VERTEX
8
CORTE EXTERNO
10
198.2858
20
45.8832
30
0.0
0
VERTEX
8
CORTE EXTERNO
10
197.0560
20
46.9218
30
0.0
0
VERTEX
8
CORTE EXTERNO
10
195.8758
20
48.0430
30
0.0
0
VERTEX
8
CORTE EXTERNO
10
194.7491
20
49.2458
30
0.0
0
VERTEX
8
CORTE EXTERNO
10
193.6801
20
50.5294
30
0.0
0
VERTEX
8
CORTE EXTERNO
10
192.6730
20
51.8928
30
0.0
0
VERTEX
8
CORTE EXTERNO
10
191.7318
20
53.3351
30
0.0
0
VERTEX
8
CORTE EXTERNO
10
190.8607
20
54.8554
30
0.0
0
VERTEX
8
CORTE EXTERNO
10
190.0637
20
56.4527
30
0.0
0
VERTEX
8
CORTE EXTERNO
10
189.3451
20
58.1260
30
0.0
0
VERTEX
8
CORTE EXTERNO
10
188.7090
20
59.8746
30
0.0
0
VERTEX
8
CORTE EXTERNO
10
188.1594
20
61.6974
30
0.0
0
VERTEX
8
CORTE EXTERNO
10
187.7005
20
63.5935
30
0.0
0
VERTEX
8
CORTE EXTERNO
10
187.3364
20
65.5620
30
0.0
0
VERTEX
8
CORTE EXTERNO
10
187.0712
20
67.6019
30
0.0
0
VERTEX
8
CORTE EXTERNO
10
186.9090
20
69.7124
30
0.0
0
VERTEX
8
CORTE EXTERNO
10
186.8541
20
71.8924
30
0.0
0
VERTEX
8
CORTE EXTERNO
10
186.8541
20
162.8597
30
0.0
0
VERTEX
8
CORTE EXTERNO
10
130.3070
20
162.8597
30
0.0
0
SEQEND
8
CORTE EXTERNO
0
POLYLINE
8
CORTE EXTERNO
66
1
70
1
0
VERTEX
8
CORTE EXTERNO
10
848.0051
20
136.4182
30
0.0
0
VERTEX
8
CORTE EXTERNO
10
848.2157
20
162.8597
30
0.0
0
VERTEX
8
CORTE EXTERNO
10
796.5849
20
162.8597
30
0.0
0
VERTEX
8
CORTE EXTERNO
10
796.5849
20
3.0513
30
0.0
0
VERTEX
8
CORTE EXTERNO
10
852.9457
20
2.9988
30
0.0
0
VERTEX
8
CORTE EXTERNO
10
853.0174
20
79.3840
30
0.0
0
VERTEX
8
CORTE EXTERNO
10
853.1005
20
81.6156
30
0.0
0
VERTEX
8
CORTE EXTERNO
10
853.2553
20
83.7861
30
0.0
0
VERTEX
8
CORTE EXTERNO
10
853.4806
20
85.8953
30
0.0
0
VERTEX
8
CORTE EXTERNO
10
853.7755
20
87.9430
30
0.0
0
VERTEX
8
CORTE EXTERNO
10
854.1387
20
89.9293
30
0.0
0
VERTEX
8
CORTE EXTERNO
10
854.5691
20
91.8540
30
0.0
0
VERTEX
8
CORTE EXTERNO
10
855.0656
20
93.7172
30
0.0
0
VERTEX
8
CORTE EXTERNO
10
855.6271
20
95.5186
30
0.0
0
VERTEX
8
CORTE EXTERNO
10
856.2524
20
97.2582
30
0.0
0
VERTEX
8
CORTE EXTERNO
10
856.9405
20
98.9359
30
0.0
0
VERTEX
8
CORTE EXTERNO
10
857.6903
20
100.5517
30
0.0
0
VERTEX
8
CORTE EXTERNO
10
858.5005
20
102.1055
30
0.0
0
VERTEX
8
CORTE EXTERNO
10
859.3701
20
103.5972
30
0.0
0
VERTEX
8
CORTE EXTERNO
10
860.2980
20
105.0267
30
0.0
0
VERTEX
8
CORTE EXTERNO
10
861.2831
20
106.3939
30
0.0
0
VERTEX
8
CORTE EXTERNO
10
862.3242
20
107.6988
30
0.0
0
VERTEX
8
CORTE EXTERNO
10
863.4202
20
108.9413
30
0.0
0
VERTEX
8
CORTE EXTERNO
10
864.5700
20
110.1213
30
0.0
0
VERTEX
8
CORTE EXTERNO
10
865.7725
20
111.2387
30
0.0
0
VERTEX
8
CORTE EXTERNO
10
867.0265
20
112.2934
30
0.0
0
VERTEX
8
CORTE EXTERNO
10
868.3310
20
113.2855
30
0.0
0
VERTEX
8
CORTE EXTERNO
10
869.6848
20
114.2147
30
0.0
0
VERTEX
8
CORTE EXTERNO
10
871.0868
20
115.0810
30
0.0
0
VERTEX
8
CORTE EXTERNO
10
872.5359
20
115.8843
30
0.0
0
VERTEX
8
CORTE EXTERNO
10
874.0309
20
116.6246
30
0.0
0
VERTEX
8
CORTE EXTERNO
10
875.5708
20
117.3017
30
0.0
0
VERTEX
8
CORTE EXTERNO
10
877.1544
20
117.9157
30
0.0
0
VERTEX
8
CORTE EXTERNO
10
878.7806
20
118.4663
30
0.0
0
VERTEX
8
CORTE EXTERNO
10
880.4483
20
118.9536
30
0.0
0
VERTEX
8
CORTE EXTERNO
10
882.1564
20
119.3775
30
0.0
0
VERTEX
8
CORTE EXTERNO
10
883.9037
20
119.7378
30
0.0
0
VERTEX
8
CORTE EXTERNO
10
885.6892
20
120.0345
30
0.0
0
VERTEX
8
CORTE EXTERNO
10
887.5117
20
120.2675
30
0.0
0
VERTEX
8
CORTE EXTERNO
10
889.3700
20
120.4368
30
0.0
0
VERTEX
8
CORTE EXTERNO
10
891.2632
20
120.5422
30
0.0
0
VERTEX
8
CORTE EXTERNO
10
893.1899
20
120.5837
30
0.0
0
VERTEX
8
CORTE EXTERNO
10
895.1493
20
120.5612
30
0.0
0
VERTEX
8
CORTE EXTERNO
10
897.1400
20
120.4746
30
0.0
0
VERTEX
8
CORTE EXTERNO
10
899.1611
20
120.3239
30
0.0
0
VERTEX
8
CORTE EXTERNO
10
901.2113
20
120.1089
30
0.0
0
VERTEX
8
CORTE EXTERNO
10
903.2896
20
119.8296
30
0.0
0
VERTEX
8
CORTE EXTERNO
10
905.3948
20
119.4860
30
0.0
0
VERTEX
8
CORTE EXTERNO
10
907.5258
20
119.0778
30
0.0
0
VERTEX
8
CORTE EXTERNO
10
909.6816
20
118.6051
30
0.0
0
VERTEX
8
CORTE EXTERNO
10
909.6816
20
165.3192
30
0.0
0
VERTEX
8
CORTE EXTERNO
10
906.4947
20
166.0083
30
0.0
0
VERTEX
8
CORTE EXTERNO
10
903.4154
20
166.5686
30
0.0
0
VERTEX
8
CORTE EXTERNO
10
900.4419
20
167.0048
30
0.0
0
VERTEX
8
CORTE EXTERNO
10
897.5724
20
167.3216
30
0.0
0
VERTEX
8
CORTE EXTERNO
10
894.8052
20
167.5236
30
0.0
0
VERTEX
8
CORTE EXTERNO
10
892.1384
20
167.6156
30
0.0
0
VERTEX
8
CORTE EXTERNO
10
889.5705
20
167.6022
30
0.0
0
VERTEX
8
CORTE EXTERNO
10
887.0995
20
167.4880
30
0.0
0
VERTEX
8
CORTE EXTERNO
10
884.7237
20
167.2779
30
0.0
0
VERTEX
8
CORTE EXTERNO
10
882.4414
20
166.9764
30
0.0
0
VERTEX
8
CORTE EXTERNO
10
880.2508
20
166.5882
30
0.0
0
VERTEX
8
CORTE EXTERNO
10
878.1501
20
166.1181
30
0.0
0
VERTEX
8
CORTE EXTERNO
10
876.1375
20
165.5706
30
0.0
0
VERTEX
8
CORTE EXTERNO
10
874.2114
20
164.9505
30
0.0
0
VERTEX
8
CORTE EXTERNO
10
872.3698
20
164.2625
30
0.0
0
VERTEX
8
CORTE EXTERNO
10
870.6112
20
163.5112
30
0.0
0
VERTEX
8
CORTE EXTERNO
10
868.9336
20
162.7014
30
0.0
0
VERTEX
8
CORTE EXTERNO
10
867.3354
20
161.8376
30
0.0
0
VERTEX
8
CORTE EXTERNO
10
865.8148
20
160.9247
30
0.0
0
VERTEX
8
CORTE EXTERNO
10
864.3699
20
159.9672
30
0.0
0
VERTEX
8
CORTE EXTERNO
10
862.9992
20
158.9698
30
0.0
0
VERTEX
8
CORTE EXTERNO
10
861.7007
20
157.9373
30
0.0
0
VERTEX
8
CORTE EXTERNO
10
860.4727
20
156.8742
30
0.0
0
VERTEX
8
CORTE EXTERNO
10
859.3135
20
155.7854
30
0.0
0
VERTEX
8
CORTE EXTERNO
10
858.2212
20
154.6754
30
0.0
0
VERTEX
8
CORTE EXTERNO
10
857.1942
20
153.5490
30
0.0
0
VERTEX
8
CORTE EXTERNO
10
856.2306
20
152.4108
30
0.0
0
VERTEX
8
CORTE EXTERNO
10
855.3288
20
151.2655
30
0.0
0
VERTEX
8
CORTE EXTERNO
10
854.4869
20
150.1178
30
0.0
0
VERTEX
8
CORTE EXTERNO
10
853.7031
20
148.9724
30
0.0
0
VERTEX
8
CORTE EXTERNO
10
852.9758
20
147.8339
30
0.0
0
VERTEX
8
CORTE EXTERNO
10
852.3031
20
146.7071
30
0.0
0
VERTEX
8
CORTE EXTERNO
10
851.6832
20
145.5965
30
0.0
0
VERTEX
8
CORTE EXTERNO
10
851.1145
20
144.5070
30
0.0
0
VERTEX
8
CORTE EXTERNO
10
850.5952
20
143.4431
30
0.0
0
VERTEX
8
CORTE EXTERNO
10
850.1234
20
142.4096
30
0.0
0
VERTEX
8
CORTE EXTERNO
10
849.6974
20
141.4112
30
0.0
0
VERTEX
8
CORTE EXTERNO
10
849.3155
20
140.4524
30
0.0
0
VERTEX
8
CORTE EXTERNO
10
848.9759
20
139.5381
30
0.0
0
VERTEX
8
CORTE EXTERNO
10
848.6768
20
138.6728
30
0.0
0
VERTEX
8
CORTE EXTERNO
10
848.4165
20
137.8613
30
0.0
0
VERTEX
8
CORTE EXTERNO
10
848.1932
20
137.1082
30
0.0
0
SEQEND
8
CORTE EXTERNO
0
POLYLINE
8
CORTE EXTERNO
66
1
70
1
0
VERTEX
8
CORTE EXTERNO
10
315.5228
20
3.8187
30
0.0
0
VERTEX
8
CORTE EXTERNO
10
315.0981
20
160.8531
30
0.0
0
VERTEX
8
CORTE EXTERNO
10
363.6110
20
160.8531
30
0.0
0
VERTEX
8
CORTE EXTERNO
10
363.6110
20
131.4893
30
0.0
0
VERTEX
8
CORTE EXTERNO
10
364.9444
20
133.6549
30
0.0
0
VERTEX
8
CORTE EXTERNO
10
366.3437
20
135.7439
30
0.0
0
VERTEX
8
CORTE EXTERNO
10
367.8067
20
137.7565
30
0.0
0
VERTEX
8
CORTE EXTERNO
10
369.3308
20
139.6927
30
0.0
0
VERTEX
8
CORTE EXTERNO
10
370.9138
20
141.5526
30
0.0
0
VERTEX
8
CORTE EXTERNO
10
372.5531
20
143.3361
30
0.0
0
VERTEX
8
CORTE EXTERNO
10
374.2464
20
145.0434
30
0.0
0
VERTEX
8
CORTE EXTERNO
10
375.9913
20
146.6744
30
0.0
0
VERTEX
8
CORTE EXTERNO
10
377.7855
20
148.2292
30
0.0
0
VERTEX
8
CORTE EXTERNO
10
379.6264
20
149.7080
30
0.0
0
VERTEX
8
CORTE EXTERNO
10
381.5117
20
151.1106
30
0.0
0
VERTEX
8
CORTE EXTERNO
10
383.4390
20
152.4371
30
0.0
0
VERTEX
8
CORTE EXTERNO
10
385.4059
20
153.6877
30
0.0
0
VERTEX
8
CORTE EXTERNO
10
387.4101
20
154.8623
30
0.0
0
VERTEX
8
CORTE EXTERNO
10
389.4490
20
155.9609
30
0.0
0
VERTEX
8
CORTE EXTERNO
10
391.5203
20
156.9837
30
0.0
0
VERTEX
8
CORTE EXTERNO
10
393.6217
20
157.9306
30
0.0
0
VERTEX
8
CORTE EXTERNO
10
395.7506
20
158.8018
30
0.0
0
VERTEX
8
CORTE EXTERNO
10
397.9048
20
159.5972
30
0.0
0
VERTEX
8
CORTE EXTERNO
10
400.0817
20
160.3169
30
0.0
0
VERTEX
8
CORTE EXTERNO
10
402.2791
20
160.9609
30
0.0
0
VERTEX
8
CORTE EXTERNO
10
404.4945
20
161.5293
30
0.0
0
VERTEX
8
CORTE EXTERNO
10
406.7255
20
162.0221
30
0.0
0
VERTEX
8
CORTE EXTERNO
10
408.9697
20
162.4394
30
0.0
0
VERTEX
8
CORTE EXTERNO
10
411.2248
20
162.7812
30
0.0
0
VERTEX
8
CORTE EXTERNO
10
413.4882
20
163.0475
30
0.0
0
VERTEX
8
CORTE EXTERNO
10
415.7577
20
163.2385
30
0.0
0
VERTEX
8
CORTE EXTERNO
10
418.0308
20
163.3541
30
0.0
0
VERTEX
8
CORTE EXTERNO
10
420.3051
20
163.3943
30
0.0
0
VERTEX
8
CORTE EXTERNO
10
422.5783
20
163.3593
30
0.0
0
VERTEX
8
CORTE EXTERNO
10
424.8478
20
163.2491
30
0.0
0
VERTEX
8
CORTE EXTERNO
10
427.1114
20
163.0637
30
0.0
0
VERTEX
8
CORTE EXTERNO
10
429.3666
20
162.8031
30
0.0
0
VERTEX
8
CORTE EXTERNO
10
431.6111
20
162.4674
30
0.0
0
VERTEX
8
CORTE EXTERNO
10
433.8424
20
162.0567
30
0.0
0
VERTEX
8
CORTE EXTERNO
10
436.0581
20
161.5710
30
0.0
0
VERTEX
8
CORTE EXTERNO
10
438.2558
20
161.0102
30
0.0
0
VERTEX
8
CORTE EXTERNO
10
440.4331
20
160.3746
30
0.0
0
VERTEX
8
CORTE EXTERNO
10
442.5877
20
159.6641
30
0.0
0
VERTEX
8
CORTE EXTERNO
10
444.7172
20
158.8787
30
0.0
0
VERTEX
8
CORTE EXTERNO
10
446.8190
20
158.0185
30
0.0
0
VERTEX
8
CORTE EXTERNO
10
448.8909
20
157.0836
30
0.0
0
VERTEX
8
CORTE EXTERNO
10
450.9305
20
156.0740
30
0.0
0
VERTEX
8
CORTE EXTERNO
10
452.9353
20
154.9897
30
0.0
0
VERTEX
8
CORTE EXTERNO
10
454.9029
20
153.8307
30
0.0
0
VERTEX
8
CORTE EXTERNO
10
456.8310
20
152.5972
30
0.0
0
VERTEX
8
CORTE EXTERNO
10
458.7171
20
151.2892
30
0.0
0
VERTEX
8
CORTE EXTERNO
10
460.5588
20
149.9066
30
0.0
0
VERTEX
8
CORTE EXTERNO
10
462.3538
20
148.4496
30
0.0
0
VERTEX
8
CORTE EXTERNO
10
464.0997
20
146.9182
30
0.0
0
VERTEX
8
CORTE EXTERNO
10
465.7939
20
145.3125
30
0.0
0
VERTEX
8
CORTE EXTERNO
10
467.4343
20
143.6324
30
0.0
0
VERTEX
8
CORTE EXTERNO
10
469.0183
20
141.8780
30
0.0
0
VERTEX
8
CORTE EXTERNO
10
470.5435
20
140.0494
30
0.0
0
VERTEX
8
CORTE EXTERNO
10
472.0076
20
138.1466
30
0.0
0
VERTEX
8
CORTE EXTERNO
10
473.4081
20
136.1696
30
0.0
0
VERTEX
8
CORTE EXTERNO
10
475.0809
20
138.5807
30
0.0
0
VERTEX
8
CORTE EXTERNO
10
476.8145
20
140.8834
30
0.0
0
VERTEX
8
CORTE EXTERNO
10
478.6061
20
143.0786
30
0.0
0
VERTEX
8
CORTE EXTERNO
10
480.4529
20
145.1673
30
0.0
0
VERTEX
8
CORTE EXTERNO
10
482.3519
20
147.1505
30
0.0
0
VERTEX
8
CORTE EXTERNO
10
484.3004
20
149.0290
30
0.0
0
VERTEX
8
CORTE EXTERNO
10
486.2955
20
150.8038
30
0.0
0
VERTEX
8
CORTE EXTERNO
10
488.3343
20
152.4760
30
0.0
0
VERTEX
8
CORTE EXTERNO
10
490.4141
20
154.0464
30
0.0
0
VERTEX
8
CORTE EXTERNO
10
492.5319
20
155.5159
30
0.0
0
VERTEX
8
CORTE EXTERNO
10
494.6849
20
156.8856
30
0.0
0
VERTEX
8
CORTE EXTERNO
10
496.8702
20
158.1564
30
0.0
0
VERTEX
8
CORTE EXTERNO
10
499.0851
20
159.3292
30
0.0
0
VERTEX
8
CORTE EXTERNO
10
501.3266
20
160.4050
30
0.0
0
VERTEX
8
CORTE EXTERNO
10
503.5919
20
161.3847
30
0.0
0
VERTEX
8
CORTE EXTERNO
10
505.8782
20
162.2693
30
0.0
0
VERTEX
8
CORTE EXTERNO
10
508.1826
20
163.0597
30
0.0
0
VERTEX
8
CORTE EXTERNO
10
510.5022
20
163.7569
30
0.0
0
VERTEX
8
CORTE EXTERNO
10
512.8342
20
164.3618
30
0.0
0
VERTEX
8
CORTE EXTERNO
10
515.1758
20
164.8754
30
0.0
0
VERTEX
8
CORTE EXTERNO
10
517.5242
20
165.2987
30
0.0
0
VERTEX
8
CORTE EXTERNO
10
519.8763
20
165.6325
30
0.0
0
VERTEX
8
CORTE EXTERNO
10
522.2295
20
165.8778
30
0.0
0
VERTEX
8
CORTE EXTERNO
10
524.5809
20
166.0356
30
0.0
0
VERTEX
8
CORTE EXTERNO
10
526.9276
20
166.1068
30
0.0
0
VERTEX
8
CORTE EXTERNO
10
529.2667
20
166.0925
30
0.0
0
VERTEX
8
CORTE EXTERNO
10
531.5955
20
165.9934
30
0.0
0
VERTEX
8
CORTE EXTERNO
10
533.9110
20
165.8106
30
0.0
0
VERTEX
8
CORTE EXTERNO
10
536.2104
20
165.5450
30
0.0
0
VERTEX
8
CORTE EXTERNO
10
538.4909
20
165.1976
30
0.0
0
VERTEX
8
CORTE EXTERNO
10
540.7497
20
164.7693
30
0.0
0
VERTEX
8
CORTE EXTERNO
10
542.9838
20
164.2611
30
0.0
0
VERTEX
8
CORTE EXTERNO
10
545.1904
20
163.6739
30
0.0
0
VERTEX
8
CORTE EXTERNO
10
547.3667
20
163.0087
30
0.0
0
VERTEX
8
CORTE EXTERNO
10
549.5098
20
162.2664
30
0.0
0
VERTEX
8
CORTE EXTERNO
10
551.6169
20
161.4480
30
0.0
0
VERTEX
8
CORTE EXTERNO
10
553.6851
20
160.5544
30
0.0
0
VERTEX
8
CORTE EXTERNO
10
555.7116
20
159.5865
30
0.0
0
VERTEX
8
CORTE EXTERNO
10
557.6935
20
158.5454
30
0.0
0
VERTEX
8
CORTE EXTERNO
10
559.6280
20
157.4320
30
0.0
0
VERTEX
8
CORTE EXTERNO
10
561.5122
20
156.2471
30
0.0
0
VERTEX
8
CORTE EXTERNO
10
563.3433
20
154.9918
30
0.0
0
VERTEX
8
CORTE EXTERNO
10
565.1185
20
153.6671
30
0.0
0
VERTEX
8
CORTE EXTERNO
10
566.8348
20
152.2738
30
0.0
0
VERTEX
8
CORTE EXTERNO
10
568.4894
20
150.8129
30
0.0
0
VERTEX
8
CORTE EXTERNO
10
570.0796
20
149.2853
30
0.0
0
VERTEX
8
CORTE EXTERNO
10
571.6023
20
147.6921
30
0.0
0
VERTEX
8
CORTE EXTERNO
10
573.0549
20
146.0342
30
0.0
0
VERTEX
8
CORTE EXTERNO
10
574.4343
20
144.3124
30
0.0
0
VERTEX
8
CORTE EXTERNO
10
575.7379
20
142.5279
30
0.0
0
VERTEX
8
CORTE EXTERNO
10
576.9627
20
140.6814
30
0.0
0
VERTEX
8
CORTE EXTERNO
10
578.1059
20
138.7740
30
0.0
0
VERTEX
8
CORTE EXTERNO
10
579.1647
20
136.8066
30
0.0
0
VERTEX
8
CORTE EXTERNO
10
580.1361
20
134.7802
30
0.0
0
VERTEX
8
CORTE EXTERNO
10
581.0174
20
132.6956
30
0.0
0
VERTEX
8
CORTE EXTERNO
10
581.8056
20
130.5540
30
0.0
0
VERTEX
8
CORTE EXTERNO
10
582.4980
20
128.3561
30
0.0
0
VERTEX
8
CORTE EXTERNO
10
583.0917
20
126.1030
30
0.0
0
VERTEX
8
CORTE EXTERNO
10
583.5839
20
123.7956
30
0.0
0
VERTEX
8
CORTE EXTERNO
10
583.9716
20
121.4348
30
0.0
0
VERTEX
8
CORTE EXTERNO
10
584.2521
20
119.0217
30
0.0
0
VERTEX
8
CORTE EXTERNO
10
584.4224
20
116.5571
30
0.0
0
VERTEX
8
CORTE EXTERNO
10
584.4799
20
114.0420
30
0.0
0
VERTEX
8
CORTE EXTERNO
10
584.4799
20
2.5431
30
0.0
0
VERTEX
8
CORTE EXTERNO
10
529.5830
20
2.5431
30
0.0
0
VERTEX
8
CORTE EXTERNO
10
529.5830
20
96.1667
30
0.0
0
VERTEX
8
CORTE EXTERNO
10
529.5252
20
98.0948
30
0.0
0
VERTEX
8
CORTE EXTERNO
10
529.3547
20
99.9400
30
0.0
0
VERTEX
8
CORTE EXTERNO
10
529.0760
20
101.7021
30
0.0
0
VERTEX
8
CORTE EXTERNO
10
528.6938
20
103.3807
30
0.0
0
VERTEX
8
CORTE EXTERNO
10
528.2124
20
104.9755
30
0.0
0
VERTEX
8
CORTE EXTERNO
10
527.6365
20
106.4860
30
0.0
0
VERTEX
8
CORTE EXTERNO
10
526.9705
20
107.9121
30
0.0
0
VERTEX
8
CORTE EXTERNO
10
526.2191
20
109.2532
30
0.0
0
VERTEX
8
CORTE EXTERNO
10
525.3866
20
110.5092
30
0.0
0
VERTEX
8
CORTE EXTERNO
10
524.4777
20
111.6795
30
0.0
0
VERTEX
8
CORTE EXTERNO
10
523.4968
20
112.7640
30
0.0
0
VERTEX
8
CORTE EXTERNO
10
522.4486
20
113.7621
30
0.0
0
VERTEX
8
CORTE EXTERNO
10
521.3375
20
114.6737
30
0.0
0
VERTEX
8
CORTE EXTERNO
10
520.1680
20
115.4983
30
0.0
0
VERTEX
8
CORTE EXTERNO
10
518.9447
20
116.2356
30
0.0
0
VERTEX
8
CORTE EXTERNO
10
517.6720
20
116.8852
30
0.0
0
VERTEX
8
CORTE EXTERNO
10
516.3546
20
117.4468
30
0.0
0
VERTEX
8
CORTE EXTERNO
10
514.9970
20
117.9201
30
0.0
0
VERTEX
8
CORTE EXTERNO
10
513.6036
20
118.3046
30
0.0
0
VERTEX
8
CORTE EXTERNO
10
512.1791
20
118.6001
30
0.0
0
VERTEX
8
CORTE EXTERNO
10
510.7278
20
118.8063
30
0.0
0
VERTEX
8
CORTE EXTERNO
10
509.2545
20
118.9226
30
0.0
0
VERTEX
8
CORTE EXTERNO
10
507.7635
20
118.9489
30
0.0
0
VERTEX
8
CORTE EXTERNO
10
506.2594
20
118.8848
30
0.0
0
VERTEX
8
CORTE EXTERNO
10
504.7467
20
118.7298
30
0.0
0
VERTEX
8
CORTE EXTERNO
10
503.2301
20
118.4838
30
0.0
0
VERTEX
8
CORTE EXTERNO
10
501.7139
20
118.1462
30
0.0
0
VERTEX
8
CORTE EXTERNO
10
500.2027
20
117.7168
30
0.0
0
VERTEX
8
CORTE EXTERNO
10
498.7010
20
117.1953
30
0.0
0
VERTEX
8
CORTE EXTERNO
10
497.2134
20
116.5812
30
0.0
0
VERTEX
8
CORTE EXTERNO
10
495.7445
20
115.8743
30
0.0
0
VERTEX
8
CORTE EXTERNO
10
494.2986
20
115.0741
30
0.0
0
VERTEX
8
CORTE EXTERNO
10
492.8803
20
114.1804
30
0.0
0
VERTEX
8
CORTE EXTERNO
10
491.4943
20
113.1927
30
0.0
0
VERTEX
8
CORTE EXTERNO
10
490.1449
20
112.1108
30
0.0
0
VERTEX
8
CORTE EXTERNO
10
488.8368
20
110.9344
30
0.0
0
VERTEX
8
CORTE EXTERNO
10
487.5744
20
109.6629
30
0.0
0
VERTEX
8
CORTE EXTERNO
10
486.3623
20
108.2961
30
0.0
0
VERTEX
8
CORTE EXTERNO
10
485.2050
20
106.8337
30
0.0
0
VERTEX
8
CORTE EXTERNO
10
484.1070
20
105.2753
30
0.0
0
VERTEX
8
CORTE EXTERNO
10
483.0729
20
103.6206
30
0.0
0
VERTEX
8
CORTE EXTERNO
10
482.1071
20
101.8692
30
0.0
0
VERTEX
8
CORTE EXTERNO
10
481.2143
20
100.0207
30
0.0
0
VERTEX
8
CORTE EXTERNO
10
480.3989
20
98.0749
30
0.0
0
VERTEX
8
CORTE EXTERNO
10
479.6654
20
96.0313
30
0.0
0
VERTEX
8
CORTE EXTERNO
10
479.0184
20
93.8896
30
0.0
0
VERTEX
8
CORTE EXTERNO
10
478.4625
20
91.6495
30
0.0
0
VERTEX
8
CORTE EXTERNO
10
478.0021
20
89.3107
30
0.0
0
VERTEX
8
CORTE EXTERNO
10
477.6417
20
86.8727
30
0.0
0
VERTEX
8
CORTE EXTERNO
10
477.3859
20
84.3352
30
0.0
0
VERTEX
8
CORTE EXTERNO
10
477.2393
20
81.6979
30
0.0
0
VERTEX
8
CORTE EXTERNO
10
477.2393
20
3.3944
30
0.0
0
VERTEX
8
CORTE EXTERNO
10
423.6171
20
3.3944
30
0.0
0
VERTEX
8
CORTE EXTERNO
10
423.6171
20
94.4639
30
0.0
0
VERTEX
8
CORTE EXTERNO
10
423.5584
20
96.5114
30
0.0
0
VERTEX
8
CORTE EXTERNO
10
423.3852
20
98.4639
30
0.0
0
VERTEX
8
CORTE EXTERNO
10
423.1022
20
100.3216
30
0.0
0
VERTEX
8
CORTE EXTERNO
10
422.7140
20
102.0850
30
0.0
0
VERTEX
8
CORTE EXTERNO
10
422.2251
20
103.7542
30
0.0
0
VERTEX
8
CORTE EXTERNO
10
421.6401
20
105.3297
30
0.0
0
VERTEX
8
CORTE EXTERNO
10
420.9636
20
106.8118
30
0.0
0
VERTEX
8
CORTE EXTERNO
10
420.2001
20
108.2009
30
0.0
0
VERTEX
8
CORTE EXTERNO
10
419.3542
20
109.4971
30
0.0
0
VERTEX
8
CORTE EXTERNO
10
418.4306
20
110.7009
30
0.0
0
VERTEX
8
CORTE EXTERNO
10
417.4337
20
111.8126
30
0.0
0
VERTEX
8
CORTE EXTERNO
10
416.3682
20
112.8325
30
0.0
0
VERTEX
8
CORTE EXTERNO
10
415.2386
20
113.7610
30
0.0
0
VERTEX
8
CORTE EXTERNO
10
414.0495
20
114.5983
30
0.0
0
VERTEX
8
CORTE EXTERNO
10
412.8055
20
115.3448
30
0.0
0
VERTEX
8
CORTE EXTERNO
10
411.5112
20
116.0009
30
0.0
0
VERTEX
8
CORTE EXTERNO
10
410.1711
20
116.5668
30
0.0
0
VERTEX
8
CORTE EXTERNO
10
408.7898
20
117.0429
30
0.0
0
VERTEX
8
CORTE EXTERNO
10
407.3719
20
117.4295
30
0.0
0
VERTEX
8
CORTE EXTERNO
10
405.9220
20
117.7269
30
0.0
0
VERTEX
8
CORTE EXTERNO
10
404.4446
20
117.9355
30
0.0
0
VERTEX
8
CORTE EXTERNO
10
402.9443
20
118.0556
30
0.0
0
VERTEX
8
CORTE EXTERNO
10
401.4257
20
118.0875
30
0.0
0
VERTEX
8
CORTE EXTERNO
10
399.8934
20
118.0315
30
0.0
0
VERTEX
8
CORTE EXTERNO
10
398.3520
20
117.8880
30
0.0
0
VERTEX
8
CORTE EXTERNO
10
396.8060
20
117.6573
30
0.0
0
VERTEX
8
CORTE EXTERNO
10
395.2600
20
117.3398
30
0.0
0
VERTEX
8
CORTE EXTERNO
10
393.7185
20
116.9356
30
0.0
0
VERTEX
8
CORTE EXTERNO
10
392.1862
20
116.4453
30
0.0
0
VERTEX
8
CORTE EXTERNO
10
390.6677
20
115.8691
30
0.0
0
VERTEX
8
CORTE EXTERNO
10
389.1674
20
115.2073
30
0.0
0
VERTEX
8
CORTE EXTERNO
10
387.6900
20
114.4602
30
0.0
0
VERTEX
8
CORTE EXTERNO
10
386.2401
20
113.6283
30
0.0
0
VERTEX
8
CORTE EXTERNO
10
384.8223
20
112.7118
30
0.0
0
VERTEX
8
CORTE EXTERNO
10
383.4410
20
111.7110
30
0.0
0
VERTEX
8
CORTE EXTERNO
10
382.1009
20
110.6262
30
0.0
0
VERTEX
8
CORTE EXTERNO
10
380.8066
20
109.4579
30
0.0
0
VERTEX
8
CORTE EXTERNO
10
379.5627
20
108.2063
30
0.0
0
VERTEX
8
CORTE EXTERNO
10
378.3736
20
106.8718
30
0.0
0
VERTEX
8
CORTE EXTERNO
10
377.2441
20
105.4546
30
0.0
0
VERTEX
8
CORTE EXTERNO
10
376.1786
20
103.9551
30
0.0
0
VERTEX
8
CORTE EXTERNO
10
375.1818
20
102.3737
30
0.0
0
VERTEX
8
CORTE EXTERNO
10
374.2582
20
100.7106
30
0.0
0
VERTEX
8
CORTE EXTERNO
10
373.4124
20
98.9662
30
0.0
0
VERTEX
8
CORTE EXTERNO
10
372.6490
20
97.1408
30
0.0
0
VERTEX
8
CORTE EXTERNO
10
371.9725
20
95.2348
30
0.0
0
VERTEX
8
CORTE EXTERNO
10
371.3875
20
93.2484
30
0.0
0
VERTEX
8
CORTE EXTERNO
10
370.8987
20
91.1820
30
0.0
0
VERTEX
8
CORTE EXTERNO
10
370.5105
20
89.0360
30
0.0
0
VERTEX
8
CORTE EXTERNO
10
370.2276
20
86.8106
30
0.0
0
VERTEX
8
CORTE EXTERNO
10
370.0546
20
84.5061
30
0.0
0
VERTEX
8
CORTE EXTERNO
10
369.9959
20
82.1230
30
0.0
0
VERTEX
8
CORTE EXTERNO
10
369.9959
20
3.8187
30
0.0
0
SEQEND
8
CORTE EXTERNO
0
ENDSEC
0
EOF
